<svg width="164" height="125" viewBox="0 0 164 125" fill="none" xmlns="http://www.w3.org/2000/svg">
<path d="M5.00366 119.033H40.0137" stroke="white" stroke-width="0.500144"/>
<path d="M125.038 119.033H160.048" stroke="white" stroke-width="0.500144"/>
<path fill-rule="evenodd" clip-rule="evenodd" d="M54.0506 0.197994C53.8416 0.306971 53.5227 0.573489 53.342 0.790268C53.0693 1.11731 53.0142 1.27901 53.0175 1.73968C53.0212 2.25852 53.5484 3.31573 61.0909 17.9315L69.1603 33.5683L69.2153 50.1734L69.2702 66.7786L69.5627 67.2077C70.2737 68.2513 71.756 68.2485 72.5603 67.2021C72.7867 66.9077 72.7869 66.8897 72.8154 49.8794L72.8438 32.8515L65.5347 18.7296C61.5147 10.9626 58.2257 4.48886 58.2257 4.34359C58.2257 4.19843 58.3202 3.96618 58.4357 3.82763L58.6457 3.57563L63.2436 3.54863L67.8416 3.52173L75.6704 18.6692L83.499 33.8166L83.5011 50.2579C83.5022 59.7008 83.5451 66.8036 83.6017 66.9445C83.656 67.0794 83.8739 67.3514 84.0862 67.5488C84.4925 67.9269 85.168 68.0895 85.7461 67.9487C86.1076 67.8605 86.7912 67.2762 86.9212 66.9442C86.9814 66.7902 87.0213 60.0633 87.0195 50.3314L87.0165 33.9775L98.5939 18.234C104.962 9.57512 110.203 2.37443 110.242 2.23258C110.448 1.48522 110.093 0.665708 109.39 0.265344C108.502 -0.239727 107.624 0.00362904 106.882 0.960618C106.677 1.22479 101.87 7.75699 96.1997 15.4766C90.5294 23.1962 85.8015 29.6035 85.6931 29.7149C85.5024 29.9111 85.2544 29.4475 77.7953 14.9587L70.0943 0H62.2626C54.8444 0 54.4107 0.01046 54.0506 0.197994Z" fill="#F37021"/>
<path d="M5.26892 101.51L0.345622 92.9429H2.96356L6.41182 98.97L9.86985 92.9429H12.4878L7.54496 101.51V108.025H5.26892V101.51ZM14.2363 108.025V91.9172L25.2356 103.424V92.9429H27.5117V108.944L16.5124 97.4657V108.025H14.2363ZM40.1129 104.362H33.656L31.9758 108.025H29.5239L36.987 91.9954L44.1864 108.025H41.6954L40.1129 104.362ZM39.1849 102.223L36.948 97.0945L34.6035 102.223H39.1849ZM46.0815 108.025V91.9172L57.0807 103.424V92.9429H59.3568V108.944L48.3575 97.4657V108.025H46.0815ZM74.2634 93.7537V96.4498C72.9479 95.3492 71.5868 94.7989 70.1802 94.7989C68.6303 94.7989 67.3245 95.3557 66.263 96.4693C65.195 97.5764 64.661 98.931 64.661 100.533C64.661 102.115 65.195 103.451 66.263 104.538C67.3311 105.626 68.64 106.169 70.19 106.169C70.991 106.169 71.6715 106.039 72.2316 105.779C72.5442 105.648 72.8665 105.473 73.1986 105.251C73.5373 105.03 73.8922 104.763 74.2634 104.45V107.195C72.9609 107.931 71.5934 108.299 70.1607 108.299C68.0051 108.299 66.1654 107.547 64.6415 106.042C63.1241 104.525 62.3654 102.695 62.3654 100.553C62.3654 98.6314 63.0004 96.9187 64.2703 95.4143C65.8332 93.5714 67.8553 92.6499 70.3365 92.6499C71.691 92.6499 73 93.0178 74.2634 93.7537ZM71.1766 110.087L68.6172 113.095L67.191 112.343L69.2424 109.227L71.1766 110.087ZM85.5948 98.8431H92.1006V92.9429H94.3766V108.025H92.1006V100.982H85.5948V108.025H83.3187V92.9429H85.5948V98.8431ZM101.039 101.51L96.1154 92.9429H98.7333L102.182 98.97L105.64 92.9429H108.258L103.315 101.51V108.025H101.039V101.51ZM112.614 105.886H119.853V108.025H108.873L116.277 95.0822H110.084V92.9429H120.019L112.614 105.886ZM121.982 108.025L125.157 91.8098L130.334 103.532L135.697 91.8098L138.549 108.025H136.215L134.759 98.9212L130.295 108.719L125.958 98.9114L124.336 108.025H121.982ZM150.614 104.362H144.157L142.476 108.025H140.025L147.488 91.9954L154.687 108.025H152.196L150.614 104.362ZM149.686 102.223L147.449 97.0945L145.104 102.223H149.686ZM159.903 95.0822V108.025H157.627V95.0822H154.159V92.9429H163.361V95.0822H159.903Z" fill="white"/>
<path d="M49.0748 116.872V119.251H50.4893C50.9009 119.251 51.22 119.147 51.4466 118.939C51.6732 118.73 51.7865 118.437 51.7865 118.059C51.7865 117.687 51.6693 117.396 51.4349 117.188C51.203 116.977 50.8813 116.872 50.4698 116.872H49.0748ZM49.0748 119.724V122.033H48.5434V116.395H50.5323C51.0819 116.395 51.5195 116.545 51.8452 116.844C52.1734 117.141 52.3375 117.541 52.3375 118.044C52.3375 118.442 52.2307 118.784 52.0171 119.068C51.8035 119.351 51.5078 119.542 51.1301 119.638L52.4977 122.033H51.8725L50.5753 119.724H50.4893H49.0748ZM56.6122 121.549V122.033H53.2088V116.395H56.6122V116.879H53.7402V118.907H56.4676V119.384H53.7402V121.549H56.6122ZM60.879 121.549V122.033H57.5226V116.395H58.054V121.549H60.879ZM62.1645 122.033H61.6331V116.395H62.1645V122.033ZM66.9667 122.033L66.3415 120.306H63.9737L63.3485 122.033H62.7819L64.8919 116.395H65.4233L67.5294 122.033H66.9667ZM65.1459 117.055L64.1339 119.845H66.1813L65.1693 117.055H65.1459ZM70.1903 122.033H68.1506V116.395H70.1786C70.6631 116.395 71.0551 116.523 71.3547 116.778C71.6542 117.033 71.804 117.369 71.804 117.786C71.804 118.098 71.7063 118.375 71.511 118.614C71.3182 118.854 71.0721 119.001 70.7725 119.056V119.083C71.1684 119.13 71.4875 119.28 71.7298 119.532C71.9747 119.783 72.0971 120.1 72.0971 120.486C72.0971 120.968 71.9278 121.347 71.5891 121.623C71.2505 121.896 70.7842 122.033 70.1903 122.033ZM68.682 116.868V118.899H69.909C70.3362 118.899 70.6683 118.807 70.9053 118.622C71.145 118.437 71.2648 118.178 71.2648 117.844C71.2648 117.537 71.158 117.297 70.9444 117.126C70.7334 116.954 70.4404 116.868 70.0653 116.868H68.682ZM68.682 121.56H70.116C70.5745 121.56 70.9275 121.465 71.1749 121.275C71.425 121.082 71.5501 120.81 71.5501 120.459C71.5501 120.107 71.4198 119.836 71.1593 119.646C70.9014 119.456 70.5302 119.361 70.0457 119.361H68.682V121.56ZM76.2194 121.549V122.033H72.8629V116.395H73.3943V121.549H76.2194ZM80.3768 121.549V122.033H76.9735V116.395H80.3768V116.879H77.5049V118.907H80.2322V119.384H77.5049V121.549H80.3768ZM82.6548 120.502H83.1901C83.2188 120.84 83.379 121.115 83.6707 121.326C83.9625 121.534 84.3285 121.639 84.7687 121.639C85.1907 121.639 85.5372 121.536 85.8081 121.33C86.0816 121.124 86.2183 120.862 86.2183 120.544C86.2183 120.281 86.1233 120.068 85.9331 119.904C85.7429 119.737 85.4382 119.6 85.0188 119.493L84.3194 119.314C83.7958 119.181 83.4128 118.998 83.1706 118.767C82.9309 118.535 82.8111 118.234 82.8111 117.864C82.8111 117.411 82.9935 117.038 83.3581 116.747C83.7228 116.452 84.1839 116.305 84.7414 116.305C85.2884 116.305 85.7429 116.451 86.105 116.743C86.4697 117.032 86.6599 117.4 86.6755 117.848H86.1402C86.1141 117.531 85.9722 117.275 85.7143 117.083C85.4564 116.887 85.1269 116.79 84.7257 116.79C84.3324 116.79 84.0068 116.888 83.7489 117.086C83.4936 117.282 83.366 117.535 83.366 117.844C83.366 118.087 83.4584 118.285 83.6434 118.438C83.8283 118.59 84.1292 118.718 84.546 118.825L85.1555 118.982C85.7234 119.125 86.1337 119.314 86.3864 119.548C86.639 119.783 86.7654 120.095 86.7654 120.486C86.7654 120.981 86.5804 121.378 86.2105 121.678C85.8406 121.975 85.3444 122.123 84.7218 122.123C84.1331 122.123 83.6486 121.975 83.2683 121.678C82.888 121.378 82.6835 120.986 82.6548 120.502ZM90.9502 121.549V122.033H87.5468V116.395H90.9502V116.879H88.0783V118.907H90.8056V119.384H88.0783V121.549H90.9502ZM92.392 116.872V119.251H93.8065C94.218 119.251 94.5371 119.147 94.7638 118.939C94.9904 118.73 95.1037 118.437 95.1037 118.059C95.1037 117.687 94.9865 117.396 94.752 117.188C94.5202 116.977 94.1985 116.872 93.7869 116.872H92.392ZM92.392 119.724V122.033H91.8606V116.395H93.8494C94.3991 116.395 94.8367 116.545 95.1623 116.844C95.4905 117.141 95.6547 117.541 95.6547 118.044C95.6547 118.442 95.5479 118.784 95.3342 119.068C95.1206 119.351 94.825 119.542 94.4473 119.638L95.8149 122.033H95.1897L93.8924 119.724H93.8065H92.392ZM98.7298 122.033H98.1984L96.0884 116.395H96.6549L98.4523 121.369H98.4758L100.277 116.395H100.84L98.7298 122.033ZM101.989 122.033H101.457V116.395H101.989V122.033ZM105.329 122.123C104.561 122.123 103.95 121.86 103.497 121.334C103.043 120.805 102.817 120.094 102.817 119.2C102.817 118.317 103.043 117.614 103.497 117.09C103.953 116.567 104.563 116.305 105.329 116.305C105.723 116.305 106.083 116.384 106.412 116.543C106.742 116.702 107.013 116.925 107.224 117.212C107.435 117.498 107.566 117.822 107.615 118.184H107.08C107.002 117.778 106.8 117.446 106.474 117.188C106.149 116.93 105.767 116.801 105.329 116.801C104.73 116.801 104.252 117.019 103.895 117.454C103.541 117.886 103.364 118.468 103.364 119.2C103.364 119.943 103.541 120.533 103.895 120.97C104.252 121.408 104.731 121.627 105.333 121.627C105.784 121.627 106.167 121.514 106.482 121.287C106.797 121.06 106.996 120.753 107.08 120.365H107.615C107.516 120.914 107.263 121.346 106.857 121.658C106.451 121.968 105.941 122.123 105.329 122.123ZM111.808 121.549V122.033H108.404V116.395H111.808V116.879H108.936V118.907H111.663V119.384H108.936V121.549H111.808ZM112.359 120.502H112.894C112.923 120.84 113.083 121.115 113.375 121.326C113.666 121.534 114.032 121.639 114.473 121.639C114.895 121.639 115.241 121.536 115.512 121.33C115.785 121.124 115.922 120.862 115.922 120.544C115.922 120.281 115.827 120.068 115.637 119.904C115.447 119.737 115.142 119.6 114.723 119.493L114.023 119.314C113.5 119.181 113.117 118.998 112.874 118.767C112.635 118.535 112.515 118.234 112.515 117.864C112.515 117.411 112.697 117.038 113.062 116.747C113.427 116.452 113.888 116.305 114.445 116.305C114.992 116.305 115.447 116.451 115.809 116.743C116.174 117.032 116.364 117.4 116.379 117.848H115.844C115.818 117.531 115.676 117.275 115.418 117.083C115.16 116.887 114.831 116.79 114.43 116.79C114.036 116.79 113.711 116.888 113.453 117.086C113.197 117.282 113.07 117.535 113.07 117.844C113.07 118.087 113.162 118.285 113.347 118.438C113.532 118.59 113.833 118.718 114.25 118.825L114.859 118.982C115.427 119.125 115.838 119.314 116.09 119.548C116.343 119.783 116.469 120.095 116.469 120.486C116.469 120.981 116.284 121.378 115.914 121.678C115.544 121.975 115.048 122.123 114.426 122.123C113.837 122.123 113.352 121.975 112.972 121.678C112.592 121.378 112.387 120.986 112.359 120.502Z" fill="white"/>
</svg>
