<svg width="30" height="30" viewBox="0 0 30 30" fill="none" xmlns="http://www.w3.org/2000/svg">
<g clip-path="url(#clip0_706_414)">
<path d="M0 4.00199C0 3.03672 0.337847 2.24039 1.01351 1.61299C1.68918 0.985572 2.56758 0.671875 3.64865 0.671875C4.71043 0.671875 5.56949 0.980736 6.22587 1.59852C6.90153 2.23558 7.23938 3.06568 7.23938 4.08886C7.23938 5.0155 6.91121 5.78769 6.25483 6.40547C5.57916 7.04253 4.69112 7.36106 3.59073 7.36106H3.56178C2.49999 7.36106 1.64094 7.04253 0.984556 6.40547C0.328176 5.7684 0 4.96723 0 4.00199ZM0.376448 29.3398V9.9962H6.80502V29.3398H0.376448ZM10.3668 29.3398H16.7954V18.5387C16.7954 17.863 16.8726 17.3417 17.027 16.975C17.2973 16.3186 17.7075 15.7636 18.2577 15.3099C18.8079 14.8562 19.4981 14.6294 20.3282 14.6294C22.4904 14.6294 23.5714 16.0869 23.5714 19.002V29.3398H30V18.2491C30 15.3919 29.3243 13.225 27.973 11.7481C26.6216 10.2713 24.8359 9.53288 22.6158 9.53288C20.1255 9.53288 18.1853 10.6043 16.7954 12.7472V12.8051H16.7664L16.7954 12.7472V9.9962H10.3668C10.4054 10.614 10.4247 12.5348 10.4247 15.7587C10.4247 18.9827 10.4054 23.5097 10.3668 29.3398Z" fill="white"/>
</g>
<defs>
<clipPath id="clip0_706_414">
<rect width="30" height="30" fill="white"/>
</clipPath>
</defs>
</svg>
