<svg width="156" height="60" viewBox="0 0 156 60" fill="none" xmlns="http://www.w3.org/2000/svg">
<path fill-rule="evenodd" clip-rule="evenodd" d="M0.865822 0.165908C0.690673 0.257224 0.423437 0.480552 0.272046 0.662201C0.043579 0.93624 -0.00264859 1.07174 0.000114012 1.45775C0.00324496 1.89251 0.444985 2.7784 6.76518 15.0256L13.5269 28.1283L13.573 42.0425L13.619 55.9568L13.8641 56.3163C14.4599 57.1908 15.7019 57.1884 16.3759 56.3117C16.5656 56.0649 16.5658 56.0499 16.5896 41.7962L16.6135 27.5278L10.4889 15.6944C7.12036 9.18603 4.36429 3.76142 4.36429 3.63969C4.36429 3.51805 4.44349 3.32344 4.54027 3.20735L4.71625 2.99618L8.56907 2.97355L12.4219 2.95102L18.982 15.6437L25.542 28.3365L25.5437 42.1133C25.5446 50.026 25.5805 55.9777 25.628 56.0958C25.6735 56.2088 25.8561 56.4367 26.034 56.6022C26.3744 56.919 26.9405 57.0553 27.4249 56.9372C27.7278 56.8633 28.3006 56.3737 28.4095 56.0955C28.46 55.9664 28.4934 50.3297 28.492 42.1749L28.4894 28.4712L38.1906 15.2791C43.5263 8.02342 47.9186 1.98964 47.9514 1.87078C48.1239 1.24453 47.8261 0.557826 47.2368 0.222344C46.4932 -0.200878 45.7577 0.00304094 45.1356 0.804944C44.9638 1.0263 40.9358 6.49993 36.1844 12.9685C31.433 19.4372 27.4713 24.8061 27.3805 24.8994C27.2207 25.0638 27.0129 24.6754 20.7626 12.5346L14.3096 0H7.74701C1.53097 0 1.16759 0.00876491 0.865822 0.165908Z" fill="#F37021"/>
<path d="M74.12 22V15.48L79.08 6.92H76.46L73 12.94L69.54 6.92H66.94L71.86 15.48V22H74.12ZM82.8722 11.44L93.8722 22.92V6.92H91.5922V17.4L80.5922 5.9V22H82.8722V11.44ZM103.084 11.08L105.324 16.2H100.744L103.084 11.08ZM110.324 22L103.124 5.98L95.6644 22H98.1044L99.7844 18.34H106.244L107.824 22H110.324ZM114.289 11.44L125.289 22.92V6.92H123.009V17.4L112.009 5.9V22H114.289V11.44ZM139.96 7.74C138.7 7 137.38 6.62 136.04 6.62C133.78 6.62 131.9 7.4 130.36 8.94C128.84 10.48 128.08 12.34 128.08 14.52C128.08 16.68 128.84 18.52 130.34 20.02C131.86 21.52 133.7 22.28 135.86 22.28C137.3 22.28 138.66 21.9 139.96 21.16V18.42C139.22 19.06 138.54 19.5 137.94 19.76C137.36 20.02 136.68 20.14 135.9 20.14C134.34 20.14 133.02 19.6 131.96 18.5C130.9 17.4 130.36 16.06 130.36 14.5C130.36 12.9 130.9 11.54 131.96 10.44C133.02 9.34 134.34 8.78 135.88 8.78C137.3 8.78 138.66 9.32 139.96 10.42V7.74ZM143.073 6.92V22H145.353V14.96H151.853V22H154.133V6.92H151.853V12.82H145.353V6.92H143.073ZM68.8 35.92V51H71.08V43.96H77.58V51H79.86V35.92H77.58V41.82H71.08V35.92H68.8ZM89.988 51V44.48L94.948 35.92H92.328L88.868 41.94L85.408 35.92H82.808L87.728 44.48V51H89.988ZM97.9402 35.92V38.06H104.14L96.7402 51H107.72V48.86H100.48L107.88 35.92H97.9402ZM115.02 41.88L119.34 51.7L123.82 41.9L125.26 51H127.6L124.76 34.78L119.38 46.5L114.22 34.78L111.04 51H113.4L115.02 41.88ZM137.679 40.08L139.919 45.2H135.339L137.679 40.08ZM144.919 51L137.719 34.98L130.259 51H132.699L134.379 47.34H140.839L142.419 51H144.919ZM154.783 35.92H145.583V38.06H149.063V51H151.323V38.06H154.783V35.92Z" fill="white"/>
</svg>
