<svg width="243" height="242" viewBox="0 0 243 242" fill="none" xmlns="http://www.w3.org/2000/svg">
<path fill-rule="evenodd" clip-rule="evenodd" d="M111.269 0.431137C108.912 1.06571 107.122 2.15149 105.126 4.15498C101.43 7.86699 100.591 9.90624 97.1611 23.5144L94.3921 34.4988L91.9721 35.3662C88.5833 36.5808 85.2238 38.0038 82.4161 39.4138C81.0969 40.0766 79.9089 40.6187 79.7764 40.6187C79.6438 40.6187 75.3187 37.9368 70.1649 34.6588C65.0112 31.3808 60.0582 28.3652 59.1588 27.9573C54.1279 25.6763 48.5659 25.6072 43.9754 27.7688C42.457 28.4838 41.3213 29.4921 35.3205 35.4512C27.8865 42.8333 27.1543 43.7865 26.374 47.097C25.5431 50.6219 26.1834 55.2702 28.0425 59.2086C28.6265 60.4455 31.6816 65.7531 34.8316 71.0031C37.9819 76.2532 40.5522 80.6697 40.5439 80.8176C40.5356 80.9655 39.674 83.0407 38.6297 85.4296C37.5853 87.8181 36.4331 90.6616 36.0693 91.7484L35.4079 93.7242L33.5746 94.194C32.566 94.4524 27.869 95.5118 23.1366 96.5484C18.4041 97.5847 13.8061 98.6893 12.9188 99.0028C7.89596 100.777 3.56228 104.831 1.78762 109.415C1.09846 111.195 1.0955 111.238 1.00892 120.696C0.952449 126.852 1.02478 130.687 1.21515 131.604C2.29528 136.806 7.10731 141.454 13.591 143.558C14.5523 143.869 19.5133 145.163 24.6155 146.432C36.4928 149.386 35.9088 149.225 35.9088 149.541C35.9088 150.021 37.8125 154.91 39.2645 158.159L40.6778 161.322L34.5668 171.523C31.2057 177.133 28.0852 182.615 27.6321 183.704C25.2898 189.336 25.4851 195.302 28.1384 199.174C28.6284 199.888 31.9381 203.355 35.4939 206.877C41.1156 212.446 42.2043 213.402 43.841 214.208C48.5501 216.527 54.2174 216.432 59.4366 213.945C60.4718 213.451 65.411 210.43 70.4129 207.231C75.4145 204.032 79.6048 201.414 79.725 201.414C79.8452 201.414 81.4467 202.141 83.284 203.029C85.1214 203.917 88.3456 205.292 90.4494 206.085C92.5529 206.877 94.3418 207.593 94.4246 207.676C94.5075 207.759 95.8186 212.779 97.3383 218.833C99.7188 228.315 100.273 230.189 101.341 232.365C103.512 236.79 106.483 239.746 110.257 241.238C111.829 241.859 112.111 241.878 121.348 241.962C131.835 242.057 132.588 241.974 135.935 240.356C138.028 239.344 141.768 235.72 143.147 233.368C144.543 230.987 145.15 228.878 147.51 218.22C148.722 212.748 149.808 208.021 149.924 207.716C150.056 207.369 150.573 207.033 151.303 206.82C152.895 206.354 159.31 203.698 161.588 202.561C163.043 201.835 163.567 201.691 164.008 201.895C164.318 202.039 168.505 204.671 173.311 207.745C178.117 210.819 182.783 213.667 183.679 214.075C188.866 216.437 194.377 216.465 199.124 214.153C200.961 213.258 201.743 212.567 207.883 206.418C215.008 199.283 215.924 198.093 216.61 195.083C217.075 193.038 216.962 189.197 216.368 186.894C215.56 183.76 214.405 181.535 208.439 171.616C205.386 166.54 202.889 162.272 202.889 162.131C202.889 161.99 203.295 161.06 203.792 160.066C204.828 157.992 207.248 152.075 207.738 150.416C208.031 149.425 208.195 149.264 209.176 149.004C209.785 148.843 214.397 147.68 219.425 146.419C224.454 145.158 229.354 143.871 230.315 143.558C236.804 141.45 241.611 136.806 242.691 131.604C242.881 130.688 242.954 126.846 242.899 120.696L242.814 111.202L242.076 109.353C240.665 105.816 237.909 102.677 234.367 100.573C231.874 99.0918 230.569 98.6973 221.522 96.6885C217.115 95.7097 212.396 94.6591 211.034 94.3534L208.559 93.7979L207.969 92.0133C207.255 89.8547 204.742 83.8326 203.667 81.703C203.239 80.8547 202.889 80.0448 202.889 79.9031C202.889 79.7614 205.387 75.4925 208.44 70.417C215.871 58.0623 216.52 56.6031 216.787 51.6431C216.966 48.3105 216.643 46.4461 215.47 44.0554C214.77 42.6286 213.587 41.32 207.849 35.6265C201.874 29.6986 200.818 28.7658 199.082 27.8874C196.221 26.4399 193.067 25.9059 189.808 26.3176C185.364 26.8788 183.733 27.669 173.289 34.3176C168.078 37.6354 163.71 40.3498 163.583 40.3498C163.455 40.3498 162.295 39.8225 161.004 39.1783C159.713 38.5337 156.902 37.3184 154.758 36.4773C152.613 35.6359 150.614 34.8473 150.314 34.7241C149.842 34.5305 149.448 33.0559 147.39 23.779C146.081 17.8823 144.706 12.2905 144.334 11.3531C142.197 5.97159 137.615 1.7097 132.585 0.425759C130.35 -0.144823 113.392 -0.14079 111.269 0.431137ZM130.63 13.9557C131.597 14.5935 132.597 15.9613 133.101 17.3383C133.322 17.9417 134.793 24.3039 136.37 31.4765C137.947 38.6491 139.372 44.6588 139.536 44.8311C139.7 45.0037 141.468 45.6582 143.464 46.2858C148.796 47.9618 153.709 49.9983 159.076 52.7563L163.834 55.2021L168.371 52.3121C170.866 50.7227 173.694 48.9131 174.655 48.2909C182.733 43.0637 187.87 39.9357 188.874 39.6335C189.531 39.4359 190.617 39.2743 191.288 39.2743H192.508L198.257 44.9881L204.006 50.702L203.853 51.8655C203.572 53.9973 202.515 55.9983 195.417 67.8267C191.541 74.2876 188.369 79.7038 188.369 79.8627C188.369 80.0217 189.322 82.0561 190.486 84.3836C193.423 90.251 194.642 93.2074 196.503 98.9676C197.386 101.703 198.187 104.027 198.281 104.131C198.376 104.235 201.78 105.057 205.847 105.959C227.211 110.696 226.983 110.63 228.683 112.566L229.509 113.506V121.408V129.31L228.413 130.248C226.917 131.528 224.714 132.197 210.077 135.813L197.771 138.852L196.552 142.703C194.968 147.709 193.235 151.893 190.403 157.549L188.109 162.132L195.268 174.043C202.439 185.972 203.468 187.901 203.827 190.08L204.02 191.249L198.39 196.897C192.93 202.375 192.722 202.55 191.514 202.686C189.509 202.912 187.93 202.19 181.557 198.128C178.279 196.038 174.106 193.382 172.283 192.226C170.461 191.069 167.848 189.397 166.477 188.509C165.107 187.621 163.869 186.894 163.727 186.894C163.585 186.894 161.357 187.974 158.777 189.293C153.328 192.08 150.181 193.385 143.889 195.47L139.34 196.977L138.35 201.549C137.055 207.523 135.658 213.811 134.259 219.958C133.032 225.347 132.387 226.752 130.585 227.96C129.688 228.561 129.534 228.572 122.035 228.572H114.399L113.702 227.832C112.316 226.364 111.51 223.838 108.225 210.691C106.415 203.444 104.801 197.377 104.638 197.207C104.474 197.037 102.457 196.288 100.153 195.543C94.0837 193.578 91.0253 192.303 84.9759 189.214L79.593 186.466L67.9014 193.931C55.7345 201.701 54.6657 202.326 53.0314 202.633C50.7453 203.062 50.4409 202.86 44.5805 197.032C39.278 191.759 39.1357 191.589 39.1443 190.533C39.1492 189.936 39.3654 188.834 39.6251 188.083C39.8846 187.332 43.5235 181.002 47.7117 174.016L55.3263 161.313L53.5137 157.634C50.521 151.56 49.3755 148.817 47.7114 143.738L46.1258 138.898L32.31 135.436C18.5915 131.998 16.6324 131.372 15.1371 129.953L14.3977 129.251V121.544C14.3977 113.977 14.4087 113.819 15.0078 112.931C15.3434 112.433 16.1729 111.682 16.8513 111.263C18.1748 110.445 18.4006 110.383 27.5732 108.357C30.9007 107.622 36.3608 106.403 39.7063 105.647L45.7896 104.272L47.0607 100.208C48.8439 94.5075 49.8278 92.0625 52.7665 86.0297L55.3357 80.7549L47.6423 67.923C43.1688 60.4616 39.7786 54.5178 39.542 53.7216C38.6695 50.7827 38.5251 51.0349 44.446 45.1487C47.3669 42.2449 50.0209 39.7354 50.3438 39.5717C51.282 39.0965 53.1325 39.2372 54.731 39.9048C55.5444 40.2444 61.4559 43.8714 67.8678 47.965C74.2797 52.0583 79.6089 55.4076 79.71 55.4076C79.8113 55.4076 81.8772 54.3624 84.3007 53.0852C89.9119 50.128 93.1458 48.7647 99.4857 46.6832C102.287 45.7634 104.673 44.8395 104.786 44.6297C104.9 44.4203 106.508 38.1683 108.359 30.7365C110.21 23.305 111.963 16.7567 112.255 16.1853C112.547 15.6137 113.104 14.7669 113.494 14.3036L114.203 13.4609L122.044 13.4628C129.185 13.4644 129.952 13.5083 130.63 13.9557ZM116.172 72.9112C103.814 74.6667 93.5448 80.1152 85.5688 89.1477C68.0227 109.017 69.9996 139.705 89.9554 157.245C104.41 169.95 125.022 172.951 142.461 164.89C152.563 160.22 161.293 151.523 165.988 141.452C174.002 124.263 171.308 104.344 158.985 89.6613C152.569 82.0165 143.173 76.2145 133.515 73.9335C128.335 72.71 120.739 72.2623 116.172 72.9112ZM130.423 86.9746C142.544 90.1192 151.758 98.632 155.677 110.305C157.274 115.062 157.747 122.214 156.808 127.39C153.676 144.647 137.946 157.109 120.497 156.156C114.987 155.854 110.713 154.699 105.82 152.185C95.8524 147.067 88.6481 136.807 87.2561 125.749C86.8121 122.222 87.0625 116.219 87.7734 113.34C90.3789 102.792 97.2568 94.1751 106.761 89.5513C112.155 86.927 116.505 86.0324 123.163 86.1773C126.998 86.2607 128.167 86.3892 130.423 86.9746Z" fill="white"/>
</svg>
