<svg width="271" height="235" viewBox="0 0 271 235" fill="none" xmlns="http://www.w3.org/2000/svg">
<path fill-rule="evenodd" clip-rule="evenodd" d="M128.233 0.353647C118.809 1.59309 110.759 4.64519 102.659 10.0505C97.6923 13.3646 90.4035 20.7322 87.1413 25.7359C75.358 43.8094 73.9371 65.9065 83.3386 84.8847C90.3375 99.0128 102.385 109.574 117.078 114.46L120.615 115.636V121.434V127.231L118.71 127.458C114.453 127.965 109.322 131.678 107.685 135.438C107.337 136.235 106.881 136.899 106.67 136.912C106.459 136.925 104.835 136.915 103.062 136.889C101.288 136.863 97.5457 136.959 94.7446 137.103L89.6523 137.365L88.3562 138.568C87.0662 139.765 87.0597 139.786 86.9345 143.29L86.809 146.809L57.3703 146.809L27.9319 146.807L26.898 144.803C25.6527 142.389 23.1051 139.893 20.453 138.488C18.6447 137.53 18.1916 137.453 14.3287 137.446C10.4367 137.44 10.0141 137.512 8.02334 138.516C5.17067 139.955 2.51823 142.712 1.1278 145.684L0 148.095V186.127V224.159L0.972902 226.261C3.62462 231.991 9.40325 235.4 15.578 234.876C20.3159 234.475 24.9791 231.264 27.025 226.995L27.9319 225.103L57.3148 225.183L86.6976 225.262L86.879 228.569C87.0811 232.25 87.4769 233.238 89.1694 234.283C90.2972 234.98 91.4043 234.997 135.052 234.998C184.02 235 181 235.135 182.602 232.857C183.186 232.025 183.363 231.12 183.447 228.533L183.552 225.262L212.935 225.174L242.318 225.086L243.225 226.974C246.151 233.064 253.509 236.337 259.936 234.408C264.006 233.187 267.47 230.166 269.277 226.261L270.25 224.159V186.127V148.095L269.397 145.954C268.297 143.192 265.208 139.968 262.269 138.515C260.265 137.524 259.777 137.439 256.103 137.439C252.513 137.439 251.9 137.54 249.994 138.444C247.495 139.63 244.087 142.988 243.079 145.256L242.389 146.809H212.915H183.441L183.315 143.29L183.19 139.77L181.835 138.513L180.479 137.255H171.982H163.484L162.661 135.51C162.208 134.55 160.834 132.761 159.609 131.534C157.836 129.76 156.844 129.103 154.757 128.319C153.314 127.778 151.571 127.334 150.884 127.334H149.635V121.517V115.701L153.013 114.571C167.873 109.598 180.148 98.8662 186.957 84.8924C196.225 65.8749 194.97 44.2103 183.573 26.4664C174.886 12.9421 160.611 3.4855 144.741 0.742783C140.045 -0.0689349 132.752 -0.240902 128.233 0.353647ZM145.645 10.7961C157.359 13.5565 167.834 20.6473 174.764 30.5085C177.55 34.4733 180.67 41.2614 181.915 46.0659C183.379 51.7156 183.847 60.2929 183.001 65.9683C181.506 76.0087 176.866 85.4297 169.821 92.7322C163.246 99.5463 156.153 103.705 146.733 106.267C143.106 107.254 142.552 107.303 135.125 107.294C127.761 107.286 127.115 107.228 123.551 106.265C114.087 103.706 106.593 99.2682 100.085 92.368C91.4584 83.2205 86.879 71.5176 86.879 58.6191C86.879 34.8533 103.426 14.7827 126.6 10.4389C131.436 9.53241 141.047 9.71247 145.645 10.7961ZM129.865 19.8749C129.466 19.9675 128.242 20.2273 127.144 20.4526C112.305 23.4995 100.53 35.4387 97.4028 50.6107C96.5627 54.6858 96.3737 59.2048 96.9813 60.6871C98.051 63.2972 101.848 64.2493 104.137 62.4814C105.533 61.4026 105.968 60.1481 106.242 56.4033C107.108 44.5876 114.971 34.5523 126.419 30.6521C129.637 29.556 130.202 29.4777 134.944 29.4715C139.428 29.466 140.396 29.5806 143.217 30.4508C149.454 32.3744 153.743 35.3457 158.153 40.7973C161.515 44.9536 164.122 52.2003 164.139 57.4366C164.142 58.5041 164.371 59.9265 164.648 60.5971C166.254 64.4911 172.104 64.2894 173.459 60.2936C173.85 59.1387 173.873 58.076 173.569 55.0544C172.385 43.2655 166.081 32.5001 156.692 26.2342C152.523 23.4518 149.47 22.0907 144.012 20.5808C141.905 19.998 131.562 19.4821 129.865 19.8749ZM147.216 39.8566C146.35 40.3916 144.28 43.5889 138.832 52.8085C134.854 59.541 131.331 65.5788 131.004 66.2255C128.839 70.5082 133.505 75.0996 137.509 72.6263C138.644 71.9255 139.619 70.4153 147.504 57.1493C153.735 46.6653 154.065 46.0439 154.255 44.441C154.714 40.5434 150.523 37.8135 147.216 39.8566ZM140.204 122.373V127.334H135.306H130.409V122.373V117.413H135.306H140.204V122.373ZM151.697 137.602C153.411 138.39 154.139 139.556 154.504 142.098C154.639 143.044 155.083 144.246 155.49 144.77C156.968 146.674 157.672 146.809 166.124 146.809H173.943L173.851 186.036L173.758 225.262H135.125H96.4919L96.3994 186.036L96.3073 146.809L104.199 146.808C111.381 146.807 112.194 146.742 113.25 146.091C114.812 145.125 115.51 143.95 115.863 141.688C116.201 139.523 117.554 137.802 119.331 137.279C119.938 137.1 127.126 136.943 135.306 136.929C149.173 136.906 150.282 136.951 151.697 137.602ZM16.4025 147.423C17.1045 147.76 17.9856 148.546 18.3603 149.168C19.0147 150.255 19.0419 151.717 19.0419 185.944C19.0419 220.627 19.0227 221.619 18.3349 222.762C17.321 224.446 16.0017 225.198 14.11 225.169C12.0035 225.137 10.1549 223.77 9.62997 221.856C9.38293 220.954 9.25379 208.586 9.2527 185.76C9.25125 147.025 9.09237 149.443 11.7524 147.643C13.2161 146.653 14.6584 146.585 16.4025 147.423ZM258.498 147.643C261.159 149.444 260.999 146.982 260.999 186.127C260.999 218.811 260.955 221.306 260.364 222.48C259.444 224.309 258.061 225.201 256.145 225.201C254.26 225.201 252.917 224.426 251.915 222.762C251.227 221.619 251.208 220.629 251.209 186.127C251.21 155.038 251.278 150.535 251.764 149.591C253.122 146.954 256.174 146.071 258.498 147.643ZM86.7905 186.036L86.6976 215.34L57.7682 215.435L28.8388 215.529V186.13V156.731H57.8611H86.8834L86.7905 186.036ZM133.13 157.251C130.41 158.478 119.266 171.598 115.274 178.272C110.712 185.901 109.944 192.668 112.802 200.056C115 205.736 120.439 211.331 125.752 213.376C127.921 214.211 128.68 214.223 130.291 213.448C132.527 212.373 132.731 211.699 132.763 205.277C132.79 199.885 132.853 199.379 133.819 196.876C134.384 195.411 134.972 194.212 135.125 194.212C135.278 194.212 135.864 195.411 136.427 196.876C137.383 199.364 137.455 199.925 137.51 205.365L137.57 211.191L138.829 212.466C140.75 214.412 142.437 214.502 145.747 212.838C150.437 210.48 154.509 206.356 156.883 201.561C159.389 196.499 159.904 189.836 158.162 185.025C155.553 177.823 150.843 171.116 141.292 161.006C137.344 156.827 135.723 156.081 133.13 157.251ZM241.411 186.13V215.529L212.482 215.435L183.552 215.34L183.459 186.036L183.367 156.731H212.389H241.411V186.13ZM141.492 175.839C144.919 180.154 146.174 182.032 147.871 185.393C149.349 188.319 149.449 188.702 149.44 191.456C149.433 193.734 149.229 194.885 148.536 196.573C147.458 199.193 146.898 199.504 146.645 197.625C146.006 192.892 141.156 184.457 137.637 181.96C136.505 181.157 133.733 181.166 132.591 181.976C129.363 184.266 125.189 191.235 124.01 196.302C123.666 197.78 123.273 198.989 123.137 198.989C123.001 198.989 122.425 197.955 121.857 196.692C120.994 194.773 120.824 193.911 120.828 191.456C120.832 188.775 120.955 188.273 122.224 185.76C124.55 181.152 128.94 175.118 133.216 170.649L135.193 168.582L137.248 170.832C138.379 172.07 140.288 174.323 141.492 175.839Z" fill="white"/>
</svg>
