<svg width="239" height="239" viewBox="0 0 239 239" fill="none" xmlns="http://www.w3.org/2000/svg">
<path d="M70.732 28.6914L70.7319 28.6916C67.4311 34.5597 58.3632 45.4318 50.5893 52.8192C43.9331 59.1407 39.4853 64.1868 37.4575 67.6843C36.9479 68.5632 36.5786 69.3652 36.3686 70.081C36.1602 70.7916 36.0949 71.4645 36.2515 72.0574C36.4151 72.6767 36.806 73.1497 37.3811 73.4513C37.9336 73.7409 38.6327 73.862 39.4327 73.862C39.7413 73.862 40.0644 73.7564 40.3644 73.621C40.6761 73.4804 41.0198 73.2811 41.385 73.0384C42.1162 72.5524 42.9802 71.8611 43.9181 71.0233C45.7963 69.3456 48.0145 67.041 50.1263 64.5112C54.4668 59.3151 63.935 52.3156 72.5913 47.9452C79.5772 44.4187 83.7032 42.5486 88.8947 41.4998C94.1085 40.4466 100.418 40.2172 111.778 40.0428C124.112 39.8529 131.686 39.458 135.424 38.6046C136.362 38.3906 137.11 38.137 137.644 37.8208C138.174 37.5066 138.607 37.0559 138.643 36.4244C138.676 35.8317 138.34 35.3017 137.923 34.8586C137.492 34.3989 136.869 33.9226 136.103 33.4255L135.776 33.929L136.103 33.4255C135.437 32.9936 134.256 32.6669 132.799 32.4014C131.308 32.1299 129.426 31.9065 127.277 31.7292C122.978 31.3744 117.568 31.2009 111.998 31.2064C106.428 31.2118 100.686 31.3964 95.723 31.7597C90.7761 32.1219 86.5518 32.6647 84.0446 33.4018C81.9393 34.0201 79.9542 34.5005 78.4556 34.7772C77.7039 34.916 77.0897 35.0006 76.6502 35.0282C76.6302 35.0294 76.6109 35.0305 76.592 35.0315C76.6265 34.9657 76.6658 34.8937 76.7101 34.8153C77.0188 34.2692 77.5186 33.5066 78.1782 32.5771C79.494 30.7227 81.4104 28.2536 83.6093 25.6201C93.8613 13.3424 109.067 8.58604 125.399 10.8672C141.741 13.1498 159.197 22.4836 173.825 38.3741L174.28 37.9552L173.825 38.3741L185.233 50.7653L176.89 52.2365L176.89 52.2366C171.147 53.2505 166.989 54.3959 162.414 56.7118C157.857 59.0186 152.908 62.4762 145.567 68.0744L145.942 68.5662L145.567 68.0744C131.766 78.6011 121.188 83.9255 111.916 84.3196C102.701 84.7114 94.6245 80.2325 85.8042 70.7219C82.9368 67.6302 80.3983 65.5211 78.3544 64.3097C77.3342 63.705 76.412 63.3089 75.6159 63.1376C74.83 62.9685 74.0779 63.0012 73.495 63.3834C72.8882 63.7812 72.6191 64.453 72.591 65.212C72.5632 65.9613 72.7621 66.8645 73.1588 67.8869C73.9548 69.9382 75.6132 72.6361 78.2647 75.8662C86.7282 86.1785 100.955 93.0991 113.838 93.1553C118.65 93.1763 122.015 92.7513 126.75 90.491C131.433 88.2553 137.464 84.2195 147.641 77.0757C158.733 69.2899 164.473 65.3359 169.042 63.3391C173.548 61.3701 176.906 61.3081 183.326 61.4326L183.326 61.4326C187.564 61.5135 190.921 61.3431 193.234 60.9346C194.384 60.7314 195.322 60.4618 195.988 60.1072C196.636 59.7624 197.197 59.2381 197.197 58.4756C197.197 57.7097 196.91 56.7239 196.455 55.6219C195.992 54.5017 195.327 53.1946 194.507 51.7626C192.867 48.8973 190.589 45.491 188.019 42.0116C182.888 35.0629 176.547 27.7535 171.75 23.8449C164.624 18.038 159.604 14.2982 154.681 11.5019C149.75 8.70099 144.937 6.85859 138.241 4.81994C123.762 0.411711 110.598 0.229547 99.3618 4.3465C86.552 9.03772 77.4256 16.8004 70.732 28.6914ZM144.303 226.928L144.303 226.928C142.673 228.485 141.555 229.923 141.007 231.227C140.449 232.553 140.462 233.804 141.206 234.847C141.917 235.843 143.212 236.521 144.917 236.958C146.639 237.399 148.876 237.618 151.603 237.618C168.363 237.618 185.53 232.502 200.089 224.039C214.645 215.578 226.636 203.747 232.996 190.275C236.959 181.885 238.285 170.773 237.314 160.178C236.343 149.589 233.068 139.405 227.715 132.903C227.381 132.496 226.95 131.663 226.463 130.432C225.985 129.222 225.474 127.687 224.964 125.931C223.945 122.419 222.934 118.053 222.182 113.683C220.608 104.544 219.157 98.3779 217.492 94.4889C216.658 92.5417 215.75 91.1144 214.703 90.1707C213.638 89.2101 212.449 88.7702 211.124 88.7702C210.18 88.7702 209.301 88.8704 208.639 89.0434C208.313 89.1288 208.005 89.2407 207.763 89.3895C207.557 89.5168 207.21 89.7909 207.21 90.2512C207.21 90.3435 207.226 90.4399 207.239 90.5068C207.253 90.5855 207.274 90.6773 207.299 90.7785C207.349 90.9815 207.421 91.2439 207.511 91.5552C207.692 92.1791 207.952 93.0197 208.271 94.0151C208.91 96.0068 209.791 98.6318 210.758 101.41C218.736 124.314 214.302 151.05 198.172 176.636C193.698 183.733 191.023 188.418 189.946 191.343C189.675 192.08 189.496 192.728 189.42 193.29C189.344 193.849 189.363 194.364 189.531 194.808C189.706 195.273 190.028 195.615 190.46 195.827C190.873 196.03 191.362 196.103 191.878 196.103C192.817 196.103 193.851 195.549 194.892 194.729C195.959 193.89 197.139 192.686 198.39 191.208C200.892 188.247 203.73 184.116 206.559 179.4C212.214 169.969 217.879 158.121 220.779 148.461L223.081 140.787L226.084 147.796C233.506 165.117 229.891 183.066 218.25 197.777C206.601 212.5 186.909 223.973 162.242 228.214L154.981 229.462L158.124 221.755C161.113 214.434 161.455 207.685 160.181 184.7C158.895 161.518 159.265 155.565 162.062 150.022L161.509 149.743L162.062 150.022C166.503 141.215 175.621 134.645 188.541 131.102C191.109 130.398 193.328 129.483 195.089 128.498C196.839 127.52 198.176 126.451 198.935 125.421C199.314 124.905 199.578 124.36 199.64 123.81C199.704 123.237 199.542 122.694 199.138 122.252C198.752 121.828 198.181 121.536 197.487 121.348C196.788 121.158 195.917 121.06 194.875 121.06C187.61 121.06 179.558 123.792 172.429 128.159C165.298 132.527 159.031 138.566 155.367 145.248L155.367 145.248C153.056 149.466 151.812 152.257 151.355 157.306C150.903 162.293 151.215 169.502 151.942 182.563C152.772 197.505 152.87 206.677 151.75 213.09C150.642 219.439 148.343 223.07 144.303 226.928ZM12.5164 110.158L12.5164 110.158C-4.06086 143.694 -1.97438 183.779 17.7506 207.401C23.1556 213.875 28.9198 218.526 35.5594 221.562C42.1975 224.598 49.6752 226.003 58.4847 226.036C67.0334 226.068 75.7962 227.743 81.8561 230.483C87.7867 233.164 94.594 234.948 100.097 235.582C102.846 235.899 105.303 235.934 107.177 235.634C108.114 235.484 108.937 235.246 109.585 234.895C110.236 234.542 110.756 234.05 110.986 233.382L110.986 233.381C111.233 232.661 110.898 231.995 110.407 231.479C109.912 230.96 109.151 230.466 108.206 230.001C106.305 229.065 103.482 228.158 100.009 227.394C74.9564 221.888 56.302 206.111 43.0274 179.092C40.668 174.288 38.3446 170.244 36.4037 167.467C35.4359 166.082 34.5468 164.988 33.7815 164.271C33.4006 163.914 33.0251 163.626 32.6638 163.449C32.3108 163.276 31.8769 163.163 31.4502 163.324L31.4498 163.324C29.6312 164.011 28.6228 166.191 29.0795 168.144C30.1998 172.934 33.5288 180.174 37.6669 187.458C41.8116 194.753 46.8078 202.162 51.3061 207.29L60.6365 217.93H54.6285C37.4101 217.93 19.617 202.231 12.7399 180.61C11.822 177.723 11.2399 173.448 10.9738 168.425C10.7082 163.412 10.759 157.695 11.089 151.944C11.7504 140.417 13.5279 128.853 16.0781 122.578L16.0781 122.578L19.6134 113.875L23.6594 119.257L23.6595 119.257C27.076 123.8 29.4657 126.567 33.8417 129.601C38.1832 132.612 44.4794 135.886 55.6836 141.495C61.2344 144.273 66.8849 147.471 71.514 150.382C76.1689 153.309 79.7205 155.903 81.136 157.475C84.2862 160.974 86.4543 167.012 87.3207 173.791C88.185 180.553 87.7396 187.946 85.7633 194.084L86.3519 194.273L85.7632 194.084C84.7689 197.173 84.2294 199.556 84.1768 201.417C84.1236 203.298 84.5679 204.708 85.5965 205.762C86.1705 206.351 86.8613 206.621 87.6096 206.477C88.3076 206.343 88.9409 205.868 89.501 205.243C90.6264 203.987 91.7059 201.843 92.6456 199.215C94.5343 193.933 95.9519 186.423 95.9519 179.339C95.9519 164.837 91.662 153.684 83.3135 146.953L82.9253 147.434L83.3134 146.953C81.5609 145.54 77.6031 143.119 72.6806 140.369C67.7412 137.609 61.7848 134.492 56.0011 131.683C45.462 126.565 38.0043 121.828 33.1844 117.096C28.3796 112.378 26.224 107.695 26.2143 102.649V102.649C26.2098 100.621 25.7878 99.1069 24.8085 98.3674C23.7616 97.5768 22.4143 97.8857 21.1457 98.674C19.8479 99.4805 18.4092 100.909 16.9465 102.835C15.4777 104.769 13.9609 107.237 12.5164 110.158Z" fill="white" stroke="white" stroke-width="1.23684"/>
</svg>
