<svg width="250" height="287" viewBox="0 0 250 287" fill="none" xmlns="http://www.w3.org/2000/svg">
<mask id="path-1-outside-1_706_518" maskUnits="userSpaceOnUse" x="0" y="0" width="250" height="287" fill="black">
<rect fill="white" width="250" height="287"/>
<path fill-rule="evenodd" clip-rule="evenodd" d="M85.5526 1.6005C84.7575 2.10248 84.5704 5.70617 84.3054 25.6146L84.005 48.1843C83.998 48.7061 83.6945 49.1784 83.2227 49.4015L47.9007 66.1013C28.0496 75.4862 11.2827 83.6146 10.6417 84.1634C9.51176 85.1305 9.47559 88.1655 9.47559 181.425V276.471C9.47559 277.164 8.9563 277.748 8.2676 277.828L6.20179 278.069C3.88955 278.339 2.59623 278.856 1.79805 279.831C0.50848 281.407 0.819656 283.937 2.45781 285.188C3.26597 285.805 28.71 285.968 124.838 285.968C257.42 285.968 248.515 286.589 248.515 282.348C248.515 279.614 247.373 278.569 243.877 278.105L242.011 277.858C241.332 277.767 240.824 277.188 240.824 276.503V164.095C240.824 50.6271 240.823 50.4868 239.553 49.1243C238.854 48.3735 237.708 47.7593 237.007 47.7593C236.306 47.7593 220.345 55.0552 201.539 63.9724C182.732 72.8896 167.181 80.1855 166.982 80.1855C166.782 80.1855 166.614 73.8013 166.609 65.999C166.603 55.907 166.375 51.368 165.821 50.2729C164.774 48.2033 90.2494 0.986908 88.0513 1C87.1914 1.00561 86.067 1.27561 85.5526 1.6005ZM125.462 32.9592L157.566 53.2959C157.961 53.5461 158.2 53.9808 158.201 54.4483L158.358 165.78L158.513 276.493C158.514 277.248 157.902 277.861 157.146 277.861H125.152H93.1549C92.4002 277.861 91.7884 277.249 91.7884 276.495V145.038C91.7884 71.9854 91.9986 12.2164 92.2561 12.2176C92.5136 12.2195 107.456 21.5526 125.462 32.9592ZM83.6818 167.799V276.495C83.6818 277.249 83.0701 277.861 82.3154 277.861H50.3183H18.3236C17.568 277.861 16.9559 277.248 16.9571 276.492L17.1126 183.593L17.2689 90.1874C17.2698 89.661 17.5729 89.182 18.0481 88.9558L50.3202 73.5962C68.4976 64.9452 83.4405 57.8376 83.5259 57.8014C83.6114 57.7659 83.6818 107.265 83.6818 167.799ZM232.718 168.111V276.495C232.718 277.249 232.106 277.861 231.351 277.861H199.668H167.985C167.23 277.861 166.618 277.249 166.618 276.494L166.622 183.544L166.626 90.0923C166.626 89.5642 166.93 89.0834 167.407 88.8573L199.204 73.8007C217.122 65.3162 231.993 58.3714 232.25 58.367C232.508 58.3633 232.718 107.748 232.718 168.111ZM31.44 98.6167C30.2091 99.4785 30.0538 100.132 30.0538 104.444C30.0538 109.807 30.9206 111.365 33.9038 111.365C36.6388 111.365 37.5368 109.627 37.5368 104.336C37.5368 100.136 37.3765 99.4754 36.1506 98.6167C35.3885 98.083 34.3285 97.6458 33.7953 97.6458C33.2621 97.6458 32.202 98.083 31.44 98.6167ZM47.7292 99.2447C46.2557 100.719 46.1503 101.186 46.3792 105.237C46.6529 110.084 47.559 111.365 50.7156 111.365C53.3184 111.365 54.3735 109.345 54.3735 104.366C54.3735 100.971 54.1284 99.8951 53.1263 98.893C51.4408 97.2074 49.6499 97.3241 47.7292 99.2447ZM64.3508 98.893C63.3487 99.8951 63.1036 100.971 63.1036 104.366C63.1036 109.325 64.1631 111.37 66.7248 111.355C69.9356 111.337 71.2102 109.306 71.2102 104.206C71.2102 101.322 70.9408 100.438 69.6793 99.1767C67.8242 97.3209 66.0189 97.2249 64.3508 98.893ZM106.27 98.6167C105.039 99.4785 104.884 100.132 104.884 104.444C104.884 109.807 105.75 111.365 108.734 111.365C111.469 111.365 112.367 109.627 112.367 104.336C112.367 100.136 112.206 99.4754 110.98 98.6167C110.218 98.083 109.158 97.6458 108.625 97.6458C108.092 97.6458 107.032 98.083 106.27 98.6167ZM122.389 99.289C121.389 100.56 121.097 101.83 121.097 104.901C121.097 109.485 122.356 111.365 125.426 111.365C128.154 111.365 129.203 109.428 129.203 104.39C129.203 100.871 128.982 99.9824 127.838 98.9173C125.976 97.1825 123.937 97.3216 122.389 99.289ZM139.181 98.893C138.16 99.9138 137.933 100.971 137.933 104.72C137.933 109.764 138.853 111.373 141.724 111.355C144.755 111.336 146.04 109.209 146.04 104.206C146.04 101.322 145.771 100.438 144.509 99.1767C142.654 97.3209 140.849 97.2249 139.181 98.893ZM180.337 98.893C179.316 99.9138 179.09 100.971 179.09 104.72C179.09 109.764 180.01 111.373 182.881 111.355C185.912 111.336 187.196 109.209 187.196 104.206C187.196 101.322 186.927 100.438 185.666 99.1767C183.81 97.3209 182.005 97.2249 180.337 98.893ZM197.087 98.8381C195.794 99.8845 195.615 100.56 195.615 104.385C195.615 109.345 196.788 111.365 199.668 111.365C202.467 111.365 203.41 109.664 203.41 104.612C203.41 100.971 203.178 99.9082 202.162 98.893C200.596 97.3265 198.975 97.3085 197.087 98.8381ZM213.432 99.289C212.432 100.56 212.14 101.83 212.14 104.901C212.14 109.485 213.399 111.365 216.469 111.365C219.182 111.365 220.246 109.423 220.246 104.475C220.246 100.978 220.029 100.153 218.803 99.0015C216.876 97.1912 215.003 97.2916 213.432 99.289ZM31.44 122.313C30.2091 123.175 30.0538 123.828 30.0538 128.14C30.0538 133.503 30.9206 135.061 33.9038 135.061C36.6388 135.061 37.5368 133.323 37.5368 128.032C37.5368 123.832 37.3765 123.172 36.1506 122.313C35.3885 121.779 34.3285 121.342 33.7953 121.342C33.2621 121.342 32.202 121.779 31.44 122.313ZM47.4997 123.057C46.3417 124.525 46.1821 125.385 46.3873 129.049C46.6461 133.662 47.5883 135.061 50.4393 135.061C53.2049 135.061 54.3735 133.023 54.3735 128.201C54.3735 124.667 54.1359 123.599 53.1263 122.589C51.361 120.824 49.1129 121.011 47.4997 123.057ZM64.3508 122.589C63.3487 123.591 63.1036 124.667 63.1036 128.062C63.1036 133.021 64.1631 135.066 66.7248 135.051C69.9144 135.033 71.2102 133 71.2102 128.015C71.2102 122.352 67.513 119.427 64.3508 122.589ZM106.27 122.313C105.039 123.175 104.884 123.828 104.884 128.14C104.884 133.503 105.75 135.061 108.734 135.061C111.469 135.061 112.367 133.323 112.367 128.032C112.367 123.832 112.206 123.172 110.98 122.313C110.218 121.779 109.158 121.342 108.625 121.342C108.092 121.342 107.032 121.779 106.27 122.313ZM122.389 122.985C121.389 124.257 121.097 125.526 121.097 128.597C121.097 133.059 122.352 135.061 125.15 135.061C128.034 135.061 129.203 133.083 129.203 128.201C129.203 124.667 128.966 123.599 127.956 122.589C126.216 120.849 123.942 121.01 122.389 122.985ZM139.181 122.589C138.16 123.61 137.933 124.667 137.933 128.416C137.933 133.507 138.846 135.061 141.835 135.061C144.439 135.061 146.04 132.449 146.04 128.201C146.04 122.352 142.398 119.371 139.181 122.589ZM180.337 122.589C179.316 123.61 179.09 124.667 179.09 128.416C179.09 133.507 180.002 135.061 182.991 135.061C185.595 135.061 187.196 132.449 187.196 128.201C187.196 122.352 183.555 119.371 180.337 122.589ZM197.087 122.534C195.794 123.581 195.615 124.257 195.615 128.081C195.615 133.041 196.788 135.061 199.668 135.061C202.513 135.061 203.41 133.377 203.41 128.032C203.41 123.832 203.249 123.172 202.023 122.313C200.191 121.029 198.872 121.088 197.087 122.534ZM213.387 122.589C212.377 123.599 212.14 124.667 212.14 128.201C212.14 133.083 213.309 135.061 216.193 135.061C219.077 135.061 220.246 133.083 220.246 128.201C220.246 123.32 219.077 121.342 216.193 121.342C215.336 121.342 214.073 121.903 213.387 122.589ZM31.0858 146.802C30.3182 147.65 30.0538 149.143 30.0538 152.63C30.0538 157.811 30.9486 159.38 33.9038 159.38C36.6388 159.38 37.5368 157.643 37.5368 152.351C37.5368 148.152 37.3765 147.491 36.1506 146.633C34.306 145.34 32.3492 145.406 31.0858 146.802ZM48.3871 146.139C45.9408 147.772 45.4238 155.022 47.5596 157.737C49.1123 159.712 51.3859 159.874 53.1263 158.133C54.1359 157.124 54.3735 156.055 54.3735 152.521C54.3735 148.987 54.1359 147.918 53.1263 146.909C51.8692 145.652 49.6548 145.292 48.3871 146.139ZM64.3508 146.909C63.3412 147.918 63.1036 148.987 63.1036 152.521C63.1036 156.055 63.3412 157.124 64.3508 158.133C67.5685 161.351 71.2102 158.371 71.2102 152.521C71.2102 146.671 67.5685 143.691 64.3508 146.909ZM105.916 146.802C105.148 147.65 104.884 149.143 104.884 152.63C104.884 157.811 105.778 159.38 108.734 159.38C111.469 159.38 112.367 157.643 112.367 152.351C112.367 148.152 112.206 147.491 110.98 146.633C109.136 145.34 107.179 145.406 105.916 146.802ZM122.678 146.503C121.429 147.417 120.623 153.042 121.335 155.878C122.2 159.325 125.605 160.484 127.956 158.133C128.966 157.124 129.203 156.055 129.203 152.521C129.203 148.987 128.966 147.918 127.956 146.909C126.512 145.465 124.328 145.297 122.678 146.503ZM138.965 146.802C137.363 148.573 137.513 156.465 139.181 158.133C142.398 161.351 146.04 158.371 146.04 152.521C146.04 149.85 145.714 148.533 144.747 147.305C143.21 145.35 140.493 145.114 138.965 146.802ZM180.476 146.633C179.255 147.487 179.09 148.155 179.09 152.245C179.09 156.055 179.313 157.109 180.337 158.133C183.555 161.351 187.196 158.371 187.196 152.521C187.196 146.787 184.113 144.085 180.476 146.633ZM196.803 146.974C195.88 147.994 195.615 149.232 195.615 152.521C195.615 155.81 195.88 157.048 196.803 158.068C198.211 159.624 200.112 159.749 202.023 158.41C203.257 157.546 203.41 156.896 203.41 152.521C203.41 148.146 203.257 147.496 202.023 146.633C200.112 145.293 198.211 145.418 196.803 146.974ZM213.387 146.909C212.377 147.918 212.14 148.987 212.14 152.521C212.14 157.402 213.309 159.38 216.193 159.38C219.077 159.38 220.246 157.402 220.246 152.521C220.246 147.64 219.077 145.662 216.193 145.662C215.336 145.662 214.073 146.223 213.387 146.909ZM31.0584 171.152C30.2116 172.088 30.0357 173.306 30.1823 177.211C30.355 181.81 30.4666 182.154 32.0804 183.055C33.6219 183.915 33.9686 183.915 35.5101 183.055C37.124 182.154 37.2356 181.81 37.4083 177.211C37.6154 171.693 36.7598 169.981 33.7953 169.981C32.8724 169.981 31.6408 170.508 31.0584 171.152ZM47.8134 170.849C46.8974 171.518 46.5725 172.691 46.3873 175.993C46.1821 179.657 46.3417 180.517 47.4997 181.985C49.1129 184.031 51.361 184.218 53.1263 182.453C54.1359 181.443 54.3735 180.375 54.3735 176.841C54.3735 173.307 54.1359 172.238 53.1263 171.228C51.6721 169.774 49.4958 169.618 47.8134 170.849ZM64.3508 171.228C63.3412 172.238 63.1036 173.307 63.1036 176.841C63.1036 180.375 63.3412 181.443 64.3508 182.453C66.0912 184.193 68.3648 184.032 69.9175 182.057C72.0533 179.342 71.5363 172.092 69.09 170.458C67.8223 169.612 65.6079 169.971 64.3508 171.228ZM105.888 171.152C105.041 172.088 104.866 173.306 105.012 177.211C105.185 181.81 105.296 182.154 106.91 183.055C108.452 183.915 108.798 183.915 110.34 183.055C111.954 182.154 112.065 181.81 112.238 177.211C112.445 171.693 111.59 169.981 108.625 169.981C107.702 169.981 106.471 170.508 105.888 171.152ZM122.344 171.228C120.535 173.037 120.563 179.736 122.389 182.057C123.942 184.032 126.216 184.193 127.956 182.453C128.966 181.443 129.203 180.375 129.203 176.841C129.203 171.959 128.034 169.981 125.15 169.981C124.293 169.981 123.03 170.543 122.344 171.228ZM139.32 170.952C138.098 171.807 137.933 172.475 137.933 176.564C137.933 180.375 138.157 181.429 139.181 182.453C140.849 184.121 142.654 184.025 144.509 182.169C145.789 180.89 146.04 180.035 146.04 176.953C146.04 171.104 142.99 168.381 139.32 170.952ZM180.122 171.122C178.519 172.893 178.669 180.785 180.337 182.453C182.005 184.121 183.81 184.025 185.666 182.169C187.741 180.095 187.876 174.131 185.904 171.624C184.367 169.67 181.65 169.433 180.122 171.122ZM196.841 171.252C195.379 172.867 194.904 178.991 196.069 181.195C197.257 183.442 199.788 184.173 201.803 182.854C203.303 181.871 203.41 181.477 203.41 176.923C203.41 172.989 203.189 171.846 202.269 171.013C200.715 169.607 198.231 169.716 196.841 171.252ZM213.387 171.228C211.578 173.037 211.606 179.736 213.432 182.057C215.017 184.071 217.253 184.183 218.975 182.335C219.996 181.239 220.246 180.136 220.246 176.723C220.246 171.967 219.053 169.981 216.193 169.981C215.336 169.981 214.073 170.543 213.387 171.228ZM31.0584 195.472C30.2116 196.407 30.0357 197.626 30.1823 201.53C30.355 206.13 30.4666 206.474 32.0804 207.374C33.6219 208.235 33.9686 208.235 35.5101 207.374C37.124 206.474 37.2356 206.13 37.4083 201.53C37.6154 196.013 36.7598 194.301 33.7953 194.301C32.8724 194.301 31.6408 194.828 31.0584 195.472ZM47.4505 195.313C46.989 195.869 46.5026 198.236 46.3711 200.574C46.1509 204.465 46.2651 204.957 47.7292 206.421C49.6592 208.351 51.187 208.446 53.0085 206.748C54.1521 205.683 54.3735 204.795 54.3735 201.275C54.3735 196.086 53.3465 194.301 50.3614 194.301C49.2115 194.301 47.9169 194.751 47.4505 195.313ZM64.1357 195.442C62.5331 197.212 62.6827 205.105 64.3508 206.773C66.0363 208.458 67.8273 208.342 69.7479 206.421C71.2214 204.947 71.3268 204.48 71.098 200.429C70.9053 197.019 70.5847 195.842 69.6637 195.168C68.0069 193.957 65.361 194.087 64.1357 195.442ZM105.888 195.472C105.041 196.407 104.866 197.626 105.012 201.53C105.185 206.13 105.296 206.474 106.91 207.374C108.452 208.235 108.798 208.235 110.34 207.374C111.954 206.474 112.065 206.13 112.238 201.53C112.445 196.013 111.59 194.301 108.625 194.301C107.702 194.301 106.471 194.828 105.888 195.472ZM122.068 195.687C121.437 196.586 121.097 198.457 121.097 201.016C121.097 204.371 121.325 205.187 122.628 206.489C124.543 208.404 126.106 208.43 127.848 206.577C129.755 204.547 129.824 197.416 127.956 195.548C126.261 193.853 123.303 193.923 122.068 195.687ZM138.965 195.442C137.363 197.212 137.513 205.105 139.181 206.773C140.849 208.441 142.654 208.345 144.509 206.489C145.771 205.228 146.04 204.343 146.04 201.46C146.04 198.039 145.297 195.698 143.92 194.778C142.657 193.935 140.008 194.289 138.965 195.442ZM180.122 195.442C178.519 197.212 178.669 205.105 180.337 206.773C182.005 208.441 183.81 208.345 185.666 206.489C186.927 205.228 187.196 204.343 187.196 201.46C187.196 198.039 186.454 195.698 185.076 194.778C183.813 193.935 181.165 194.289 180.122 195.442ZM196.931 195.256C194.691 197.497 194.866 205.03 197.204 206.922C198.98 208.36 200.624 208.311 202.162 206.773C203.915 205.02 203.99 196.891 202.269 195.333C200.839 194.039 198.186 194.001 196.931 195.256ZM213.387 195.548C212.394 196.542 212.14 197.627 212.14 200.877C212.14 204.379 212.357 205.176 213.671 206.489C214.512 207.331 215.647 208.02 216.193 208.02C216.739 208.02 217.874 207.331 218.715 206.489C220.029 205.176 220.246 204.379 220.246 200.877C220.246 196.296 219.017 194.301 216.193 194.301C215.336 194.301 214.073 194.862 213.387 195.548ZM31.0097 219.625C30.2178 220.417 30.0438 221.696 30.1854 225.683C30.3562 230.466 30.4573 230.788 32.0804 231.694C33.6219 232.555 33.9686 232.555 35.5101 231.694C37.124 230.794 37.2356 230.449 37.4083 225.85C37.5549 221.946 37.379 220.727 36.5322 219.792C35.2333 218.356 32.3648 218.269 31.0097 219.625ZM47.2378 220.007C46.6074 220.906 46.2669 222.776 46.2669 225.335C46.2669 228.69 46.4951 229.507 47.7978 230.809C49.6648 232.676 50.6014 232.722 52.7303 231.047C54.2138 229.881 54.3735 229.348 54.3735 225.574C54.3735 220.382 53.3465 218.621 50.3202 218.621C48.8448 218.621 47.9157 219.038 47.2378 220.007ZM64.1357 219.761C62.7395 221.304 62.6715 229.324 64.0428 230.695C66.4267 233.079 70.1539 232.098 70.9633 228.873C71.6829 226.006 70.8853 220.381 69.6288 219.463C68.0031 218.274 65.351 218.418 64.1357 219.761ZM105.863 219.6C105.139 220.326 104.884 221.858 104.884 225.489C104.884 229.855 105.037 230.506 106.27 231.369C108.135 232.675 109.621 232.591 111.119 231.092C112.872 229.34 112.947 221.21 111.226 219.653C109.786 218.349 107.141 218.323 105.863 219.6ZM122.068 220.007C121.437 220.906 121.097 222.776 121.097 225.335C121.097 228.69 121.325 229.507 122.628 230.809C124.495 232.676 125.431 232.722 127.56 231.047C129.044 229.881 129.203 229.348 129.203 225.574C129.203 220.382 128.176 218.621 125.15 218.621C123.675 218.621 122.746 219.038 122.068 220.007ZM138.965 219.761C137.693 221.167 137.509 229.052 138.713 230.627C140.006 232.321 142.495 232.573 144.209 231.186C145.58 230.075 145.728 229.488 145.728 225.173C145.728 221.159 145.534 220.249 144.518 219.506C142.839 218.278 140.198 218.4 138.965 219.761ZM180.122 219.761C178.849 221.167 178.666 229.052 179.869 230.627C181.163 232.321 183.651 232.573 185.365 231.186C186.736 230.075 186.885 229.488 186.885 225.173C186.885 221.159 186.69 220.249 185.674 219.506C183.996 218.278 181.354 218.4 180.122 219.761ZM196.825 219.506C195.809 220.249 195.615 221.159 195.615 225.171C195.615 229.485 195.763 230.073 197.134 231.185C198.848 232.573 201.336 232.321 202.63 230.627C203.086 230.03 203.41 227.755 203.41 225.146C203.41 221.616 203.171 220.47 202.269 219.653C200.87 218.387 198.445 218.321 196.825 219.506ZM213.111 220.007C212.48 220.906 212.14 222.776 212.14 225.335C212.14 228.69 212.368 229.507 213.671 230.809C214.512 231.65 215.647 232.339 216.193 232.339C216.739 232.339 217.874 231.65 218.715 230.809C220.018 229.507 220.246 228.69 220.246 225.335C220.246 220.397 219.174 218.621 216.193 218.621C214.718 218.621 213.788 219.038 213.111 220.007ZM31.0335 243.92C30.3101 244.644 30.0538 246.174 30.0538 249.768C30.0538 255.222 30.663 256.243 33.9169 256.243C36.7205 256.243 37.5368 254.703 37.5368 249.413C37.5368 244.326 36.7355 242.94 33.7953 242.94C32.8156 242.94 31.5729 243.381 31.0335 243.92ZM47.2378 244.327C46.6074 245.226 46.2669 247.096 46.2669 249.655C46.2669 253.01 46.4951 253.826 47.7978 255.128C49.6648 256.996 50.6014 257.041 52.7303 255.367C54.2138 254.2 54.3735 253.667 54.3735 249.893C54.3735 244.702 53.3465 242.94 50.3202 242.94C48.8448 242.94 47.9157 243.358 47.2378 244.327ZM64.1631 244.05C63.3755 244.92 63.1036 246.358 63.1036 249.648C63.1036 253.687 63.2471 254.187 64.7468 255.367C66.8757 257.041 67.8123 256.996 69.6793 255.128C70.9558 253.852 71.2089 252.997 71.2008 249.984C71.1884 245.079 70.2181 243.303 67.4226 243.066C65.8892 242.936 64.9014 243.235 64.1631 244.05ZM105.529 244.146C104.47 246.126 104.71 254.491 105.852 255.439C107.298 256.639 110.531 256.437 111.52 255.085C112.761 253.387 112.663 245.197 111.387 243.92C109.97 242.503 106.333 242.644 105.529 244.146ZM122.068 244.327C121.437 245.226 121.097 247.096 121.097 249.655C121.097 253.01 121.325 253.826 122.628 255.128C123.469 255.97 124.604 256.659 125.15 256.659C125.696 256.659 126.831 255.97 127.672 255.128C128.975 253.826 129.203 253.01 129.203 249.655C129.203 244.717 128.131 242.94 125.15 242.94C123.675 242.94 122.746 243.358 122.068 244.327ZM138.965 244.081C137.569 245.624 137.501 253.644 138.873 255.015C141.494 257.636 145.063 256.374 145.776 252.572C146.313 249.707 145.79 245.077 144.793 243.876C143.71 242.572 140.22 242.694 138.965 244.081ZM180.122 244.081C178.726 245.624 178.658 253.644 180.029 255.015C182.65 257.636 186.219 256.374 186.932 252.572C187.47 249.707 186.946 245.077 185.949 243.876C184.867 242.572 181.377 242.694 180.122 244.081ZM196.506 243.928C195.429 245.226 195.014 251.516 195.861 253.708C196.697 255.871 199.213 256.942 201.112 255.942C203.168 254.86 203.39 254.229 203.4 249.429C203.408 245.926 203.172 244.789 202.269 243.972C200.822 242.663 197.578 242.638 196.506 243.928ZM213.111 244.327C212.48 245.226 212.14 247.096 212.14 249.655C212.14 253.01 212.368 253.826 213.671 255.128C214.512 255.97 215.647 256.659 216.193 256.659C216.739 256.659 217.874 255.97 218.715 255.128C220.018 253.826 220.246 253.01 220.246 249.655C220.246 244.717 219.174 242.94 216.193 242.94C214.718 242.94 213.788 243.358 213.111 244.327Z"/>
</mask>
<path fill-rule="evenodd" clip-rule="evenodd" d="M85.5526 1.6005C84.7575 2.10248 84.5704 5.70617 84.3054 25.6146L84.005 48.1843C83.998 48.7061 83.6945 49.1784 83.2227 49.4015L47.9007 66.1013C28.0496 75.4862 11.2827 83.6146 10.6417 84.1634C9.51176 85.1305 9.47559 88.1655 9.47559 181.425V276.471C9.47559 277.164 8.9563 277.748 8.2676 277.828L6.20179 278.069C3.88955 278.339 2.59623 278.856 1.79805 279.831C0.50848 281.407 0.819656 283.937 2.45781 285.188C3.26597 285.805 28.71 285.968 124.838 285.968C257.42 285.968 248.515 286.589 248.515 282.348C248.515 279.614 247.373 278.569 243.877 278.105L242.011 277.858C241.332 277.767 240.824 277.188 240.824 276.503V164.095C240.824 50.6271 240.823 50.4868 239.553 49.1243C238.854 48.3735 237.708 47.7593 237.007 47.7593C236.306 47.7593 220.345 55.0552 201.539 63.9724C182.732 72.8896 167.181 80.1855 166.982 80.1855C166.782 80.1855 166.614 73.8013 166.609 65.999C166.603 55.907 166.375 51.368 165.821 50.2729C164.774 48.2033 90.2494 0.986908 88.0513 1C87.1914 1.00561 86.067 1.27561 85.5526 1.6005ZM125.462 32.9592L157.566 53.2959C157.961 53.5461 158.2 53.9808 158.201 54.4483L158.358 165.78L158.513 276.493C158.514 277.248 157.902 277.861 157.146 277.861H125.152H93.1549C92.4002 277.861 91.7884 277.249 91.7884 276.495V145.038C91.7884 71.9854 91.9986 12.2164 92.2561 12.2176C92.5136 12.2195 107.456 21.5526 125.462 32.9592ZM83.6818 167.799V276.495C83.6818 277.249 83.0701 277.861 82.3154 277.861H50.3183H18.3236C17.568 277.861 16.9559 277.248 16.9571 276.492L17.1126 183.593L17.2689 90.1874C17.2698 89.661 17.5729 89.182 18.0481 88.9558L50.3202 73.5962C68.4976 64.9452 83.4405 57.8376 83.5259 57.8014C83.6114 57.7659 83.6818 107.265 83.6818 167.799ZM232.718 168.111V276.495C232.718 277.249 232.106 277.861 231.351 277.861H199.668H167.985C167.23 277.861 166.618 277.249 166.618 276.494L166.622 183.544L166.626 90.0923C166.626 89.5642 166.93 89.0834 167.407 88.8573L199.204 73.8007C217.122 65.3162 231.993 58.3714 232.25 58.367C232.508 58.3633 232.718 107.748 232.718 168.111ZM31.44 98.6167C30.2091 99.4785 30.0538 100.132 30.0538 104.444C30.0538 109.807 30.9206 111.365 33.9038 111.365C36.6388 111.365 37.5368 109.627 37.5368 104.336C37.5368 100.136 37.3765 99.4754 36.1506 98.6167C35.3885 98.083 34.3285 97.6458 33.7953 97.6458C33.2621 97.6458 32.202 98.083 31.44 98.6167ZM47.7292 99.2447C46.2557 100.719 46.1503 101.186 46.3792 105.237C46.6529 110.084 47.559 111.365 50.7156 111.365C53.3184 111.365 54.3735 109.345 54.3735 104.366C54.3735 100.971 54.1284 99.8951 53.1263 98.893C51.4408 97.2074 49.6499 97.3241 47.7292 99.2447ZM64.3508 98.893C63.3487 99.8951 63.1036 100.971 63.1036 104.366C63.1036 109.325 64.1631 111.37 66.7248 111.355C69.9356 111.337 71.2102 109.306 71.2102 104.206C71.2102 101.322 70.9408 100.438 69.6793 99.1767C67.8242 97.3209 66.0189 97.2249 64.3508 98.893ZM106.27 98.6167C105.039 99.4785 104.884 100.132 104.884 104.444C104.884 109.807 105.75 111.365 108.734 111.365C111.469 111.365 112.367 109.627 112.367 104.336C112.367 100.136 112.206 99.4754 110.98 98.6167C110.218 98.083 109.158 97.6458 108.625 97.6458C108.092 97.6458 107.032 98.083 106.27 98.6167ZM122.389 99.289C121.389 100.56 121.097 101.83 121.097 104.901C121.097 109.485 122.356 111.365 125.426 111.365C128.154 111.365 129.203 109.428 129.203 104.39C129.203 100.871 128.982 99.9824 127.838 98.9173C125.976 97.1825 123.937 97.3216 122.389 99.289ZM139.181 98.893C138.16 99.9138 137.933 100.971 137.933 104.72C137.933 109.764 138.853 111.373 141.724 111.355C144.755 111.336 146.04 109.209 146.04 104.206C146.04 101.322 145.771 100.438 144.509 99.1767C142.654 97.3209 140.849 97.2249 139.181 98.893ZM180.337 98.893C179.316 99.9138 179.09 100.971 179.09 104.72C179.09 109.764 180.01 111.373 182.881 111.355C185.912 111.336 187.196 109.209 187.196 104.206C187.196 101.322 186.927 100.438 185.666 99.1767C183.81 97.3209 182.005 97.2249 180.337 98.893ZM197.087 98.8381C195.794 99.8845 195.615 100.56 195.615 104.385C195.615 109.345 196.788 111.365 199.668 111.365C202.467 111.365 203.41 109.664 203.41 104.612C203.41 100.971 203.178 99.9082 202.162 98.893C200.596 97.3265 198.975 97.3085 197.087 98.8381ZM213.432 99.289C212.432 100.56 212.14 101.83 212.14 104.901C212.14 109.485 213.399 111.365 216.469 111.365C219.182 111.365 220.246 109.423 220.246 104.475C220.246 100.978 220.029 100.153 218.803 99.0015C216.876 97.1912 215.003 97.2916 213.432 99.289ZM31.44 122.313C30.2091 123.175 30.0538 123.828 30.0538 128.14C30.0538 133.503 30.9206 135.061 33.9038 135.061C36.6388 135.061 37.5368 133.323 37.5368 128.032C37.5368 123.832 37.3765 123.172 36.1506 122.313C35.3885 121.779 34.3285 121.342 33.7953 121.342C33.2621 121.342 32.202 121.779 31.44 122.313ZM47.4997 123.057C46.3417 124.525 46.1821 125.385 46.3873 129.049C46.6461 133.662 47.5883 135.061 50.4393 135.061C53.2049 135.061 54.3735 133.023 54.3735 128.201C54.3735 124.667 54.1359 123.599 53.1263 122.589C51.361 120.824 49.1129 121.011 47.4997 123.057ZM64.3508 122.589C63.3487 123.591 63.1036 124.667 63.1036 128.062C63.1036 133.021 64.1631 135.066 66.7248 135.051C69.9144 135.033 71.2102 133 71.2102 128.015C71.2102 122.352 67.513 119.427 64.3508 122.589ZM106.27 122.313C105.039 123.175 104.884 123.828 104.884 128.14C104.884 133.503 105.75 135.061 108.734 135.061C111.469 135.061 112.367 133.323 112.367 128.032C112.367 123.832 112.206 123.172 110.98 122.313C110.218 121.779 109.158 121.342 108.625 121.342C108.092 121.342 107.032 121.779 106.27 122.313ZM122.389 122.985C121.389 124.257 121.097 125.526 121.097 128.597C121.097 133.059 122.352 135.061 125.15 135.061C128.034 135.061 129.203 133.083 129.203 128.201C129.203 124.667 128.966 123.599 127.956 122.589C126.216 120.849 123.942 121.01 122.389 122.985ZM139.181 122.589C138.16 123.61 137.933 124.667 137.933 128.416C137.933 133.507 138.846 135.061 141.835 135.061C144.439 135.061 146.04 132.449 146.04 128.201C146.04 122.352 142.398 119.371 139.181 122.589ZM180.337 122.589C179.316 123.61 179.09 124.667 179.09 128.416C179.09 133.507 180.002 135.061 182.991 135.061C185.595 135.061 187.196 132.449 187.196 128.201C187.196 122.352 183.555 119.371 180.337 122.589ZM197.087 122.534C195.794 123.581 195.615 124.257 195.615 128.081C195.615 133.041 196.788 135.061 199.668 135.061C202.513 135.061 203.41 133.377 203.41 128.032C203.41 123.832 203.249 123.172 202.023 122.313C200.191 121.029 198.872 121.088 197.087 122.534ZM213.387 122.589C212.377 123.599 212.14 124.667 212.14 128.201C212.14 133.083 213.309 135.061 216.193 135.061C219.077 135.061 220.246 133.083 220.246 128.201C220.246 123.32 219.077 121.342 216.193 121.342C215.336 121.342 214.073 121.903 213.387 122.589ZM31.0858 146.802C30.3182 147.65 30.0538 149.143 30.0538 152.63C30.0538 157.811 30.9486 159.38 33.9038 159.38C36.6388 159.38 37.5368 157.643 37.5368 152.351C37.5368 148.152 37.3765 147.491 36.1506 146.633C34.306 145.34 32.3492 145.406 31.0858 146.802ZM48.3871 146.139C45.9408 147.772 45.4238 155.022 47.5596 157.737C49.1123 159.712 51.3859 159.874 53.1263 158.133C54.1359 157.124 54.3735 156.055 54.3735 152.521C54.3735 148.987 54.1359 147.918 53.1263 146.909C51.8692 145.652 49.6548 145.292 48.3871 146.139ZM64.3508 146.909C63.3412 147.918 63.1036 148.987 63.1036 152.521C63.1036 156.055 63.3412 157.124 64.3508 158.133C67.5685 161.351 71.2102 158.371 71.2102 152.521C71.2102 146.671 67.5685 143.691 64.3508 146.909ZM105.916 146.802C105.148 147.65 104.884 149.143 104.884 152.63C104.884 157.811 105.778 159.38 108.734 159.38C111.469 159.38 112.367 157.643 112.367 152.351C112.367 148.152 112.206 147.491 110.98 146.633C109.136 145.34 107.179 145.406 105.916 146.802ZM122.678 146.503C121.429 147.417 120.623 153.042 121.335 155.878C122.2 159.325 125.605 160.484 127.956 158.133C128.966 157.124 129.203 156.055 129.203 152.521C129.203 148.987 128.966 147.918 127.956 146.909C126.512 145.465 124.328 145.297 122.678 146.503ZM138.965 146.802C137.363 148.573 137.513 156.465 139.181 158.133C142.398 161.351 146.04 158.371 146.04 152.521C146.04 149.85 145.714 148.533 144.747 147.305C143.21 145.35 140.493 145.114 138.965 146.802ZM180.476 146.633C179.255 147.487 179.09 148.155 179.09 152.245C179.09 156.055 179.313 157.109 180.337 158.133C183.555 161.351 187.196 158.371 187.196 152.521C187.196 146.787 184.113 144.085 180.476 146.633ZM196.803 146.974C195.88 147.994 195.615 149.232 195.615 152.521C195.615 155.81 195.88 157.048 196.803 158.068C198.211 159.624 200.112 159.749 202.023 158.41C203.257 157.546 203.41 156.896 203.41 152.521C203.41 148.146 203.257 147.496 202.023 146.633C200.112 145.293 198.211 145.418 196.803 146.974ZM213.387 146.909C212.377 147.918 212.14 148.987 212.14 152.521C212.14 157.402 213.309 159.38 216.193 159.38C219.077 159.38 220.246 157.402 220.246 152.521C220.246 147.64 219.077 145.662 216.193 145.662C215.336 145.662 214.073 146.223 213.387 146.909ZM31.0584 171.152C30.2116 172.088 30.0357 173.306 30.1823 177.211C30.355 181.81 30.4666 182.154 32.0804 183.055C33.6219 183.915 33.9686 183.915 35.5101 183.055C37.124 182.154 37.2356 181.81 37.4083 177.211C37.6154 171.693 36.7598 169.981 33.7953 169.981C32.8724 169.981 31.6408 170.508 31.0584 171.152ZM47.8134 170.849C46.8974 171.518 46.5725 172.691 46.3873 175.993C46.1821 179.657 46.3417 180.517 47.4997 181.985C49.1129 184.031 51.361 184.218 53.1263 182.453C54.1359 181.443 54.3735 180.375 54.3735 176.841C54.3735 173.307 54.1359 172.238 53.1263 171.228C51.6721 169.774 49.4958 169.618 47.8134 170.849ZM64.3508 171.228C63.3412 172.238 63.1036 173.307 63.1036 176.841C63.1036 180.375 63.3412 181.443 64.3508 182.453C66.0912 184.193 68.3648 184.032 69.9175 182.057C72.0533 179.342 71.5363 172.092 69.09 170.458C67.8223 169.612 65.6079 169.971 64.3508 171.228ZM105.888 171.152C105.041 172.088 104.866 173.306 105.012 177.211C105.185 181.81 105.296 182.154 106.91 183.055C108.452 183.915 108.798 183.915 110.34 183.055C111.954 182.154 112.065 181.81 112.238 177.211C112.445 171.693 111.59 169.981 108.625 169.981C107.702 169.981 106.471 170.508 105.888 171.152ZM122.344 171.228C120.535 173.037 120.563 179.736 122.389 182.057C123.942 184.032 126.216 184.193 127.956 182.453C128.966 181.443 129.203 180.375 129.203 176.841C129.203 171.959 128.034 169.981 125.15 169.981C124.293 169.981 123.03 170.543 122.344 171.228ZM139.32 170.952C138.098 171.807 137.933 172.475 137.933 176.564C137.933 180.375 138.157 181.429 139.181 182.453C140.849 184.121 142.654 184.025 144.509 182.169C145.789 180.89 146.04 180.035 146.04 176.953C146.04 171.104 142.99 168.381 139.32 170.952ZM180.122 171.122C178.519 172.893 178.669 180.785 180.337 182.453C182.005 184.121 183.81 184.025 185.666 182.169C187.741 180.095 187.876 174.131 185.904 171.624C184.367 169.67 181.65 169.433 180.122 171.122ZM196.841 171.252C195.379 172.867 194.904 178.991 196.069 181.195C197.257 183.442 199.788 184.173 201.803 182.854C203.303 181.871 203.41 181.477 203.41 176.923C203.41 172.989 203.189 171.846 202.269 171.013C200.715 169.607 198.231 169.716 196.841 171.252ZM213.387 171.228C211.578 173.037 211.606 179.736 213.432 182.057C215.017 184.071 217.253 184.183 218.975 182.335C219.996 181.239 220.246 180.136 220.246 176.723C220.246 171.967 219.053 169.981 216.193 169.981C215.336 169.981 214.073 170.543 213.387 171.228ZM31.0584 195.472C30.2116 196.407 30.0357 197.626 30.1823 201.53C30.355 206.13 30.4666 206.474 32.0804 207.374C33.6219 208.235 33.9686 208.235 35.5101 207.374C37.124 206.474 37.2356 206.13 37.4083 201.53C37.6154 196.013 36.7598 194.301 33.7953 194.301C32.8724 194.301 31.6408 194.828 31.0584 195.472ZM47.4505 195.313C46.989 195.869 46.5026 198.236 46.3711 200.574C46.1509 204.465 46.2651 204.957 47.7292 206.421C49.6592 208.351 51.187 208.446 53.0085 206.748C54.1521 205.683 54.3735 204.795 54.3735 201.275C54.3735 196.086 53.3465 194.301 50.3614 194.301C49.2115 194.301 47.9169 194.751 47.4505 195.313ZM64.1357 195.442C62.5331 197.212 62.6827 205.105 64.3508 206.773C66.0363 208.458 67.8273 208.342 69.7479 206.421C71.2214 204.947 71.3268 204.48 71.098 200.429C70.9053 197.019 70.5847 195.842 69.6637 195.168C68.0069 193.957 65.361 194.087 64.1357 195.442ZM105.888 195.472C105.041 196.407 104.866 197.626 105.012 201.53C105.185 206.13 105.296 206.474 106.91 207.374C108.452 208.235 108.798 208.235 110.34 207.374C111.954 206.474 112.065 206.13 112.238 201.53C112.445 196.013 111.59 194.301 108.625 194.301C107.702 194.301 106.471 194.828 105.888 195.472ZM122.068 195.687C121.437 196.586 121.097 198.457 121.097 201.016C121.097 204.371 121.325 205.187 122.628 206.489C124.543 208.404 126.106 208.43 127.848 206.577C129.755 204.547 129.824 197.416 127.956 195.548C126.261 193.853 123.303 193.923 122.068 195.687ZM138.965 195.442C137.363 197.212 137.513 205.105 139.181 206.773C140.849 208.441 142.654 208.345 144.509 206.489C145.771 205.228 146.04 204.343 146.04 201.46C146.04 198.039 145.297 195.698 143.92 194.778C142.657 193.935 140.008 194.289 138.965 195.442ZM180.122 195.442C178.519 197.212 178.669 205.105 180.337 206.773C182.005 208.441 183.81 208.345 185.666 206.489C186.927 205.228 187.196 204.343 187.196 201.46C187.196 198.039 186.454 195.698 185.076 194.778C183.813 193.935 181.165 194.289 180.122 195.442ZM196.931 195.256C194.691 197.497 194.866 205.03 197.204 206.922C198.98 208.36 200.624 208.311 202.162 206.773C203.915 205.02 203.99 196.891 202.269 195.333C200.839 194.039 198.186 194.001 196.931 195.256ZM213.387 195.548C212.394 196.542 212.14 197.627 212.14 200.877C212.14 204.379 212.357 205.176 213.671 206.489C214.512 207.331 215.647 208.02 216.193 208.02C216.739 208.02 217.874 207.331 218.715 206.489C220.029 205.176 220.246 204.379 220.246 200.877C220.246 196.296 219.017 194.301 216.193 194.301C215.336 194.301 214.073 194.862 213.387 195.548ZM31.0097 219.625C30.2178 220.417 30.0438 221.696 30.1854 225.683C30.3562 230.466 30.4573 230.788 32.0804 231.694C33.6219 232.555 33.9686 232.555 35.5101 231.694C37.124 230.794 37.2356 230.449 37.4083 225.85C37.5549 221.946 37.379 220.727 36.5322 219.792C35.2333 218.356 32.3648 218.269 31.0097 219.625ZM47.2378 220.007C46.6074 220.906 46.2669 222.776 46.2669 225.335C46.2669 228.69 46.4951 229.507 47.7978 230.809C49.6648 232.676 50.6014 232.722 52.7303 231.047C54.2138 229.881 54.3735 229.348 54.3735 225.574C54.3735 220.382 53.3465 218.621 50.3202 218.621C48.8448 218.621 47.9157 219.038 47.2378 220.007ZM64.1357 219.761C62.7395 221.304 62.6715 229.324 64.0428 230.695C66.4267 233.079 70.1539 232.098 70.9633 228.873C71.6829 226.006 70.8853 220.381 69.6288 219.463C68.0031 218.274 65.351 218.418 64.1357 219.761ZM105.863 219.6C105.139 220.326 104.884 221.858 104.884 225.489C104.884 229.855 105.037 230.506 106.27 231.369C108.135 232.675 109.621 232.591 111.119 231.092C112.872 229.34 112.947 221.21 111.226 219.653C109.786 218.349 107.141 218.323 105.863 219.6ZM122.068 220.007C121.437 220.906 121.097 222.776 121.097 225.335C121.097 228.69 121.325 229.507 122.628 230.809C124.495 232.676 125.431 232.722 127.56 231.047C129.044 229.881 129.203 229.348 129.203 225.574C129.203 220.382 128.176 218.621 125.15 218.621C123.675 218.621 122.746 219.038 122.068 220.007ZM138.965 219.761C137.693 221.167 137.509 229.052 138.713 230.627C140.006 232.321 142.495 232.573 144.209 231.186C145.58 230.075 145.728 229.488 145.728 225.173C145.728 221.159 145.534 220.249 144.518 219.506C142.839 218.278 140.198 218.4 138.965 219.761ZM180.122 219.761C178.849 221.167 178.666 229.052 179.869 230.627C181.163 232.321 183.651 232.573 185.365 231.186C186.736 230.075 186.885 229.488 186.885 225.173C186.885 221.159 186.69 220.249 185.674 219.506C183.996 218.278 181.354 218.4 180.122 219.761ZM196.825 219.506C195.809 220.249 195.615 221.159 195.615 225.171C195.615 229.485 195.763 230.073 197.134 231.185C198.848 232.573 201.336 232.321 202.63 230.627C203.086 230.03 203.41 227.755 203.41 225.146C203.41 221.616 203.171 220.47 202.269 219.653C200.87 218.387 198.445 218.321 196.825 219.506ZM213.111 220.007C212.48 220.906 212.14 222.776 212.14 225.335C212.14 228.69 212.368 229.507 213.671 230.809C214.512 231.65 215.647 232.339 216.193 232.339C216.739 232.339 217.874 231.65 218.715 230.809C220.018 229.507 220.246 228.69 220.246 225.335C220.246 220.397 219.174 218.621 216.193 218.621C214.718 218.621 213.788 219.038 213.111 220.007ZM31.0335 243.92C30.3101 244.644 30.0538 246.174 30.0538 249.768C30.0538 255.222 30.663 256.243 33.9169 256.243C36.7205 256.243 37.5368 254.703 37.5368 249.413C37.5368 244.326 36.7355 242.94 33.7953 242.94C32.8156 242.94 31.5729 243.381 31.0335 243.92ZM47.2378 244.327C46.6074 245.226 46.2669 247.096 46.2669 249.655C46.2669 253.01 46.4951 253.826 47.7978 255.128C49.6648 256.996 50.6014 257.041 52.7303 255.367C54.2138 254.2 54.3735 253.667 54.3735 249.893C54.3735 244.702 53.3465 242.94 50.3202 242.94C48.8448 242.94 47.9157 243.358 47.2378 244.327ZM64.1631 244.05C63.3755 244.92 63.1036 246.358 63.1036 249.648C63.1036 253.687 63.2471 254.187 64.7468 255.367C66.8757 257.041 67.8123 256.996 69.6793 255.128C70.9558 253.852 71.2089 252.997 71.2008 249.984C71.1884 245.079 70.2181 243.303 67.4226 243.066C65.8892 242.936 64.9014 243.235 64.1631 244.05ZM105.529 244.146C104.47 246.126 104.71 254.491 105.852 255.439C107.298 256.639 110.531 256.437 111.52 255.085C112.761 253.387 112.663 245.197 111.387 243.92C109.97 242.503 106.333 242.644 105.529 244.146ZM122.068 244.327C121.437 245.226 121.097 247.096 121.097 249.655C121.097 253.01 121.325 253.826 122.628 255.128C123.469 255.97 124.604 256.659 125.15 256.659C125.696 256.659 126.831 255.97 127.672 255.128C128.975 253.826 129.203 253.01 129.203 249.655C129.203 244.717 128.131 242.94 125.15 242.94C123.675 242.94 122.746 243.358 122.068 244.327ZM138.965 244.081C137.569 245.624 137.501 253.644 138.873 255.015C141.494 257.636 145.063 256.374 145.776 252.572C146.313 249.707 145.79 245.077 144.793 243.876C143.71 242.572 140.22 242.694 138.965 244.081ZM180.122 244.081C178.726 245.624 178.658 253.644 180.029 255.015C182.65 257.636 186.219 256.374 186.932 252.572C187.47 249.707 186.946 245.077 185.949 243.876C184.867 242.572 181.377 242.694 180.122 244.081ZM196.506 243.928C195.429 245.226 195.014 251.516 195.861 253.708C196.697 255.871 199.213 256.942 201.112 255.942C203.168 254.86 203.39 254.229 203.4 249.429C203.408 245.926 203.172 244.789 202.269 243.972C200.822 242.663 197.578 242.638 196.506 243.928ZM213.111 244.327C212.48 245.226 212.14 247.096 212.14 249.655C212.14 253.01 212.368 253.826 213.671 255.128C214.512 255.97 215.647 256.659 216.193 256.659C216.739 256.659 217.874 255.97 218.715 255.128C220.018 253.826 220.246 253.01 220.246 249.655C220.246 244.717 219.174 242.94 216.193 242.94C214.718 242.94 213.788 243.358 213.111 244.327Z" fill="black"/>
<path fill-rule="evenodd" clip-rule="evenodd" d="M85.5526 1.6005C84.7575 2.10248 84.5704 5.70617 84.3054 25.6146L84.005 48.1843C83.998 48.7061 83.6945 49.1784 83.2227 49.4015L47.9007 66.1013C28.0496 75.4862 11.2827 83.6146 10.6417 84.1634C9.51176 85.1305 9.47559 88.1655 9.47559 181.425V276.471C9.47559 277.164 8.9563 277.748 8.2676 277.828L6.20179 278.069C3.88955 278.339 2.59623 278.856 1.79805 279.831C0.50848 281.407 0.819656 283.937 2.45781 285.188C3.26597 285.805 28.71 285.968 124.838 285.968C257.42 285.968 248.515 286.589 248.515 282.348C248.515 279.614 247.373 278.569 243.877 278.105L242.011 277.858C241.332 277.767 240.824 277.188 240.824 276.503V164.095C240.824 50.6271 240.823 50.4868 239.553 49.1243C238.854 48.3735 237.708 47.7593 237.007 47.7593C236.306 47.7593 220.345 55.0552 201.539 63.9724C182.732 72.8896 167.181 80.1855 166.982 80.1855C166.782 80.1855 166.614 73.8013 166.609 65.999C166.603 55.907 166.375 51.368 165.821 50.2729C164.774 48.2033 90.2494 0.986908 88.0513 1C87.1914 1.00561 86.067 1.27561 85.5526 1.6005ZM125.462 32.9592L157.566 53.2959C157.961 53.5461 158.2 53.9808 158.201 54.4483L158.358 165.78L158.513 276.493C158.514 277.248 157.902 277.861 157.146 277.861H125.152H93.1549C92.4002 277.861 91.7884 277.249 91.7884 276.495V145.038C91.7884 71.9854 91.9986 12.2164 92.2561 12.2176C92.5136 12.2195 107.456 21.5526 125.462 32.9592ZM83.6818 167.799V276.495C83.6818 277.249 83.0701 277.861 82.3154 277.861H50.3183H18.3236C17.568 277.861 16.9559 277.248 16.9571 276.492L17.1126 183.593L17.2689 90.1874C17.2698 89.661 17.5729 89.182 18.0481 88.9558L50.3202 73.5962C68.4976 64.9452 83.4405 57.8376 83.5259 57.8014C83.6114 57.7659 83.6818 107.265 83.6818 167.799ZM232.718 168.111V276.495C232.718 277.249 232.106 277.861 231.351 277.861H199.668H167.985C167.23 277.861 166.618 277.249 166.618 276.494L166.622 183.544L166.626 90.0923C166.626 89.5642 166.93 89.0834 167.407 88.8573L199.204 73.8007C217.122 65.3162 231.993 58.3714 232.25 58.367C232.508 58.3633 232.718 107.748 232.718 168.111ZM31.44 98.6167C30.2091 99.4785 30.0538 100.132 30.0538 104.444C30.0538 109.807 30.9206 111.365 33.9038 111.365C36.6388 111.365 37.5368 109.627 37.5368 104.336C37.5368 100.136 37.3765 99.4754 36.1506 98.6167C35.3885 98.083 34.3285 97.6458 33.7953 97.6458C33.2621 97.6458 32.202 98.083 31.44 98.6167ZM47.7292 99.2447C46.2557 100.719 46.1503 101.186 46.3792 105.237C46.6529 110.084 47.559 111.365 50.7156 111.365C53.3184 111.365 54.3735 109.345 54.3735 104.366C54.3735 100.971 54.1284 99.8951 53.1263 98.893C51.4408 97.2074 49.6499 97.3241 47.7292 99.2447ZM64.3508 98.893C63.3487 99.8951 63.1036 100.971 63.1036 104.366C63.1036 109.325 64.1631 111.37 66.7248 111.355C69.9356 111.337 71.2102 109.306 71.2102 104.206C71.2102 101.322 70.9408 100.438 69.6793 99.1767C67.8242 97.3209 66.0189 97.2249 64.3508 98.893ZM106.27 98.6167C105.039 99.4785 104.884 100.132 104.884 104.444C104.884 109.807 105.75 111.365 108.734 111.365C111.469 111.365 112.367 109.627 112.367 104.336C112.367 100.136 112.206 99.4754 110.98 98.6167C110.218 98.083 109.158 97.6458 108.625 97.6458C108.092 97.6458 107.032 98.083 106.27 98.6167ZM122.389 99.289C121.389 100.56 121.097 101.83 121.097 104.901C121.097 109.485 122.356 111.365 125.426 111.365C128.154 111.365 129.203 109.428 129.203 104.39C129.203 100.871 128.982 99.9824 127.838 98.9173C125.976 97.1825 123.937 97.3216 122.389 99.289ZM139.181 98.893C138.16 99.9138 137.933 100.971 137.933 104.72C137.933 109.764 138.853 111.373 141.724 111.355C144.755 111.336 146.04 109.209 146.04 104.206C146.04 101.322 145.771 100.438 144.509 99.1767C142.654 97.3209 140.849 97.2249 139.181 98.893ZM180.337 98.893C179.316 99.9138 179.09 100.971 179.09 104.72C179.09 109.764 180.01 111.373 182.881 111.355C185.912 111.336 187.196 109.209 187.196 104.206C187.196 101.322 186.927 100.438 185.666 99.1767C183.81 97.3209 182.005 97.2249 180.337 98.893ZM197.087 98.8381C195.794 99.8845 195.615 100.56 195.615 104.385C195.615 109.345 196.788 111.365 199.668 111.365C202.467 111.365 203.41 109.664 203.41 104.612C203.41 100.971 203.178 99.9082 202.162 98.893C200.596 97.3265 198.975 97.3085 197.087 98.8381ZM213.432 99.289C212.432 100.56 212.14 101.83 212.14 104.901C212.14 109.485 213.399 111.365 216.469 111.365C219.182 111.365 220.246 109.423 220.246 104.475C220.246 100.978 220.029 100.153 218.803 99.0015C216.876 97.1912 215.003 97.2916 213.432 99.289ZM31.44 122.313C30.2091 123.175 30.0538 123.828 30.0538 128.14C30.0538 133.503 30.9206 135.061 33.9038 135.061C36.6388 135.061 37.5368 133.323 37.5368 128.032C37.5368 123.832 37.3765 123.172 36.1506 122.313C35.3885 121.779 34.3285 121.342 33.7953 121.342C33.2621 121.342 32.202 121.779 31.44 122.313ZM47.4997 123.057C46.3417 124.525 46.1821 125.385 46.3873 129.049C46.6461 133.662 47.5883 135.061 50.4393 135.061C53.2049 135.061 54.3735 133.023 54.3735 128.201C54.3735 124.667 54.1359 123.599 53.1263 122.589C51.361 120.824 49.1129 121.011 47.4997 123.057ZM64.3508 122.589C63.3487 123.591 63.1036 124.667 63.1036 128.062C63.1036 133.021 64.1631 135.066 66.7248 135.051C69.9144 135.033 71.2102 133 71.2102 128.015C71.2102 122.352 67.513 119.427 64.3508 122.589ZM106.27 122.313C105.039 123.175 104.884 123.828 104.884 128.14C104.884 133.503 105.75 135.061 108.734 135.061C111.469 135.061 112.367 133.323 112.367 128.032C112.367 123.832 112.206 123.172 110.98 122.313C110.218 121.779 109.158 121.342 108.625 121.342C108.092 121.342 107.032 121.779 106.27 122.313ZM122.389 122.985C121.389 124.257 121.097 125.526 121.097 128.597C121.097 133.059 122.352 135.061 125.15 135.061C128.034 135.061 129.203 133.083 129.203 128.201C129.203 124.667 128.966 123.599 127.956 122.589C126.216 120.849 123.942 121.01 122.389 122.985ZM139.181 122.589C138.16 123.61 137.933 124.667 137.933 128.416C137.933 133.507 138.846 135.061 141.835 135.061C144.439 135.061 146.04 132.449 146.04 128.201C146.04 122.352 142.398 119.371 139.181 122.589ZM180.337 122.589C179.316 123.61 179.09 124.667 179.09 128.416C179.09 133.507 180.002 135.061 182.991 135.061C185.595 135.061 187.196 132.449 187.196 128.201C187.196 122.352 183.555 119.371 180.337 122.589ZM197.087 122.534C195.794 123.581 195.615 124.257 195.615 128.081C195.615 133.041 196.788 135.061 199.668 135.061C202.513 135.061 203.41 133.377 203.41 128.032C203.41 123.832 203.249 123.172 202.023 122.313C200.191 121.029 198.872 121.088 197.087 122.534ZM213.387 122.589C212.377 123.599 212.14 124.667 212.14 128.201C212.14 133.083 213.309 135.061 216.193 135.061C219.077 135.061 220.246 133.083 220.246 128.201C220.246 123.32 219.077 121.342 216.193 121.342C215.336 121.342 214.073 121.903 213.387 122.589ZM31.0858 146.802C30.3182 147.65 30.0538 149.143 30.0538 152.63C30.0538 157.811 30.9486 159.38 33.9038 159.38C36.6388 159.38 37.5368 157.643 37.5368 152.351C37.5368 148.152 37.3765 147.491 36.1506 146.633C34.306 145.34 32.3492 145.406 31.0858 146.802ZM48.3871 146.139C45.9408 147.772 45.4238 155.022 47.5596 157.737C49.1123 159.712 51.3859 159.874 53.1263 158.133C54.1359 157.124 54.3735 156.055 54.3735 152.521C54.3735 148.987 54.1359 147.918 53.1263 146.909C51.8692 145.652 49.6548 145.292 48.3871 146.139ZM64.3508 146.909C63.3412 147.918 63.1036 148.987 63.1036 152.521C63.1036 156.055 63.3412 157.124 64.3508 158.133C67.5685 161.351 71.2102 158.371 71.2102 152.521C71.2102 146.671 67.5685 143.691 64.3508 146.909ZM105.916 146.802C105.148 147.65 104.884 149.143 104.884 152.63C104.884 157.811 105.778 159.38 108.734 159.38C111.469 159.38 112.367 157.643 112.367 152.351C112.367 148.152 112.206 147.491 110.98 146.633C109.136 145.34 107.179 145.406 105.916 146.802ZM122.678 146.503C121.429 147.417 120.623 153.042 121.335 155.878C122.2 159.325 125.605 160.484 127.956 158.133C128.966 157.124 129.203 156.055 129.203 152.521C129.203 148.987 128.966 147.918 127.956 146.909C126.512 145.465 124.328 145.297 122.678 146.503ZM138.965 146.802C137.363 148.573 137.513 156.465 139.181 158.133C142.398 161.351 146.04 158.371 146.04 152.521C146.04 149.85 145.714 148.533 144.747 147.305C143.21 145.35 140.493 145.114 138.965 146.802ZM180.476 146.633C179.255 147.487 179.09 148.155 179.09 152.245C179.09 156.055 179.313 157.109 180.337 158.133C183.555 161.351 187.196 158.371 187.196 152.521C187.196 146.787 184.113 144.085 180.476 146.633ZM196.803 146.974C195.88 147.994 195.615 149.232 195.615 152.521C195.615 155.81 195.88 157.048 196.803 158.068C198.211 159.624 200.112 159.749 202.023 158.41C203.257 157.546 203.41 156.896 203.41 152.521C203.41 148.146 203.257 147.496 202.023 146.633C200.112 145.293 198.211 145.418 196.803 146.974ZM213.387 146.909C212.377 147.918 212.14 148.987 212.14 152.521C212.14 157.402 213.309 159.38 216.193 159.38C219.077 159.38 220.246 157.402 220.246 152.521C220.246 147.64 219.077 145.662 216.193 145.662C215.336 145.662 214.073 146.223 213.387 146.909ZM31.0584 171.152C30.2116 172.088 30.0357 173.306 30.1823 177.211C30.355 181.81 30.4666 182.154 32.0804 183.055C33.6219 183.915 33.9686 183.915 35.5101 183.055C37.124 182.154 37.2356 181.81 37.4083 177.211C37.6154 171.693 36.7598 169.981 33.7953 169.981C32.8724 169.981 31.6408 170.508 31.0584 171.152ZM47.8134 170.849C46.8974 171.518 46.5725 172.691 46.3873 175.993C46.1821 179.657 46.3417 180.517 47.4997 181.985C49.1129 184.031 51.361 184.218 53.1263 182.453C54.1359 181.443 54.3735 180.375 54.3735 176.841C54.3735 173.307 54.1359 172.238 53.1263 171.228C51.6721 169.774 49.4958 169.618 47.8134 170.849ZM64.3508 171.228C63.3412 172.238 63.1036 173.307 63.1036 176.841C63.1036 180.375 63.3412 181.443 64.3508 182.453C66.0912 184.193 68.3648 184.032 69.9175 182.057C72.0533 179.342 71.5363 172.092 69.09 170.458C67.8223 169.612 65.6079 169.971 64.3508 171.228ZM105.888 171.152C105.041 172.088 104.866 173.306 105.012 177.211C105.185 181.81 105.296 182.154 106.91 183.055C108.452 183.915 108.798 183.915 110.34 183.055C111.954 182.154 112.065 181.81 112.238 177.211C112.445 171.693 111.59 169.981 108.625 169.981C107.702 169.981 106.471 170.508 105.888 171.152ZM122.344 171.228C120.535 173.037 120.563 179.736 122.389 182.057C123.942 184.032 126.216 184.193 127.956 182.453C128.966 181.443 129.203 180.375 129.203 176.841C129.203 171.959 128.034 169.981 125.15 169.981C124.293 169.981 123.03 170.543 122.344 171.228ZM139.32 170.952C138.098 171.807 137.933 172.475 137.933 176.564C137.933 180.375 138.157 181.429 139.181 182.453C140.849 184.121 142.654 184.025 144.509 182.169C145.789 180.89 146.04 180.035 146.04 176.953C146.04 171.104 142.99 168.381 139.32 170.952ZM180.122 171.122C178.519 172.893 178.669 180.785 180.337 182.453C182.005 184.121 183.81 184.025 185.666 182.169C187.741 180.095 187.876 174.131 185.904 171.624C184.367 169.67 181.65 169.433 180.122 171.122ZM196.841 171.252C195.379 172.867 194.904 178.991 196.069 181.195C197.257 183.442 199.788 184.173 201.803 182.854C203.303 181.871 203.41 181.477 203.41 176.923C203.41 172.989 203.189 171.846 202.269 171.013C200.715 169.607 198.231 169.716 196.841 171.252ZM213.387 171.228C211.578 173.037 211.606 179.736 213.432 182.057C215.017 184.071 217.253 184.183 218.975 182.335C219.996 181.239 220.246 180.136 220.246 176.723C220.246 171.967 219.053 169.981 216.193 169.981C215.336 169.981 214.073 170.543 213.387 171.228ZM31.0584 195.472C30.2116 196.407 30.0357 197.626 30.1823 201.53C30.355 206.13 30.4666 206.474 32.0804 207.374C33.6219 208.235 33.9686 208.235 35.5101 207.374C37.124 206.474 37.2356 206.13 37.4083 201.53C37.6154 196.013 36.7598 194.301 33.7953 194.301C32.8724 194.301 31.6408 194.828 31.0584 195.472ZM47.4505 195.313C46.989 195.869 46.5026 198.236 46.3711 200.574C46.1509 204.465 46.2651 204.957 47.7292 206.421C49.6592 208.351 51.187 208.446 53.0085 206.748C54.1521 205.683 54.3735 204.795 54.3735 201.275C54.3735 196.086 53.3465 194.301 50.3614 194.301C49.2115 194.301 47.9169 194.751 47.4505 195.313ZM64.1357 195.442C62.5331 197.212 62.6827 205.105 64.3508 206.773C66.0363 208.458 67.8273 208.342 69.7479 206.421C71.2214 204.947 71.3268 204.48 71.098 200.429C70.9053 197.019 70.5847 195.842 69.6637 195.168C68.0069 193.957 65.361 194.087 64.1357 195.442ZM105.888 195.472C105.041 196.407 104.866 197.626 105.012 201.53C105.185 206.13 105.296 206.474 106.91 207.374C108.452 208.235 108.798 208.235 110.34 207.374C111.954 206.474 112.065 206.13 112.238 201.53C112.445 196.013 111.59 194.301 108.625 194.301C107.702 194.301 106.471 194.828 105.888 195.472ZM122.068 195.687C121.437 196.586 121.097 198.457 121.097 201.016C121.097 204.371 121.325 205.187 122.628 206.489C124.543 208.404 126.106 208.43 127.848 206.577C129.755 204.547 129.824 197.416 127.956 195.548C126.261 193.853 123.303 193.923 122.068 195.687ZM138.965 195.442C137.363 197.212 137.513 205.105 139.181 206.773C140.849 208.441 142.654 208.345 144.509 206.489C145.771 205.228 146.04 204.343 146.04 201.46C146.04 198.039 145.297 195.698 143.92 194.778C142.657 193.935 140.008 194.289 138.965 195.442ZM180.122 195.442C178.519 197.212 178.669 205.105 180.337 206.773C182.005 208.441 183.81 208.345 185.666 206.489C186.927 205.228 187.196 204.343 187.196 201.46C187.196 198.039 186.454 195.698 185.076 194.778C183.813 193.935 181.165 194.289 180.122 195.442ZM196.931 195.256C194.691 197.497 194.866 205.03 197.204 206.922C198.98 208.36 200.624 208.311 202.162 206.773C203.915 205.02 203.99 196.891 202.269 195.333C200.839 194.039 198.186 194.001 196.931 195.256ZM213.387 195.548C212.394 196.542 212.14 197.627 212.14 200.877C212.14 204.379 212.357 205.176 213.671 206.489C214.512 207.331 215.647 208.02 216.193 208.02C216.739 208.02 217.874 207.331 218.715 206.489C220.029 205.176 220.246 204.379 220.246 200.877C220.246 196.296 219.017 194.301 216.193 194.301C215.336 194.301 214.073 194.862 213.387 195.548ZM31.0097 219.625C30.2178 220.417 30.0438 221.696 30.1854 225.683C30.3562 230.466 30.4573 230.788 32.0804 231.694C33.6219 232.555 33.9686 232.555 35.5101 231.694C37.124 230.794 37.2356 230.449 37.4083 225.85C37.5549 221.946 37.379 220.727 36.5322 219.792C35.2333 218.356 32.3648 218.269 31.0097 219.625ZM47.2378 220.007C46.6074 220.906 46.2669 222.776 46.2669 225.335C46.2669 228.69 46.4951 229.507 47.7978 230.809C49.6648 232.676 50.6014 232.722 52.7303 231.047C54.2138 229.881 54.3735 229.348 54.3735 225.574C54.3735 220.382 53.3465 218.621 50.3202 218.621C48.8448 218.621 47.9157 219.038 47.2378 220.007ZM64.1357 219.761C62.7395 221.304 62.6715 229.324 64.0428 230.695C66.4267 233.079 70.1539 232.098 70.9633 228.873C71.6829 226.006 70.8853 220.381 69.6288 219.463C68.0031 218.274 65.351 218.418 64.1357 219.761ZM105.863 219.6C105.139 220.326 104.884 221.858 104.884 225.489C104.884 229.855 105.037 230.506 106.27 231.369C108.135 232.675 109.621 232.591 111.119 231.092C112.872 229.34 112.947 221.21 111.226 219.653C109.786 218.349 107.141 218.323 105.863 219.6ZM122.068 220.007C121.437 220.906 121.097 222.776 121.097 225.335C121.097 228.69 121.325 229.507 122.628 230.809C124.495 232.676 125.431 232.722 127.56 231.047C129.044 229.881 129.203 229.348 129.203 225.574C129.203 220.382 128.176 218.621 125.15 218.621C123.675 218.621 122.746 219.038 122.068 220.007ZM138.965 219.761C137.693 221.167 137.509 229.052 138.713 230.627C140.006 232.321 142.495 232.573 144.209 231.186C145.58 230.075 145.728 229.488 145.728 225.173C145.728 221.159 145.534 220.249 144.518 219.506C142.839 218.278 140.198 218.4 138.965 219.761ZM180.122 219.761C178.849 221.167 178.666 229.052 179.869 230.627C181.163 232.321 183.651 232.573 185.365 231.186C186.736 230.075 186.885 229.488 186.885 225.173C186.885 221.159 186.69 220.249 185.674 219.506C183.996 218.278 181.354 218.4 180.122 219.761ZM196.825 219.506C195.809 220.249 195.615 221.159 195.615 225.171C195.615 229.485 195.763 230.073 197.134 231.185C198.848 232.573 201.336 232.321 202.63 230.627C203.086 230.03 203.41 227.755 203.41 225.146C203.41 221.616 203.171 220.47 202.269 219.653C200.87 218.387 198.445 218.321 196.825 219.506ZM213.111 220.007C212.48 220.906 212.14 222.776 212.14 225.335C212.14 228.69 212.368 229.507 213.671 230.809C214.512 231.65 215.647 232.339 216.193 232.339C216.739 232.339 217.874 231.65 218.715 230.809C220.018 229.507 220.246 228.69 220.246 225.335C220.246 220.397 219.174 218.621 216.193 218.621C214.718 218.621 213.788 219.038 213.111 220.007ZM31.0335 243.92C30.3101 244.644 30.0538 246.174 30.0538 249.768C30.0538 255.222 30.663 256.243 33.9169 256.243C36.7205 256.243 37.5368 254.703 37.5368 249.413C37.5368 244.326 36.7355 242.94 33.7953 242.94C32.8156 242.94 31.5729 243.381 31.0335 243.92ZM47.2378 244.327C46.6074 245.226 46.2669 247.096 46.2669 249.655C46.2669 253.01 46.4951 253.826 47.7978 255.128C49.6648 256.996 50.6014 257.041 52.7303 255.367C54.2138 254.2 54.3735 253.667 54.3735 249.893C54.3735 244.702 53.3465 242.94 50.3202 242.94C48.8448 242.94 47.9157 243.358 47.2378 244.327ZM64.1631 244.05C63.3755 244.92 63.1036 246.358 63.1036 249.648C63.1036 253.687 63.2471 254.187 64.7468 255.367C66.8757 257.041 67.8123 256.996 69.6793 255.128C70.9558 253.852 71.2089 252.997 71.2008 249.984C71.1884 245.079 70.2181 243.303 67.4226 243.066C65.8892 242.936 64.9014 243.235 64.1631 244.05ZM105.529 244.146C104.47 246.126 104.71 254.491 105.852 255.439C107.298 256.639 110.531 256.437 111.52 255.085C112.761 253.387 112.663 245.197 111.387 243.92C109.97 242.503 106.333 242.644 105.529 244.146ZM122.068 244.327C121.437 245.226 121.097 247.096 121.097 249.655C121.097 253.01 121.325 253.826 122.628 255.128C123.469 255.97 124.604 256.659 125.15 256.659C125.696 256.659 126.831 255.97 127.672 255.128C128.975 253.826 129.203 253.01 129.203 249.655C129.203 244.717 128.131 242.94 125.15 242.94C123.675 242.94 122.746 243.358 122.068 244.327ZM138.965 244.081C137.569 245.624 137.501 253.644 138.873 255.015C141.494 257.636 145.063 256.374 145.776 252.572C146.313 249.707 145.79 245.077 144.793 243.876C143.71 242.572 140.22 242.694 138.965 244.081ZM180.122 244.081C178.726 245.624 178.658 253.644 180.029 255.015C182.65 257.636 186.219 256.374 186.932 252.572C187.47 249.707 186.946 245.077 185.949 243.876C184.867 242.572 181.377 242.694 180.122 244.081ZM196.506 243.928C195.429 245.226 195.014 251.516 195.861 253.708C196.697 255.871 199.213 256.942 201.112 255.942C203.168 254.86 203.39 254.229 203.4 249.429C203.408 245.926 203.172 244.789 202.269 243.972C200.822 242.663 197.578 242.638 196.506 243.928ZM213.111 244.327C212.48 245.226 212.14 247.096 212.14 249.655C212.14 253.01 212.368 253.826 213.671 255.128C214.512 255.97 215.647 256.659 216.193 256.659C216.739 256.659 217.874 255.97 218.715 255.128C220.018 253.826 220.246 253.01 220.246 249.655C220.246 244.717 219.174 242.94 216.193 242.94C214.718 242.94 213.788 243.358 213.111 244.327Z" stroke="black" stroke-width="1.36646" mask="url(#path-1-outside-1_706_518)"/>
</svg>
