<svg width="238" height="367" viewBox="0 0 238 367" fill="none" xmlns="http://www.w3.org/2000/svg">
<path fill-rule="evenodd" clip-rule="evenodd" d="M125.884 2.12689C124.412 3.66653 123.845 6.47138 123.826 12.302C123.784 24.782 118.27 33.6047 109.232 35.6583C103.155 37.0375 96.9702 40.7052 93.5458 44.9613C90.5436 48.6918 90.1115 50.228 90.1913 56.8913C90.3337 68.7165 96.8867 78.9591 107.394 83.778C112.146 85.9573 114.459 86.2585 123.014 85.8131C141.094 84.8723 154.66 76.338 162.758 60.8148C166.939 52.8003 167.396 50.9734 167.84 40.4924C168.256 30.6801 168.007 28.6392 166.152 26.6984C163.564 23.9889 157.915 23.7087 155.748 26.1844C154.434 27.6834 153.579 26.76 150.041 20.0235C144.34 9.16692 135.766 0 131.311 0C129.443 0 127.001 0.957039 125.884 2.12689ZM140.194 26.4728C141.941 30.1603 143.75 35.4281 144.214 38.1795C145.237 44.2415 147.407 46.5149 152.17 46.5149C154.147 46.5149 155.765 46.7568 155.765 47.0522C155.765 50.185 149.85 61.0346 146.318 64.3813C136.096 74.0657 118.623 78.116 110.827 72.6075C105.589 68.9061 102.873 64.7988 102.113 59.4321C101.094 52.2398 103.188 49.5047 112.034 46.4661C116.172 45.0451 121.505 42.4298 123.884 40.6552C128.438 37.2608 133.13 29.5986 134.433 23.4331C134.857 21.4178 135.613 19.7688 136.112 19.7688C136.611 19.7688 138.447 22.7853 140.194 26.4728ZM111.38 94.4044C102.085 96.7499 92.0373 108.225 91.9673 116.578C91.9428 119.499 91.5378 119.776 87.291 119.776C80.3329 119.776 72.2002 124.16 68.9525 129.66C65.4495 135.591 65.4422 141.182 68.9267 147.729C72.2198 153.918 79.8653 158.151 87.7476 158.151H92.8535L84.9086 181.699C80.5391 194.65 75.6934 209.172 74.1395 213.969C72.5856 218.766 65.981 238.651 59.4623 258.158C52.9436 277.665 44.8637 301.867 41.5068 311.941L35.4017 330.256H23.1069C3.58282 330.256 -0.744969 333.919 0.0982498 349.735C0.525382 357.749 0.854317 358.657 4.44076 361.692C6.85013 363.732 10.3298 365.252 13.6168 365.702C16.5281 366.099 65.8582 366.267 123.239 366.074C207.287 365.792 228.183 365.421 230.74 364.171C236.063 361.565 238 357.05 238 347.247C238 339.153 237.708 338.122 234.421 334.635L230.843 330.837L202.532 330.058L198.683 318.238C196.566 311.736 183.834 273.411 170.389 233.071C156.945 192.731 145.946 159.444 145.946 159.101C145.946 158.757 149.023 158.175 152.782 157.808C165.245 156.589 172.573 148.354 171.409 136.875C171.094 133.771 169.761 129.831 168.445 128.121C165.237 123.946 156.317 119.776 150.595 119.776C146.348 119.776 145.943 119.499 145.919 116.578C145.845 107.841 135.731 96.7092 125.692 94.3137C119.485 92.8333 117.558 92.845 111.38 94.4044ZM127.019 106.852C131.005 109.154 134.899 115.514 134.899 119.719C134.899 126.792 141.194 131.405 150.848 131.405C155.432 131.405 158.278 133.358 159.869 137.593C160.693 139.784 158.87 144.133 156.501 145.632C155.759 146.102 138.9 146.494 119.04 146.505C79.0932 146.524 78.439 146.406 78.439 139.166C78.439 134.148 81.5566 131.405 87.2603 131.405C93.1542 131.405 99.9343 128.821 101.552 125.958C102.221 124.773 103.169 121.719 103.656 119.174C104.143 116.627 105.304 113.117 106.235 111.374C109.665 104.953 119.884 102.729 127.019 106.852ZM136.036 168.779L131.813 172.781C129.491 174.981 125.61 178.429 123.19 180.442L118.788 184.104L110.888 176.685C106.543 172.604 102.991 168.727 102.994 168.069C102.998 167.411 103.576 164.911 104.279 162.512L105.557 158.151H132.214L136.036 168.779ZM109.124 192.437C109.124 193.179 104.429 198.098 98.691 203.368C92.9529 208.639 88.2581 212.385 88.2581 211.694C88.2581 210.715 93.353 194.831 97.5299 182.79C98.1313 181.054 109.124 190.2 109.124 192.437ZM145.217 196.634C147.741 204.369 149.629 210.853 149.411 211.044C149.192 211.234 144.36 207.244 138.672 202.175L128.33 192.96L133.711 187.766C136.671 184.908 139.438 182.571 139.859 182.571C140.281 182.571 142.692 188.899 145.217 196.634ZM136.572 216.776L153.589 232.279L145.164 236.525C140.53 238.86 132.757 242.716 127.889 245.095L119.04 249.419L106.41 243.157C99.4642 239.714 91.933 235.849 89.6746 234.571L85.5689 232.248L101.931 216.712C110.932 208.168 118.578 201.199 118.926 201.225C119.273 201.251 127.213 208.25 136.572 216.776ZM92.8056 249.591L105.696 256.141L102.193 258.122C95.0297 262.171 67.3864 276.764 66.8807 276.764C66.591 276.764 67.6981 272.708 69.3379 267.752C70.9789 262.795 73.4755 255.206 74.8857 250.89C76.2972 246.573 78.0058 243.041 78.6833 243.041C79.3608 243.041 85.7162 245.988 92.8056 249.591ZM166.172 259.494C169.246 268.545 171.57 276.132 171.333 276.357C171.096 276.58 164.873 273.537 157.503 269.594C150.133 265.649 141.757 261.179 138.888 259.66C136.02 258.14 133.683 256.526 133.696 256.074C133.724 255.093 156.949 243.253 159.092 243.128C159.95 243.078 162.947 250.007 166.172 259.494ZM144.945 276.386C158.996 283.853 170.493 290.274 170.493 290.656C170.493 291.651 121.694 311.65 119.266 311.65C116.925 311.65 67.3839 291.689 67.4097 290.758C67.4195 290.416 70.3198 288.577 73.8535 286.672C87.1842 279.483 118.35 263.041 118.863 262.928C119.158 262.863 130.894 268.919 144.945 276.386ZM79.6664 309.123C87.4297 312.302 95.9907 315.776 98.691 316.843L103.601 318.783L89.747 324.52C75.918 330.246 75.8701 330.256 62.4375 330.256C55.0363 330.256 48.9816 329.951 48.9816 329.58C48.9816 328.481 57.4678 302.285 58.1748 301.203C58.5307 300.656 60.3362 300.914 62.1871 301.776C64.038 302.638 71.9032 305.944 79.6664 309.123ZM184.881 315.429L189.603 329.675L162.604 330.337L149.365 324.915C137.81 320.183 133.402 317.464 137.285 317.464C137.923 317.464 147.174 313.819 157.844 309.362C168.514 304.905 177.9 301.242 178.702 301.221C179.504 301.202 182.284 307.594 184.881 315.429ZM124.316 327.364C126.761 328.333 128.762 329.379 128.762 329.69C128.762 330.001 124.206 330.234 118.636 330.207L108.51 330.158L112.806 327.93C118.076 325.196 118.755 325.163 124.316 327.364ZM226.34 354.095L12.1598 354.689V341.872L226.34 342.466V354.095Z" fill="white"/>
</svg>
