<svg width="449" height="70" viewBox="0 0 449 70" fill="none" xmlns="http://www.w3.org/2000/svg">
<path d="M21.632 53V32.264L37.696 4.744H31.488L19.008 26.312L6.656 4.744H0.448L16.256 32.264V53H21.632ZM48.2995 53V37.96C48.2995 30.216 50.5395 26.888 55.7235 26.888C58.0275 26.888 59.6915 27.528 60.6515 28.744C61.6115 30.088 62.0595 32.264 62.0595 35.272V53H67.2435V34.312C67.2435 30.28 66.4755 27.4 64.8755 25.544C63.0195 23.304 60.3955 22.216 56.8755 22.216C53.5475 22.216 50.6675 23.688 48.2995 26.568V22.92H43.1155V53H48.2995ZM99.965 27.208C97.149 23.88 93.629 22.216 89.469 22.216C85.309 22.216 81.853 23.688 79.165 26.632C76.477 29.512 75.133 33.288 75.133 37.896C75.133 42.504 76.477 46.344 79.229 49.352C81.981 52.36 85.437 53.832 89.597 53.832C93.693 53.832 97.149 52.168 99.965 48.84V53H105.149V22.92H99.965V27.208ZM80.381 37.768C80.381 34.632 81.341 32.072 83.261 30.024C85.181 27.912 87.549 26.888 90.301 26.888C93.181 26.888 95.613 27.912 97.469 30.024C99.325 32.072 100.285 34.696 100.285 37.96C100.285 41.224 99.325 43.912 97.469 46.024C95.613 48.136 93.245 49.16 90.237 49.16C87.357 49.16 84.989 48.072 83.133 45.96C81.277 43.784 80.381 41.032 80.381 37.768ZM120.175 53V37.96C120.175 30.216 122.415 26.888 127.599 26.888C129.903 26.888 131.567 27.528 132.527 28.744C133.487 30.088 133.935 32.264 133.935 35.272V53H139.119V34.312C139.119 30.28 138.351 27.4 136.751 25.544C134.895 23.304 132.271 22.216 128.751 22.216C125.423 22.216 122.543 23.688 120.175 26.568V22.92H114.991V53H120.175ZM172.352 25.096C169.344 23.24 166.208 22.28 163.008 22.28C158.464 22.28 154.624 23.816 151.552 26.888C148.544 29.896 147.008 33.672 147.008 38.152C147.008 42.568 148.544 46.344 151.616 49.352C154.752 52.36 158.528 53.832 162.944 53.832C166.144 53.832 169.344 52.808 172.544 50.76V43.912C170.688 45.896 169.024 47.304 167.68 48.072C166.336 48.776 164.736 49.16 162.752 49.16C159.808 49.16 157.312 48.136 155.264 46.024C153.28 43.912 152.256 41.224 152.256 38.088C152.256 34.888 153.28 32.264 155.328 30.152C157.376 28.04 159.872 26.952 162.88 26.952C166.656 26.952 168.96 28.232 172.352 31.88V25.096ZM186.3 53V38.024C186.3 30.28 188.54 26.952 193.852 26.952C198.268 26.952 200.124 29.256 200.124 34.696V53H205.244V34.376C205.244 30.28 204.476 27.336 202.876 25.608C200.956 23.368 198.268 22.28 194.876 22.28C191.548 22.28 188.668 23.688 186.3 26.44V0.199997H181.116V53H186.3ZM236.21 4.744V53H241.65V29.384H266.29V53H271.666V4.744H266.29V24.392H241.65V4.744H236.21ZM288.498 69.896L310.642 22.92H304.818L295.09 44.488L284.53 22.92H278.514L292.338 50.184L282.61 69.896H288.498ZM315.796 22.92V27.72H333.524L311.764 53H342.932V48.2H322.196L343.828 22.92H315.796ZM354.55 53V36.68C354.55 30.152 356.726 26.888 361.078 26.888C364.726 26.888 366.582 29.64 366.582 35.144V53H371.766V36.296C371.766 30.024 373.942 26.888 378.229 26.888C382.006 26.888 383.606 29.192 383.606 34.76V53H388.726V33.928C388.726 30.152 388.022 27.336 386.55 25.48C384.886 23.304 382.39 22.216 378.998 22.216C375.03 22.216 372.086 23.816 370.166 27.08C368.438 23.816 365.75 22.216 361.974 22.216C358.966 22.216 356.47 23.56 354.55 26.184V22.92H349.366V53H354.55ZM421.465 27.208C418.649 23.88 415.129 22.216 410.969 22.216C406.809 22.216 403.353 23.688 400.665 26.632C397.977 29.512 396.633 33.288 396.633 37.896C396.633 42.504 397.977 46.344 400.729 49.352C403.481 52.36 406.937 53.832 411.097 53.832C415.193 53.832 418.649 52.168 421.465 48.84V53H426.649V22.92H421.465V27.208ZM401.881 37.768C401.881 34.632 402.841 32.072 404.761 30.024C406.681 27.912 409.049 26.888 411.801 26.888C414.681 26.888 417.113 27.912 418.969 30.024C420.825 32.072 421.785 34.696 421.785 37.96C421.785 41.224 420.825 43.912 418.969 46.024C417.113 48.136 414.745 49.16 411.737 49.16C408.857 49.16 406.489 48.072 404.633 45.96C402.777 43.784 401.881 41.032 401.881 37.768ZM448.01 22.92H441.675V12.104H436.491V22.92H433.355V27.72H436.491V41.736C436.491 49.8 439.947 53.832 446.923 53.832L448.01 49.16C443.339 49.16 441.675 47.048 441.675 40.84V27.72H448.01V22.92Z" fill="black"/>
</svg>
