<svg width="339" height="407" viewBox="0 0 339 407" fill="none" xmlns="http://www.w3.org/2000/svg">
<path fill-rule="evenodd" clip-rule="evenodd" d="M6.76757 1.18507C5.53552 1.83734 3.6557 3.43256 2.59078 4.73007C0.983671 6.68751 0.658493 7.65537 0.677926 10.4127C0.69995 13.5181 3.80728 19.846 48.2653 107.327L95.8294 200.919L96.1533 300.307L96.4772 399.696L98.2009 402.265C102.392 408.511 111.129 408.494 115.87 402.231C117.204 400.469 117.206 400.361 117.373 298.548L117.541 196.629L74.459 112.104C50.7638 65.6153 31.3768 26.8676 31.3768 25.9981C31.3768 25.1293 31.9339 23.7391 32.6147 22.9099L33.8526 21.4016L60.9544 21.2399L88.0563 21.079L134.202 111.742L180.347 202.406L180.359 300.813C180.365 357.333 180.618 399.846 180.952 400.689C181.272 401.497 182.556 403.124 183.808 404.306C186.202 406.569 190.184 407.543 193.591 406.7C195.723 406.172 199.752 402.675 200.518 400.687C200.873 399.765 201.108 359.502 201.098 301.253L201.08 203.369L269.321 109.138C306.854 57.3109 337.75 14.2119 337.981 13.3629C339.194 8.88964 337.1 3.98453 332.954 1.58819C327.723 -1.43486 322.55 0.0217214 318.173 5.74968C316.965 7.33084 288.631 46.4286 255.209 92.6337C221.786 138.839 193.918 177.188 193.279 177.855C192.155 179.03 190.693 176.255 146.727 89.534L101.335 0H55.1718C11.4464 0 8.89029 0.0626073 6.76757 1.18507Z" fill="#F37021"/>
</svg>
