<svg width="27" height="33" viewBox="0 0 27 33" fill="none" xmlns="http://www.w3.org/2000/svg">
<path fill-rule="evenodd" clip-rule="evenodd" d="M0.487025 0.982972C0.388504 1.03434 0.238183 1.15996 0.153026 1.26214C0.0245132 1.41628 -0.00148983 1.4925 6.4132e-05 1.70964C0.00182529 1.95419 0.250304 2.4525 3.80541 9.34157L7.6089 16.7118L7.6348 24.5386L7.6607 32.3653L7.79854 32.5676C8.13367 33.0595 8.83234 33.0581 9.21145 32.565C9.31816 32.4262 9.31826 32.4177 9.33168 24.4L9.34509 16.374L5.9 9.71773C4.0052 6.05679 2.45492 3.00544 2.45492 2.93697C2.45492 2.86855 2.49946 2.75908 2.5539 2.69378L2.65289 2.575L4.8201 2.56227L6.98731 2.54959L10.6774 9.68925L14.3674 16.8289L14.3683 24.5784C14.3689 29.0292 14.3891 32.3771 14.4157 32.4435C14.4413 32.5071 14.544 32.6353 14.6441 32.7284C14.8356 32.9066 15.154 32.9832 15.4265 32.9168C15.5969 32.8753 15.9191 32.5999 15.9804 32.4434C16.0088 32.3708 16.0276 29.2001 16.0267 24.613L16.0253 16.9047L21.4822 9.48414C24.4836 5.40282 26.9542 2.00882 26.9727 1.94196C27.0697 1.5897 26.9022 1.20343 26.5707 1.01472C26.1524 0.776654 25.7387 0.891359 25.3888 1.34243C25.2921 1.46694 23.0264 4.54586 20.3537 8.18446C17.6811 11.8231 15.4526 14.8431 15.4015 14.8956C15.3116 14.988 15.1947 14.7696 11.6789 7.94036L8.04914 0.889648H4.35769C0.861168 0.889648 0.65677 0.894579 0.487025 0.982972Z" fill="#F37021"/>
</svg>
