<svg width="107" height="165" viewBox="0 0 107 165" fill="none" xmlns="http://www.w3.org/2000/svg">
<mask id="path-1-inside-1_706_364" fill="white">
<path fill-rule="evenodd" clip-rule="evenodd" d="M56.4377 0.953552C55.7779 1.64382 55.5237 2.90133 55.5149 5.51539C55.4962 11.1105 53.0243 15.0661 48.9721 15.9868C46.2477 16.6051 43.4748 18.2494 41.9395 20.1576C40.5935 21.8301 40.3998 22.5188 40.4356 25.5061C40.4994 30.8078 43.4374 35.3999 48.1483 37.5603C50.2784 38.5374 51.3157 38.6724 55.1512 38.4727C63.2568 38.0509 69.339 34.2247 72.9697 27.2652C74.844 23.672 75.0487 22.853 75.2479 18.154C75.4344 13.7549 75.3227 12.8399 74.4913 11.9697C73.3307 10.755 70.7983 10.6293 69.8265 11.7393C69.2377 12.4113 68.8542 11.9974 67.2683 8.97717C64.7123 4.10982 60.868 0 58.871 0C58.0335 0 56.9385 0.429071 56.4377 0.953552ZM62.8534 11.8686C63.6365 13.5218 64.4476 15.8835 64.6556 17.1171C65.1145 19.8349 66.0874 20.8541 68.2225 20.8541C69.109 20.8541 69.8343 20.9626 69.8343 21.095C69.8343 22.4995 67.1825 27.3637 65.5988 28.8642C61.016 33.206 53.1823 35.0219 49.6874 32.5522C47.3389 30.8928 46.1211 29.0513 45.7805 26.6453C45.3237 23.4207 46.2625 22.1945 50.2284 20.8322C52.0834 20.1951 54.4743 19.0226 55.5413 18.227C57.5828 16.7052 59.6866 13.27 60.2704 10.5058C60.4608 9.60228 60.7998 8.863 61.0232 8.863C61.2472 8.863 62.0704 10.2154 62.8534 11.8686ZM49.9351 42.3245C45.7678 43.376 41.2632 48.5207 41.2319 52.2656C41.2209 53.5753 41.0393 53.6993 39.1353 53.6993C36.0158 53.6993 32.3696 55.6648 30.9136 58.1308C29.3431 60.7897 29.3398 63.2964 30.902 66.2316C32.3784 69.0063 35.8061 70.904 39.34 70.904H41.6292L38.0672 81.4614C36.1082 87.2677 33.9357 93.7783 33.2391 95.9289C32.5424 98.0795 29.5814 106.995 26.6588 115.74C23.7363 124.486 20.1138 135.336 18.6088 139.853L15.8717 148.064H10.3596C1.60629 148.064 -0.333993 149.706 0.0440485 156.797C0.235546 160.39 0.383017 160.797 1.99093 162.158C3.07113 163.072 4.63118 163.754 6.10482 163.956C7.41008 164.134 29.5263 164.209 55.2519 164.122C92.9333 163.996 102.302 163.83 103.448 163.269C105.835 162.101 106.703 160.077 106.703 155.682C106.703 152.053 106.572 151.591 105.098 150.028L103.494 148.325L90.8015 147.976L89.0759 142.676C88.1266 139.761 82.4186 122.579 76.3908 104.493C70.3636 86.4075 65.432 71.4837 65.432 71.3299C65.432 71.1756 66.8116 70.9149 68.4971 70.7502C74.0846 70.2038 77.3698 66.5116 76.8481 61.3653C76.7067 59.9738 76.1091 58.2075 75.5192 57.4406C74.0807 55.5689 70.0819 53.6993 67.5165 53.6993C65.6125 53.6993 65.4309 53.5753 65.4199 52.2656C65.3869 48.3487 60.8526 43.3578 56.3519 42.2838C53.5691 41.6201 52.7052 41.6253 49.9351 42.3245ZM56.9467 47.905C58.7335 48.9373 60.4795 51.7886 60.4795 53.6738C60.4795 56.8447 63.3019 58.9129 67.6298 58.9129C69.6851 58.9129 70.9612 59.7887 71.6744 61.6875C72.0436 62.6697 71.2265 64.6196 70.1644 65.2916C69.8315 65.5022 62.2734 65.6779 53.3694 65.6826C35.46 65.6915 35.1667 65.6383 35.1667 62.3924C35.1667 60.1427 36.5644 58.9129 39.1216 58.9129C41.764 58.9129 44.8037 57.7544 45.529 56.4708C45.8289 55.9396 46.2537 54.5705 46.4722 53.4293C46.6906 52.2875 47.2112 50.7141 47.6283 49.9326C49.1663 47.0537 53.7479 46.0568 56.9467 47.905ZM60.9891 75.6692L59.0961 77.4631C58.055 78.4495 56.315 79.9953 55.2299 80.8978L53.2565 82.5395L49.7144 79.2133C47.7664 77.3839 46.1739 75.6457 46.1756 75.3506C46.1772 75.0555 46.4364 73.9346 46.7517 72.8591L47.3245 70.904H59.2755L60.9891 75.6692ZM48.9237 86.2756C48.9237 86.6082 46.8188 88.8135 44.2463 91.1763C41.6737 93.5396 39.5689 95.2188 39.5689 94.9092C39.5689 94.4702 41.8531 87.349 43.7257 81.9504C43.9954 81.172 48.9237 85.2725 48.9237 86.2756ZM65.1052 88.1571C66.2371 91.6251 67.0834 94.5322 66.9855 94.6177C66.8875 94.7027 64.7211 92.9139 62.1711 90.6414L57.5344 86.5102L59.9468 84.1813C61.2741 82.9003 62.5144 81.8524 62.7032 81.8524C62.8925 81.8524 63.9732 84.6896 65.1052 88.1571ZM61.2295 97.1875L68.8586 104.138L65.0815 106.042C63.0042 107.088 59.5193 108.817 57.3369 109.884L53.3694 111.822L47.707 109.015C44.593 107.471 41.2164 105.739 40.2039 105.166L38.3633 104.124L45.699 97.1588C49.7342 93.3284 53.1625 90.2039 53.3182 90.2154C53.4739 90.2274 57.0337 93.3649 61.2295 97.1875ZM41.6077 111.9L47.3867 114.836L45.8162 115.724C42.6048 117.54 30.2114 124.082 29.9847 124.082C29.8549 124.082 30.3512 122.263 31.0864 120.041C31.8221 117.819 32.9414 114.417 33.5736 112.482C34.2065 110.547 34.9724 108.963 35.2762 108.963C35.58 108.963 38.4293 110.284 41.6077 111.9ZM74.5001 116.339C75.8785 120.397 76.9202 123.799 76.814 123.899C76.7078 124 73.9179 122.635 70.6134 120.867C67.3096 119.099 63.5539 117.095 62.2679 116.414C60.9819 115.733 59.9342 115.009 59.9402 114.806C59.9529 114.366 70.3653 109.058 71.3261 109.002C71.7107 108.979 73.0545 112.086 74.5001 116.339ZM64.9835 123.913C71.2831 127.26 76.4376 130.139 76.4376 130.31C76.4376 130.756 54.5591 139.723 53.4706 139.723C52.4212 139.723 30.2103 130.774 30.2219 130.356C30.2263 130.203 31.5266 129.378 33.1109 128.524C39.0874 125.301 53.0601 117.929 53.2901 117.879C53.4222 117.85 58.684 120.565 64.9835 123.913ZM35.717 138.59C39.1975 140.015 43.0357 141.572 44.2463 142.051L46.4474 142.921L40.2364 145.492C34.0364 148.06 34.015 148.064 27.9927 148.064C24.6745 148.064 21.96 147.928 21.96 147.761C21.96 147.269 25.7646 135.524 26.0816 135.039C26.2412 134.794 27.0506 134.909 27.8804 135.296C28.7103 135.682 32.2365 137.164 35.717 138.59ZM82.888 141.417L85.0049 147.804L72.9004 148.101L66.9651 145.67C61.7848 143.548 59.8082 142.329 61.5493 142.329C61.8354 142.329 65.9828 140.695 70.7664 138.697C75.55 136.699 79.758 135.056 80.1179 135.047C80.4772 135.038 81.7236 137.904 82.888 141.417ZM55.735 146.768C56.8312 147.202 57.7281 147.671 57.7281 147.81C57.7281 147.95 55.6855 148.054 53.1883 148.042L48.6485 148.02L50.5745 147.021C52.9374 145.796 53.2417 145.781 55.735 146.768ZM101.475 158.752L5.45164 159.018V153.272L101.475 153.538V158.752Z"/>
</mask>
<path fill-rule="evenodd" clip-rule="evenodd" d="M56.4377 0.953552C55.7779 1.64382 55.5237 2.90133 55.5149 5.51539C55.4962 11.1105 53.0243 15.0661 48.9721 15.9868C46.2477 16.6051 43.4748 18.2494 41.9395 20.1576C40.5935 21.8301 40.3998 22.5188 40.4356 25.5061C40.4994 30.8078 43.4374 35.3999 48.1483 37.5603C50.2784 38.5374 51.3157 38.6724 55.1512 38.4727C63.2568 38.0509 69.339 34.2247 72.9697 27.2652C74.844 23.672 75.0487 22.853 75.2479 18.154C75.4344 13.7549 75.3227 12.8399 74.4913 11.9697C73.3307 10.755 70.7983 10.6293 69.8265 11.7393C69.2377 12.4113 68.8542 11.9974 67.2683 8.97717C64.7123 4.10982 60.868 0 58.871 0C58.0335 0 56.9385 0.429071 56.4377 0.953552ZM62.8534 11.8686C63.6365 13.5218 64.4476 15.8835 64.6556 17.1171C65.1145 19.8349 66.0874 20.8541 68.2225 20.8541C69.109 20.8541 69.8343 20.9626 69.8343 21.095C69.8343 22.4995 67.1825 27.3637 65.5988 28.8642C61.016 33.206 53.1823 35.0219 49.6874 32.5522C47.3389 30.8928 46.1211 29.0513 45.7805 26.6453C45.3237 23.4207 46.2625 22.1945 50.2284 20.8322C52.0834 20.1951 54.4743 19.0226 55.5413 18.227C57.5828 16.7052 59.6866 13.27 60.2704 10.5058C60.4608 9.60228 60.7998 8.863 61.0232 8.863C61.2472 8.863 62.0704 10.2154 62.8534 11.8686ZM49.9351 42.3245C45.7678 43.376 41.2632 48.5207 41.2319 52.2656C41.2209 53.5753 41.0393 53.6993 39.1353 53.6993C36.0158 53.6993 32.3696 55.6648 30.9136 58.1308C29.3431 60.7897 29.3398 63.2964 30.902 66.2316C32.3784 69.0063 35.8061 70.904 39.34 70.904H41.6292L38.0672 81.4614C36.1082 87.2677 33.9357 93.7783 33.2391 95.9289C32.5424 98.0795 29.5814 106.995 26.6588 115.74C23.7363 124.486 20.1138 135.336 18.6088 139.853L15.8717 148.064H10.3596C1.60629 148.064 -0.333993 149.706 0.0440485 156.797C0.235546 160.39 0.383017 160.797 1.99093 162.158C3.07113 163.072 4.63118 163.754 6.10482 163.956C7.41008 164.134 29.5263 164.209 55.2519 164.122C92.9333 163.996 102.302 163.83 103.448 163.269C105.835 162.101 106.703 160.077 106.703 155.682C106.703 152.053 106.572 151.591 105.098 150.028L103.494 148.325L90.8015 147.976L89.0759 142.676C88.1266 139.761 82.4186 122.579 76.3908 104.493C70.3636 86.4075 65.432 71.4837 65.432 71.3299C65.432 71.1756 66.8116 70.9149 68.4971 70.7502C74.0846 70.2038 77.3698 66.5116 76.8481 61.3653C76.7067 59.9738 76.1091 58.2075 75.5192 57.4406C74.0807 55.5689 70.0819 53.6993 67.5165 53.6993C65.6125 53.6993 65.4309 53.5753 65.4199 52.2656C65.3869 48.3487 60.8526 43.3578 56.3519 42.2838C53.5691 41.6201 52.7052 41.6253 49.9351 42.3245ZM56.9467 47.905C58.7335 48.9373 60.4795 51.7886 60.4795 53.6738C60.4795 56.8447 63.3019 58.9129 67.6298 58.9129C69.6851 58.9129 70.9612 59.7887 71.6744 61.6875C72.0436 62.6697 71.2265 64.6196 70.1644 65.2916C69.8315 65.5022 62.2734 65.6779 53.3694 65.6826C35.46 65.6915 35.1667 65.6383 35.1667 62.3924C35.1667 60.1427 36.5644 58.9129 39.1216 58.9129C41.764 58.9129 44.8037 57.7544 45.529 56.4708C45.8289 55.9396 46.2537 54.5705 46.4722 53.4293C46.6906 52.2875 47.2112 50.7141 47.6283 49.9326C49.1663 47.0537 53.7479 46.0568 56.9467 47.905ZM60.9891 75.6692L59.0961 77.4631C58.055 78.4495 56.315 79.9953 55.2299 80.8978L53.2565 82.5395L49.7144 79.2133C47.7664 77.3839 46.1739 75.6457 46.1756 75.3506C46.1772 75.0555 46.4364 73.9346 46.7517 72.8591L47.3245 70.904H59.2755L60.9891 75.6692ZM48.9237 86.2756C48.9237 86.6082 46.8188 88.8135 44.2463 91.1763C41.6737 93.5396 39.5689 95.2188 39.5689 94.9092C39.5689 94.4702 41.8531 87.349 43.7257 81.9504C43.9954 81.172 48.9237 85.2725 48.9237 86.2756ZM65.1052 88.1571C66.2371 91.6251 67.0834 94.5322 66.9855 94.6177C66.8875 94.7027 64.7211 92.9139 62.1711 90.6414L57.5344 86.5102L59.9468 84.1813C61.2741 82.9003 62.5144 81.8524 62.7032 81.8524C62.8925 81.8524 63.9732 84.6896 65.1052 88.1571ZM61.2295 97.1875L68.8586 104.138L65.0815 106.042C63.0042 107.088 59.5193 108.817 57.3369 109.884L53.3694 111.822L47.707 109.015C44.593 107.471 41.2164 105.739 40.2039 105.166L38.3633 104.124L45.699 97.1588C49.7342 93.3284 53.1625 90.2039 53.3182 90.2154C53.4739 90.2274 57.0337 93.3649 61.2295 97.1875ZM41.6077 111.9L47.3867 114.836L45.8162 115.724C42.6048 117.54 30.2114 124.082 29.9847 124.082C29.8549 124.082 30.3512 122.263 31.0864 120.041C31.8221 117.819 32.9414 114.417 33.5736 112.482C34.2065 110.547 34.9724 108.963 35.2762 108.963C35.58 108.963 38.4293 110.284 41.6077 111.9ZM74.5001 116.339C75.8785 120.397 76.9202 123.799 76.814 123.899C76.7078 124 73.9179 122.635 70.6134 120.867C67.3096 119.099 63.5539 117.095 62.2679 116.414C60.9819 115.733 59.9342 115.009 59.9402 114.806C59.9529 114.366 70.3653 109.058 71.3261 109.002C71.7107 108.979 73.0545 112.086 74.5001 116.339ZM64.9835 123.913C71.2831 127.26 76.4376 130.139 76.4376 130.31C76.4376 130.756 54.5591 139.723 53.4706 139.723C52.4212 139.723 30.2103 130.774 30.2219 130.356C30.2263 130.203 31.5266 129.378 33.1109 128.524C39.0874 125.301 53.0601 117.929 53.2901 117.879C53.4222 117.85 58.684 120.565 64.9835 123.913ZM35.717 138.59C39.1975 140.015 43.0357 141.572 44.2463 142.051L46.4474 142.921L40.2364 145.492C34.0364 148.06 34.015 148.064 27.9927 148.064C24.6745 148.064 21.96 147.928 21.96 147.761C21.96 147.269 25.7646 135.524 26.0816 135.039C26.2412 134.794 27.0506 134.909 27.8804 135.296C28.7103 135.682 32.2365 137.164 35.717 138.59ZM82.888 141.417L85.0049 147.804L72.9004 148.101L66.9651 145.67C61.7848 143.548 59.8082 142.329 61.5493 142.329C61.8354 142.329 65.9828 140.695 70.7664 138.697C75.55 136.699 79.758 135.056 80.1179 135.047C80.4772 135.038 81.7236 137.904 82.888 141.417ZM55.735 146.768C56.8312 147.202 57.7281 147.671 57.7281 147.81C57.7281 147.95 55.6855 148.054 53.1883 148.042L48.6485 148.02L50.5745 147.021C52.9374 145.796 53.2417 145.781 55.735 146.768ZM101.475 158.752L5.45164 159.018V153.272L101.475 153.538V158.752Z" fill="white" stroke="#F37021" stroke-width="2" mask="url(#path-1-inside-1_706_364)"/>
</svg>
