<svg width="131" height="130" viewBox="0 0 131 130" fill="none" xmlns="http://www.w3.org/2000/svg">
<mask id="path-1-inside-1_706_362" fill="white">
<path fill-rule="evenodd" clip-rule="evenodd" d="M59.9464 0.231614C58.6804 0.572519 57.7184 1.15581 56.6465 2.23212C54.6609 4.22627 54.2102 5.32179 52.3675 12.6323L50.8799 18.5333L49.5798 18.9993C47.7593 19.6518 45.9545 20.4162 44.4462 21.1738C43.7375 21.5298 43.0993 21.821 43.0281 21.821C42.9569 21.821 40.6334 20.3803 37.8647 18.6193C35.096 16.8583 32.4352 15.2382 31.952 15.0191C29.2493 13.7937 26.2613 13.7566 23.7952 14.9178C22.9795 15.3019 22.3694 15.8436 19.1456 19.045C15.152 23.0107 14.7587 23.5228 14.3395 25.3013C13.8931 27.1949 14.237 29.6921 15.2358 31.8078C15.5495 32.4723 17.1908 35.3236 18.883 38.1441C20.5754 40.9645 21.9562 43.3371 21.9518 43.4165C21.9473 43.496 21.4845 44.6109 20.9234 45.8942C20.3624 47.1773 19.7434 48.7049 19.5479 49.2888L19.1926 50.3502L18.2077 50.6026C17.6659 50.7414 15.1426 51.3105 12.6003 51.8674C10.0579 52.4241 7.58779 53.0175 7.1111 53.1859C4.41275 54.1392 2.08463 56.3169 1.13125 58.7795C0.761019 59.7359 0.75943 59.7588 0.712917 64.84C0.682582 68.147 0.72144 70.2074 0.823711 70.6997C1.40397 73.4945 3.98908 75.9916 7.47223 77.1215C7.98865 77.289 10.6538 77.9839 13.3947 78.6656C19.7755 80.2527 19.4617 80.1663 19.4617 80.3357C19.4617 80.5939 20.4844 83.2204 21.2645 84.9658L22.0237 86.6646L18.7407 92.1448C16.9351 95.1589 15.2587 98.1037 15.0153 98.6887C13.757 101.715 13.8619 104.919 15.2873 106.999C15.5505 107.383 17.3286 109.246 19.2388 111.138C22.2589 114.129 22.8437 114.643 23.723 115.076C26.2528 116.322 29.2974 116.271 32.1012 114.935C32.6573 114.67 35.3108 113.047 37.9979 111.328C40.6848 109.609 42.9359 108.203 43.0005 108.203C43.0651 108.203 43.9254 108.593 44.9125 109.071C45.8995 109.548 47.6316 110.286 48.7618 110.712C49.8918 111.138 50.8529 111.523 50.8974 111.567C50.9419 111.611 51.6462 114.309 52.4626 117.561C53.7415 122.655 54.0392 123.661 54.6128 124.83C55.7794 127.208 57.3752 128.796 59.4025 129.597C60.2471 129.931 60.3987 129.941 65.3609 129.986C70.9946 130.037 71.3992 129.993 73.1976 129.123C74.3218 128.58 76.3311 126.633 77.072 125.369C77.8217 124.09 78.1479 122.957 79.4158 117.231C80.0667 114.292 80.6502 111.752 80.7126 111.589C80.7834 111.402 81.0611 111.222 81.4536 111.107C82.3088 110.857 85.7548 109.43 86.9789 108.819C87.7604 108.429 88.0418 108.352 88.2789 108.461C88.4455 108.538 90.6943 109.953 93.2764 111.604C95.8585 113.255 98.3648 114.786 98.8462 115.005C101.633 116.274 104.593 116.289 107.144 115.046C108.13 114.566 108.551 114.194 111.849 110.891C115.677 107.058 116.169 106.419 116.537 104.802C116.787 103.703 116.726 101.64 116.407 100.403C115.973 98.719 115.353 97.5239 112.148 92.1949C110.508 89.4682 109.166 87.1752 109.166 87.0994C109.166 87.0235 109.384 86.5243 109.652 85.99C110.208 84.876 111.508 81.6973 111.771 80.8061C111.929 80.2733 112.017 80.1869 112.544 80.0475C112.871 79.9609 115.349 79.336 118.05 78.6586C120.751 77.9813 123.384 77.2898 123.9 77.122C127.386 75.9893 129.969 73.4944 130.549 70.6997C130.651 70.2078 130.69 68.1439 130.66 64.84L130.614 59.7395L130.218 58.7462C129.46 56.8463 127.979 55.1599 126.077 54.0295C124.737 53.2337 124.037 53.0218 119.176 51.9426C116.809 51.4168 114.273 50.8525 113.542 50.6882L112.212 50.3898L111.895 49.4311C111.512 48.2714 110.162 45.0363 109.584 43.8922C109.354 43.4365 109.166 43.0014 109.166 42.9253C109.166 42.8491 110.508 40.5558 112.148 37.8292C116.14 31.192 116.489 30.4081 116.632 27.7436C116.729 25.9532 116.555 24.9516 115.925 23.6673C115.549 22.9008 114.913 22.1978 111.831 19.1392C108.621 15.9546 108.054 15.4535 107.121 14.9816C105.584 14.204 103.89 13.9171 102.139 14.1382C99.7516 14.4397 98.875 14.8643 93.2645 18.436C90.4649 20.2184 88.1185 21.6766 88.0501 21.6766C87.9818 21.6766 87.3585 21.3933 86.6648 21.0472C85.9713 20.701 84.4612 20.048 83.3092 19.5962C82.1572 19.1442 81.083 18.7205 80.9219 18.6544C80.6685 18.5504 80.4569 17.7582 79.351 12.7745C78.6479 9.60666 77.9092 6.60264 77.7093 6.09909C76.5613 3.20804 74.0999 0.91848 71.3978 0.228725C70.1971 -0.0778012 61.0867 -0.0756345 59.9464 0.231614ZM70.3476 7.49723C70.8672 7.83987 71.404 8.5747 71.675 9.31443C71.7937 9.63858 72.584 13.0564 73.4312 16.9097C74.2784 20.7629 75.0437 23.9914 75.1319 24.084C75.2201 24.1768 76.1697 24.5283 77.2423 24.8655C80.1068 25.7659 82.7462 26.8599 85.629 28.3416L88.1852 29.6555L90.6225 28.1029C91.9629 27.2491 93.4822 26.2769 93.9986 25.9427C98.3378 23.1345 101.098 21.4541 101.637 21.2918C101.99 21.1856 102.573 21.0988 102.934 21.0988H103.589L106.678 24.1684L109.766 27.238L109.684 27.863C109.533 29.0082 108.965 30.0832 105.152 36.4376C103.07 39.9085 101.366 42.8182 101.366 42.9036C101.366 42.989 101.878 44.0819 102.503 45.3322C104.081 48.4843 104.736 50.0726 105.735 53.167C106.21 54.6368 106.64 55.885 106.691 55.9408C106.742 55.9965 108.571 56.4384 110.755 56.9229C122.233 59.4677 122.11 59.4322 123.023 60.4724L123.467 60.9775V65.2225V69.4675L122.878 69.9713C122.075 70.6592 120.891 71.0183 113.028 72.9608L106.417 74.5938L105.762 76.6626C104.911 79.3516 103.98 81.5995 102.459 84.6381L101.226 87.1001L105.072 93.4986C108.924 99.9075 109.477 100.944 109.67 102.114L109.774 102.742L106.749 105.777C103.816 108.719 103.704 108.813 103.056 108.886C101.978 109.008 101.13 108.62 97.7061 106.437C95.9451 105.315 93.7032 103.888 92.7242 103.267C91.7452 102.646 90.3417 101.747 89.6053 101.27C88.8689 100.793 88.204 100.403 88.1277 100.403C88.0514 100.403 86.8548 100.983 85.4687 101.692C82.5412 103.189 80.8507 103.89 77.4707 105.01L75.0268 105.82L74.4947 108.275C73.7993 111.485 73.0484 114.863 72.2968 118.165C71.6379 121.06 71.2915 121.815 70.3233 122.464C69.8413 122.787 69.7587 122.793 65.7301 122.793H61.6278L61.2532 122.395C60.5092 121.606 60.0758 120.25 58.3113 113.187C57.3389 109.294 56.4715 106.034 56.3839 105.943C56.2962 105.852 55.2123 105.449 53.9749 105.049C50.7142 103.994 49.0712 103.308 45.8213 101.649L42.9296 100.172L36.6487 104.183C30.1124 108.357 29.5382 108.693 28.6602 108.858C27.4321 109.088 27.2686 108.98 24.1203 105.849C21.2717 103.016 21.1953 102.925 21.1999 102.357C21.2025 102.037 21.3186 101.445 21.4582 101.041C21.5976 100.638 23.5524 97.2373 25.8024 93.4841L29.8931 86.6602L28.9194 84.6837C27.3116 81.4204 26.6963 79.9467 25.8023 77.2182L24.9504 74.618L17.5284 72.7582C10.1586 70.9116 9.10612 70.5754 8.30283 69.813L7.90559 69.436V65.2953C7.90559 61.2301 7.91151 61.1456 8.23335 60.6682C8.41362 60.4007 8.85926 59.9975 9.22371 59.7722C9.9347 59.3326 10.056 59.2998 14.9837 58.2114C16.7713 57.8165 19.7045 57.1612 21.5018 56.7552L24.7699 56.0169L25.4527 53.8335C26.4107 50.771 26.9392 49.4575 28.5179 46.2166L29.8982 43.3829L25.7651 36.4894C23.3619 32.481 21.5406 29.2879 21.4135 28.8602C20.9448 27.2813 20.8672 27.4168 24.048 24.2546C25.6172 22.6947 27.0429 21.3465 27.2164 21.2585C27.7204 21.0033 28.7145 21.0788 29.5733 21.4375C30.0103 21.62 33.186 23.5685 36.6306 25.7676C40.0752 27.9666 42.9381 29.7659 42.9924 29.7659C43.0469 29.7659 44.1567 29.2044 45.4586 28.5182C48.473 26.9296 50.2104 26.1972 53.6162 25.079C55.1213 24.5848 56.4027 24.0885 56.4638 23.9758C56.5249 23.8633 57.3886 20.5047 58.3831 16.5122C59.3777 12.5198 60.3195 9.00198 60.4762 8.69502C60.6328 8.38792 60.9324 7.93304 61.1419 7.68415L61.5228 7.23144L65.7351 7.23245C69.571 7.23332 69.9833 7.25687 70.3476 7.49723ZM62.5805 39.1691C55.9418 40.1122 50.4247 43.0392 46.1399 47.8916C36.7138 58.5659 37.7758 75.0518 48.4964 84.4748C56.2614 91.2999 67.3348 92.9121 76.7032 88.5816C82.1304 86.0728 86.8203 81.4008 89.3426 75.9903C93.6475 66.756 92.2005 56.0552 85.5803 48.1675C82.1333 44.0606 77.0855 40.9437 71.8976 39.7183C69.1147 39.061 65.0341 38.8205 62.5805 39.1691ZM70.2364 46.7242C76.7478 48.4135 81.698 52.9867 83.8031 59.2578C84.6609 61.813 84.9153 65.6556 84.4107 68.4361C82.7283 77.707 74.2777 84.4015 64.9041 83.8894C61.9437 83.7276 59.6478 83.1066 57.0191 81.7566C51.6644 79.0066 47.7941 73.4951 47.0463 67.5544C46.8078 65.6596 46.9423 62.4347 47.3242 60.8884C48.724 55.2217 52.4189 50.5924 57.5247 48.1085C60.4224 46.6986 62.7591 46.218 66.3362 46.2959C68.3964 46.3407 69.0246 46.4097 70.2364 46.7242Z"/>
</mask>
<path fill-rule="evenodd" clip-rule="evenodd" d="M59.9464 0.231614C58.6804 0.572519 57.7184 1.15581 56.6465 2.23212C54.6609 4.22627 54.2102 5.32179 52.3675 12.6323L50.8799 18.5333L49.5798 18.9993C47.7593 19.6518 45.9545 20.4162 44.4462 21.1738C43.7375 21.5298 43.0993 21.821 43.0281 21.821C42.9569 21.821 40.6334 20.3803 37.8647 18.6193C35.096 16.8583 32.4352 15.2382 31.952 15.0191C29.2493 13.7937 26.2613 13.7566 23.7952 14.9178C22.9795 15.3019 22.3694 15.8436 19.1456 19.045C15.152 23.0107 14.7587 23.5228 14.3395 25.3013C13.8931 27.1949 14.237 29.6921 15.2358 31.8078C15.5495 32.4723 17.1908 35.3236 18.883 38.1441C20.5754 40.9645 21.9562 43.3371 21.9518 43.4165C21.9473 43.496 21.4845 44.6109 20.9234 45.8942C20.3624 47.1773 19.7434 48.7049 19.5479 49.2888L19.1926 50.3502L18.2077 50.6026C17.6659 50.7414 15.1426 51.3105 12.6003 51.8674C10.0579 52.4241 7.58779 53.0175 7.1111 53.1859C4.41275 54.1392 2.08463 56.3169 1.13125 58.7795C0.761019 59.7359 0.75943 59.7588 0.712917 64.84C0.682582 68.147 0.72144 70.2074 0.823711 70.6997C1.40397 73.4945 3.98908 75.9916 7.47223 77.1215C7.98865 77.289 10.6538 77.9839 13.3947 78.6656C19.7755 80.2527 19.4617 80.1663 19.4617 80.3357C19.4617 80.5939 20.4844 83.2204 21.2645 84.9658L22.0237 86.6646L18.7407 92.1448C16.9351 95.1589 15.2587 98.1037 15.0153 98.6887C13.757 101.715 13.8619 104.919 15.2873 106.999C15.5505 107.383 17.3286 109.246 19.2388 111.138C22.2589 114.129 22.8437 114.643 23.723 115.076C26.2528 116.322 29.2974 116.271 32.1012 114.935C32.6573 114.67 35.3108 113.047 37.9979 111.328C40.6848 109.609 42.9359 108.203 43.0005 108.203C43.0651 108.203 43.9254 108.593 44.9125 109.071C45.8995 109.548 47.6316 110.286 48.7618 110.712C49.8918 111.138 50.8529 111.523 50.8974 111.567C50.9419 111.611 51.6462 114.309 52.4626 117.561C53.7415 122.655 54.0392 123.661 54.6128 124.83C55.7794 127.208 57.3752 128.796 59.4025 129.597C60.2471 129.931 60.3987 129.941 65.3609 129.986C70.9946 130.037 71.3992 129.993 73.1976 129.123C74.3218 128.58 76.3311 126.633 77.072 125.369C77.8217 124.09 78.1479 122.957 79.4158 117.231C80.0667 114.292 80.6502 111.752 80.7126 111.589C80.7834 111.402 81.0611 111.222 81.4536 111.107C82.3088 110.857 85.7548 109.43 86.9789 108.819C87.7604 108.429 88.0418 108.352 88.2789 108.461C88.4455 108.538 90.6943 109.953 93.2764 111.604C95.8585 113.255 98.3648 114.786 98.8462 115.005C101.633 116.274 104.593 116.289 107.144 115.046C108.13 114.566 108.551 114.194 111.849 110.891C115.677 107.058 116.169 106.419 116.537 104.802C116.787 103.703 116.726 101.64 116.407 100.403C115.973 98.719 115.353 97.5239 112.148 92.1949C110.508 89.4682 109.166 87.1752 109.166 87.0994C109.166 87.0235 109.384 86.5243 109.652 85.99C110.208 84.876 111.508 81.6973 111.771 80.8061C111.929 80.2733 112.017 80.1869 112.544 80.0475C112.871 79.9609 115.349 79.336 118.05 78.6586C120.751 77.9813 123.384 77.2898 123.9 77.122C127.386 75.9893 129.969 73.4944 130.549 70.6997C130.651 70.2078 130.69 68.1439 130.66 64.84L130.614 59.7395L130.218 58.7462C129.46 56.8463 127.979 55.1599 126.077 54.0295C124.737 53.2337 124.037 53.0218 119.176 51.9426C116.809 51.4168 114.273 50.8525 113.542 50.6882L112.212 50.3898L111.895 49.4311C111.512 48.2714 110.162 45.0363 109.584 43.8922C109.354 43.4365 109.166 43.0014 109.166 42.9253C109.166 42.8491 110.508 40.5558 112.148 37.8292C116.14 31.192 116.489 30.4081 116.632 27.7436C116.729 25.9532 116.555 24.9516 115.925 23.6673C115.549 22.9008 114.913 22.1978 111.831 19.1392C108.621 15.9546 108.054 15.4535 107.121 14.9816C105.584 14.204 103.89 13.9171 102.139 14.1382C99.7516 14.4397 98.875 14.8643 93.2645 18.436C90.4649 20.2184 88.1185 21.6766 88.0501 21.6766C87.9818 21.6766 87.3585 21.3933 86.6648 21.0472C85.9713 20.701 84.4612 20.048 83.3092 19.5962C82.1572 19.1442 81.083 18.7205 80.9219 18.6544C80.6685 18.5504 80.4569 17.7582 79.351 12.7745C78.6479 9.60666 77.9092 6.60264 77.7093 6.09909C76.5613 3.20804 74.0999 0.91848 71.3978 0.228725C70.1971 -0.0778012 61.0867 -0.0756345 59.9464 0.231614ZM70.3476 7.49723C70.8672 7.83987 71.404 8.5747 71.675 9.31443C71.7937 9.63858 72.584 13.0564 73.4312 16.9097C74.2784 20.7629 75.0437 23.9914 75.1319 24.084C75.2201 24.1768 76.1697 24.5283 77.2423 24.8655C80.1068 25.7659 82.7462 26.8599 85.629 28.3416L88.1852 29.6555L90.6225 28.1029C91.9629 27.2491 93.4822 26.2769 93.9986 25.9427C98.3378 23.1345 101.098 21.4541 101.637 21.2918C101.99 21.1856 102.573 21.0988 102.934 21.0988H103.589L106.678 24.1684L109.766 27.238L109.684 27.863C109.533 29.0082 108.965 30.0832 105.152 36.4376C103.07 39.9085 101.366 42.8182 101.366 42.9036C101.366 42.989 101.878 44.0819 102.503 45.3322C104.081 48.4843 104.736 50.0726 105.735 53.167C106.21 54.6368 106.64 55.885 106.691 55.9408C106.742 55.9965 108.571 56.4384 110.755 56.9229C122.233 59.4677 122.11 59.4322 123.023 60.4724L123.467 60.9775V65.2225V69.4675L122.878 69.9713C122.075 70.6592 120.891 71.0183 113.028 72.9608L106.417 74.5938L105.762 76.6626C104.911 79.3516 103.98 81.5995 102.459 84.6381L101.226 87.1001L105.072 93.4986C108.924 99.9075 109.477 100.944 109.67 102.114L109.774 102.742L106.749 105.777C103.816 108.719 103.704 108.813 103.056 108.886C101.978 109.008 101.13 108.62 97.7061 106.437C95.9451 105.315 93.7032 103.888 92.7242 103.267C91.7452 102.646 90.3417 101.747 89.6053 101.27C88.8689 100.793 88.204 100.403 88.1277 100.403C88.0514 100.403 86.8548 100.983 85.4687 101.692C82.5412 103.189 80.8507 103.89 77.4707 105.01L75.0268 105.82L74.4947 108.275C73.7993 111.485 73.0484 114.863 72.2968 118.165C71.6379 121.06 71.2915 121.815 70.3233 122.464C69.8413 122.787 69.7587 122.793 65.7301 122.793H61.6278L61.2532 122.395C60.5092 121.606 60.0758 120.25 58.3113 113.187C57.3389 109.294 56.4715 106.034 56.3839 105.943C56.2962 105.852 55.2123 105.449 53.9749 105.049C50.7142 103.994 49.0712 103.308 45.8213 101.649L42.9296 100.172L36.6487 104.183C30.1124 108.357 29.5382 108.693 28.6602 108.858C27.4321 109.088 27.2686 108.98 24.1203 105.849C21.2717 103.016 21.1953 102.925 21.1999 102.357C21.2025 102.037 21.3186 101.445 21.4582 101.041C21.5976 100.638 23.5524 97.2373 25.8024 93.4841L29.8931 86.6602L28.9194 84.6837C27.3116 81.4204 26.6963 79.9467 25.8023 77.2182L24.9504 74.618L17.5284 72.7582C10.1586 70.9116 9.10612 70.5754 8.30283 69.813L7.90559 69.436V65.2953C7.90559 61.2301 7.91151 61.1456 8.23335 60.6682C8.41362 60.4007 8.85926 59.9975 9.22371 59.7722C9.9347 59.3326 10.056 59.2998 14.9837 58.2114C16.7713 57.8165 19.7045 57.1612 21.5018 56.7552L24.7699 56.0169L25.4527 53.8335C26.4107 50.771 26.9392 49.4575 28.5179 46.2166L29.8982 43.3829L25.7651 36.4894C23.3619 32.481 21.5406 29.2879 21.4135 28.8602C20.9448 27.2813 20.8672 27.4168 24.048 24.2546C25.6172 22.6947 27.0429 21.3465 27.2164 21.2585C27.7204 21.0033 28.7145 21.0788 29.5733 21.4375C30.0103 21.62 33.186 23.5685 36.6306 25.7676C40.0752 27.9666 42.9381 29.7659 42.9924 29.7659C43.0469 29.7659 44.1567 29.2044 45.4586 28.5182C48.473 26.9296 50.2104 26.1972 53.6162 25.079C55.1213 24.5848 56.4027 24.0885 56.4638 23.9758C56.5249 23.8633 57.3886 20.5047 58.3831 16.5122C59.3777 12.5198 60.3195 9.00198 60.4762 8.69502C60.6328 8.38792 60.9324 7.93304 61.1419 7.68415L61.5228 7.23144L65.7351 7.23245C69.571 7.23332 69.9833 7.25687 70.3476 7.49723ZM62.5805 39.1691C55.9418 40.1122 50.4247 43.0392 46.1399 47.8916C36.7138 58.5659 37.7758 75.0518 48.4964 84.4748C56.2614 91.2999 67.3348 92.9121 76.7032 88.5816C82.1304 86.0728 86.8203 81.4008 89.3426 75.9903C93.6475 66.756 92.2005 56.0552 85.5803 48.1675C82.1333 44.0606 77.0855 40.9437 71.8976 39.7183C69.1147 39.061 65.0341 38.8205 62.5805 39.1691ZM70.2364 46.7242C76.7478 48.4135 81.698 52.9867 83.8031 59.2578C84.6609 61.813 84.9153 65.6556 84.4107 68.4361C82.7283 77.707 74.2777 84.4015 64.9041 83.8894C61.9437 83.7276 59.6478 83.1066 57.0191 81.7566C51.6644 79.0066 47.7941 73.4951 47.0463 67.5544C46.8078 65.6596 46.9423 62.4347 47.3242 60.8884C48.724 55.2217 52.4189 50.5924 57.5247 48.1085C60.4224 46.6986 62.7591 46.218 66.3362 46.2959C68.3964 46.3407 69.0246 46.4097 70.2364 46.7242Z" fill="white" stroke="#F37021" stroke-width="2" mask="url(#path-1-inside-1_706_362)"/>
</svg>
