<svg width="131" height="130" viewBox="0 0 131 130" fill="none" xmlns="http://www.w3.org/2000/svg">
<path d="M38.99 14.9333C42.6529 8.42622 47.6376 4.18641 54.6473 1.6193C60.7758 -0.626276 67.9797 -0.535688 75.9378 1.88724C83.3221 4.13537 86.4797 5.92928 94.3581 12.3496C99.5992 16.62 108.309 28.4157 108.309 31.2418C108.309 32.1566 105.658 32.6249 100.985 32.5355C93.8777 32.3977 93.2853 32.6568 81.0407 41.2512C69.7682 49.1643 67.793 50.1072 62.5394 50.0842C55.5185 50.0536 47.7434 46.2744 43.1234 40.6451C37.301 33.5524 40.486 31.4638 46.7788 38.249C56.6014 48.8402 65.0113 48.483 80.2977 36.8238C88.4188 30.6306 91.1607 29.2425 97.4772 28.1273L102.708 27.2049L95.9737 19.8901C79.7003 2.21259 57.0718 -0.947799 45.5529 12.8472C43.1122 15.7703 41.2888 18.3399 41.5004 18.5581C41.7132 18.775 43.8067 18.3884 46.1528 17.6994C51.547 16.1135 72.2338 16.0931 74.6683 17.6714C77.9902 19.8251 75.064 20.4924 61.3931 20.7029C48.8399 20.8956 47.2978 21.2082 39.5662 25.1111C34.7521 27.5417 29.4711 31.4396 27.0304 34.3614C24.7117 37.139 22.1677 39.4114 21.3774 39.4114C18.0704 39.4114 20.424 35.3515 27.7847 28.3608C32.0973 24.2626 37.1405 18.2213 38.99 14.9333Z" fill="white"/>
<path d="M116.476 54.8803C115.407 51.8105 114.532 49.0826 114.532 48.8198C114.532 48.557 115.352 48.3426 116.356 48.3426C118.946 48.3426 120.394 51.7263 122.136 61.8403C122.972 66.6977 124.382 71.5525 125.27 72.6319C131.072 79.6799 132.463 94.8644 128.146 104.006C121.181 118.757 101.838 130 83.4291 130C77.455 130 76.0759 128.068 79.6268 124.676C84.1896 120.318 84.8754 116.386 83.9581 99.8672C83.1528 85.3959 83.2773 84.032 85.8113 79.4082C89.7954 72.1419 99.4872 66.2052 107.367 66.2052C111.826 66.2052 109.36 69.557 103.772 71.088C96.5648 73.0644 91.4233 76.7454 88.9092 81.7303C87.3123 84.8958 87.1232 88.2935 87.8326 101.087C88.5383 113.817 88.3392 117.471 86.7199 121.437L84.7484 126.272L89.3722 125.477C116.8 120.761 133.27 99.9463 124.946 80.5182L122.913 75.7744L121.369 80.9227C118.181 91.5407 108.89 107.034 105.709 107.034C103.645 107.034 104.522 104.654 109.48 96.7897C118.444 82.5711 120.932 67.6725 116.476 54.8803Z" fill="white"/>
<path d="M9.64559 113.407C-1.15771 100.469 -2.33263 78.4474 6.79417 59.9839C9.95924 53.5827 13.713 51.2491 13.723 55.679C13.7342 61.4882 18.7102 66.3736 30.3934 72.0475C36.7808 75.1492 43.5503 78.9323 45.4371 80.4531C49.9476 84.0894 52.3012 90.1423 52.3012 98.1026C52.3012 105.863 49.1909 114.563 47.1597 112.481C46.1889 111.485 46.2374 109.767 47.3327 106.364C49.5556 99.4602 48.3209 89.7991 44.7016 85.7787C43.0624 83.958 36.6812 79.9453 30.5204 76.8615C18.1103 70.6491 16.6864 69.6616 12.9252 64.6601L10.3239 61.1998L8.14085 66.5739C5.27449 73.6271 4.20038 92.3534 6.28512 98.909C10.1173 110.957 20.0593 119.793 29.7835 119.793H33.8622L28.2029 113.339C23.2667 107.711 17.1992 97.0309 15.9832 91.8316C15.7641 90.8951 16.2583 89.8743 17.0822 89.563C17.9522 89.2351 20.4576 92.8204 23.0589 98.1166C30.4395 113.139 40.8358 121.948 54.8141 125.02C58.6313 125.86 60.9414 126.998 60.6364 127.887C59.9121 129.992 51.4822 129.02 44.9866 126.083C41.5801 124.543 36.6825 123.61 31.9181 123.592C22.2436 123.557 15.5737 120.507 9.64559 113.407Z" fill="white"/>
</svg>
