<svg width="114" height="132" viewBox="0 0 114 132" fill="none" xmlns="http://www.w3.org/2000/svg">
<mask id="path-1-outside-1_706_366" maskUnits="userSpaceOnUse" x="-0.330078" y="0" width="115" height="132" fill="black">
<rect fill="white" x="-0.330078" width="115" height="132"/>
<path fill-rule="evenodd" clip-rule="evenodd" d="M39.2378 1.27391C38.8752 1.50289 38.7898 3.14668 38.669 12.2278L38.5319 22.5227C38.5287 22.7607 38.3903 22.9762 38.1751 23.0779L22.0633 30.6954C13.0084 34.9762 5.3603 38.6839 5.06789 38.9342C4.55249 39.3754 4.53599 40.7598 4.53599 83.2991V126.654C4.53599 126.97 4.29912 127.236 3.98498 127.273L3.04267 127.383C1.98796 127.506 1.39803 127.742 1.03394 128.187C0.445719 128.905 0.58766 130.059 1.33489 130.63C1.70352 130.911 13.3096 130.985 57.1576 130.985C117.634 130.985 113.572 131.269 113.572 129.334C113.572 128.087 113.051 127.611 111.456 127.399L110.605 127.286C110.295 127.245 110.064 126.981 110.064 126.668V75.3942C110.064 23.637 110.063 23.573 109.484 22.9515C109.165 22.609 108.642 22.3288 108.322 22.3288C108.003 22.3288 100.722 25.6568 92.1439 29.7243C83.5655 33.7918 76.4721 37.1198 76.3811 37.1198C76.2897 37.1198 76.2132 34.2077 76.2109 30.6487C76.2081 26.0453 76.1043 23.9749 75.8514 23.4754C75.3738 22.5314 41.3802 0.994028 40.3776 1C39.9853 1.00256 39.4725 1.12572 39.2378 1.27391ZM57.4421 15.5779L72.086 24.8543C72.2661 24.9684 72.3754 25.1667 72.3757 25.38L72.4472 76.1628L72.518 126.664C72.5185 127.008 72.2393 127.288 71.8947 127.288H57.3007H42.7055C42.3613 127.288 42.0823 127.009 42.0823 126.664V66.7017C42.0823 33.3794 42.1781 6.11624 42.2956 6.11681C42.4131 6.11766 49.2288 10.3749 57.4421 15.5779ZM38.3845 77.0838V126.664C38.3845 127.009 38.1055 127.288 37.7612 127.288H23.166H8.57192C8.22727 127.288 7.94804 127.008 7.94862 126.663L8.01955 84.2884L8.09085 41.682C8.09125 41.4419 8.2295 41.2234 8.44628 41.1203L23.1669 34.1141C31.4584 30.168 38.2744 26.926 38.3134 26.9095C38.3524 26.8933 38.3845 49.4716 38.3845 77.0838ZM106.366 77.226V126.664C106.366 127.009 106.087 127.288 105.743 127.288H91.2906H76.8385C76.4943 127.288 76.2152 127.009 76.2152 126.664L76.2169 84.2659L76.2186 41.6387C76.2186 41.3978 76.3574 41.1784 76.5752 41.0753L91.079 34.2074C99.2521 30.3373 106.035 27.1695 106.153 27.1675C106.27 27.1658 106.366 49.6921 106.366 77.226ZM14.5549 45.527C13.9934 45.9201 13.9226 46.2182 13.9226 48.1851C13.9226 50.6313 14.3179 51.3418 15.6787 51.3418C16.9263 51.3418 17.3359 50.5494 17.3359 48.1356C17.3359 46.2199 17.2628 45.9187 16.7035 45.527C16.356 45.2835 15.8724 45.0841 15.6292 45.0841C15.386 45.0841 14.9025 45.2835 14.5549 45.527ZM21.985 45.8134C21.3129 46.4859 21.2648 46.6989 21.3692 48.5466C21.4941 50.7576 21.9074 51.3418 23.3472 51.3418C24.5345 51.3418 25.0158 50.4208 25.0158 48.1496C25.0158 46.6011 24.904 46.1101 24.4469 45.653C23.678 44.8842 22.8611 44.9374 21.985 45.8134ZM29.5668 45.653C29.1097 46.1101 28.9979 46.6011 28.9979 48.1496C28.9979 50.4114 29.4812 51.3441 30.6497 51.3376C32.1143 51.329 32.6957 50.4026 32.6957 48.0765C32.6957 46.7612 32.5728 46.3576 31.9974 45.7824C31.1512 44.9359 30.3277 44.8921 29.5668 45.653ZM48.6878 45.527C48.1263 45.9201 48.0555 46.2182 48.0555 48.1851C48.0555 50.6313 48.4509 51.3418 49.8117 51.3418C51.0592 51.3418 51.4688 50.5494 51.4688 48.1356C51.4688 46.2199 51.3957 45.9187 50.8365 45.527C50.4889 45.2835 50.0054 45.0841 49.7622 45.0841C49.519 45.0841 49.0354 45.2835 48.6878 45.527ZM56.0406 45.8336C55.5844 46.4136 55.451 46.9927 55.451 48.3936C55.451 50.4845 56.0253 51.3418 57.4259 51.3418C58.6703 51.3418 59.1487 50.4584 59.1487 48.1607C59.1487 46.5553 59.0478 46.1499 58.5261 45.6641C57.6768 44.8728 56.7463 44.9362 56.0406 45.8336ZM63.6998 45.653C63.2342 46.1186 63.1309 46.6011 63.1309 48.3111C63.1309 50.6117 63.5505 51.3458 64.86 51.3376C66.2427 51.3288 66.8287 50.3585 66.8287 48.0765C66.8287 46.7612 66.7058 46.3576 66.1303 45.7824C65.2841 44.9359 64.4607 44.8921 63.6998 45.653ZM82.4729 45.653C82.0073 46.1186 81.904 46.6011 81.904 48.3111C81.904 50.6117 82.3236 51.3458 83.6331 51.3376C85.0158 51.3288 85.6018 50.3585 85.6018 48.0765C85.6018 46.7612 85.4789 46.3576 84.9035 45.7824C84.0573 44.9359 83.2338 44.8921 82.4729 45.653ZM90.1133 45.628C89.5237 46.1053 89.4417 46.4136 89.4417 48.1581C89.4417 50.4205 89.9768 51.3418 91.2906 51.3418C92.5675 51.3418 92.9973 50.5662 92.9973 48.2616C92.9973 46.6011 92.8914 46.1161 92.4284 45.653C91.7139 44.9385 90.9746 44.9303 90.1133 45.628ZM97.5691 45.8336C97.1128 46.4136 96.9794 46.9927 96.9794 48.3936C96.9794 50.4845 97.5537 51.3418 98.9543 51.3418C100.192 51.3418 100.677 50.4564 100.677 48.1993C100.677 46.6039 100.578 46.2279 100.019 45.7025C99.1398 44.8768 98.2856 44.9226 97.5691 45.8336ZM14.5549 56.3358C13.9934 56.7289 13.9226 57.027 13.9226 58.9939C13.9226 61.4401 14.3179 62.1506 15.6787 62.1506C16.9263 62.1506 17.3359 61.3582 17.3359 58.9444C17.3359 57.0287 17.2628 56.7275 16.7035 56.3358C16.356 56.0923 15.8724 55.8929 15.6292 55.8929C15.386 55.8929 14.9025 56.0923 14.5549 56.3358ZM21.8804 56.6751C21.3522 57.345 21.2793 57.7372 21.3729 59.4083C21.491 61.5126 21.9208 62.1506 23.2212 62.1506C24.4827 62.1506 25.0158 61.2213 25.0158 59.0218C25.0158 57.4098 24.9074 56.9223 24.4469 56.4618C23.6416 55.6565 22.6162 55.7419 21.8804 56.6751ZM29.5668 56.4618C29.1097 56.9189 28.9979 57.4098 28.9979 58.9583C28.9979 61.2202 29.4812 62.1529 30.6497 62.1463C32.1046 62.1381 32.6957 61.2108 32.6957 58.9367C32.6957 56.3534 31.0092 55.0194 29.5668 56.4618ZM48.6878 56.3358C48.1263 56.7289 48.0555 57.027 48.0555 58.9939C48.0555 61.4401 48.4509 62.1506 49.8117 62.1506C51.0592 62.1506 51.4688 61.3582 51.4688 58.9444C51.4688 57.0287 51.3957 56.7275 50.8365 56.3358C50.4889 56.0923 50.0054 55.8929 49.7622 55.8929C49.519 55.8929 49.0354 56.0923 48.6878 56.3358ZM56.0406 56.6424C55.5844 57.2224 55.451 57.8015 55.451 59.2024C55.451 61.2376 56.0236 62.1506 57.2999 62.1506C58.6154 62.1506 59.1487 61.2484 59.1487 59.0218C59.1487 57.4098 59.0404 56.9223 58.5798 56.4618C57.786 55.6679 56.7489 55.7416 56.0406 56.6424ZM63.6998 56.4618C63.2342 56.9274 63.1309 57.4098 63.1309 59.1199C63.1309 61.4418 63.547 62.1506 64.9104 62.1506C66.0982 62.1506 66.8287 60.9594 66.8287 59.0218C66.8287 56.3534 65.1675 54.9941 63.6998 56.4618ZM82.4729 56.4618C82.0073 56.9274 81.904 57.4098 81.904 59.1199C81.904 61.4418 82.3202 62.1506 83.6835 62.1506C84.8713 62.1506 85.6018 60.9594 85.6018 59.0218C85.6018 56.3534 83.9406 54.9941 82.4729 56.4618ZM90.1133 56.4368C89.5237 56.914 89.4417 57.2224 89.4417 58.9669C89.4417 61.2293 89.9768 62.1506 91.2906 62.1506C92.5885 62.1506 92.9973 61.3826 92.9973 58.9444C92.9973 57.0287 92.9241 56.7275 92.3649 56.3358C91.5293 55.7501 90.9277 55.7771 90.1133 56.4368ZM97.5483 56.4618C97.0878 56.9223 96.9794 57.4098 96.9794 59.0218C96.9794 61.2484 97.5128 62.1506 98.8283 62.1506C100.144 62.1506 100.677 61.2484 100.677 59.0218C100.677 56.7952 100.144 55.8929 98.8283 55.8929C98.4372 55.8929 97.8612 56.1489 97.5483 56.4618ZM14.3933 67.5064C14.0432 67.8932 13.9226 68.5742 13.9226 70.1645C13.9226 72.5279 14.3307 73.2438 15.6787 73.2438C16.9263 73.2438 17.3359 72.4514 17.3359 70.0376C17.3359 68.1219 17.2628 67.8207 16.7035 67.429C15.8622 66.8394 14.9696 66.8695 14.3933 67.5064ZM22.2851 67.2037C21.1693 67.9487 20.9335 71.2559 21.9077 72.4943C22.6159 73.3951 23.653 73.4688 24.4469 72.6749C24.9074 72.2144 25.0158 71.7269 25.0158 70.115C25.0158 68.503 24.9074 68.0155 24.4469 67.555C23.8735 66.9816 22.8634 66.8175 22.2851 67.2037ZM29.5668 67.555C29.1063 68.0155 28.9979 68.503 28.9979 70.115C28.9979 71.7269 29.1063 72.2144 29.5668 72.6749C31.0345 74.1427 32.6957 72.7833 32.6957 70.115C32.6957 67.4466 31.0345 66.0873 29.5668 67.555ZM48.5263 67.5064C48.1761 67.8932 48.0555 68.5742 48.0555 70.1645C48.0555 72.5279 48.4637 73.2438 49.8117 73.2438C51.0592 73.2438 51.4688 72.4514 51.4688 70.0376C51.4688 68.1219 51.3957 67.8207 50.8365 67.429C49.9951 66.8394 49.1025 66.8695 48.5263 67.5064ZM56.1723 67.3701C55.6023 67.7868 55.2348 70.3525 55.5597 71.6464C55.9542 73.2185 57.5075 73.7473 58.5798 72.6749C59.0404 72.2144 59.1487 71.7269 59.1487 70.115C59.1487 68.503 59.0404 68.0155 58.5798 67.555C57.9211 66.8962 56.925 66.82 56.1723 67.3701ZM63.6017 67.5064C62.8707 68.3142 62.9389 71.9141 63.6998 72.6749C65.1675 74.1427 66.8287 72.7833 66.8287 70.115C66.8287 68.8967 66.6799 68.2957 66.239 67.7356C65.5379 66.8439 64.2985 66.7361 63.6017 67.5064ZM82.5364 67.429C81.9791 67.819 81.904 68.1236 81.904 69.989C81.904 71.7269 82.0059 72.2079 82.4729 72.6749C83.9406 74.1427 85.6018 72.7833 85.6018 70.115C85.6018 67.4995 84.1952 66.2671 82.5364 67.429ZM89.9836 67.5849C89.5626 68.0499 89.4417 68.6148 89.4417 70.115C89.4417 71.6151 89.5626 72.18 89.9836 72.6451C90.6262 73.3551 91.4931 73.4119 92.3649 72.801C92.9276 72.407 92.9973 72.1106 92.9973 70.115C92.9973 68.1193 92.9276 67.823 92.3649 67.429C91.4931 66.818 90.6262 66.8749 89.9836 67.5849ZM97.5483 67.555C97.0878 68.0155 96.9794 68.503 96.9794 70.115C96.9794 72.3416 97.5128 73.2438 98.8283 73.2438C100.144 73.2438 100.677 72.3416 100.677 70.115C100.677 67.8884 100.144 66.9861 98.8283 66.9861C98.4372 66.9861 97.8612 67.2421 97.5483 67.555ZM14.3808 78.6135C13.9945 79.0402 13.9143 79.596 13.9811 81.3769C14.0599 83.4749 14.1109 83.6319 14.847 84.0427C15.5501 84.4352 15.7083 84.4352 16.4114 84.0427C17.1476 83.6319 17.1985 83.4749 17.2773 81.3769C17.3717 78.8601 16.9814 78.0793 15.6292 78.0793C15.2082 78.0793 14.6465 78.3197 14.3808 78.6135ZM22.0234 78.475C21.6056 78.7805 21.4574 79.3155 21.3729 80.8216C21.2793 82.4927 21.3522 82.885 21.8804 83.5548C22.6162 84.4881 23.6416 84.5734 24.4469 83.7682C24.9074 83.3076 25.0158 82.8201 25.0158 81.2082C25.0158 79.5963 24.9074 79.1087 24.4469 78.6482C23.7836 77.9849 22.7909 77.9138 22.0234 78.475ZM29.5668 78.6482C29.1063 79.1087 28.9979 79.5963 28.9979 81.2082C28.9979 82.8201 29.1063 83.3076 29.5668 83.7682C30.3607 84.562 31.3978 84.4884 32.106 83.5875C33.0802 82.3491 32.8444 79.0419 31.7286 78.2969C31.1503 77.9107 30.1403 78.0748 29.5668 78.6482ZM48.5138 78.6135C48.1275 79.0402 48.0473 79.596 48.1141 81.3769C48.1929 83.4749 48.2438 83.6319 48.98 84.0427C49.6831 84.4352 49.8412 84.4352 50.5444 84.0427C51.2805 83.6319 51.3314 83.4749 51.4102 81.3769C51.5047 78.8601 51.1144 78.0793 49.7622 78.0793C49.3412 78.0793 48.7794 78.3197 48.5138 78.6135ZM56.0199 78.6482C55.1947 79.4734 55.2075 82.5288 56.0406 83.5875C56.7489 84.4884 57.786 84.562 58.5798 83.7682C59.0404 83.3076 59.1487 82.8201 59.1487 81.2082C59.1487 78.9816 58.6154 78.0793 57.2999 78.0793C56.9088 78.0793 56.3328 78.3353 56.0199 78.6482ZM63.7632 78.5222C63.206 78.9122 63.1309 79.2168 63.1309 81.0822C63.1309 82.8201 63.2327 83.3011 63.6998 83.7682C64.4607 84.529 65.2841 84.4852 66.1303 83.6387C66.7143 83.0551 66.8287 82.6651 66.8287 81.2594C66.8287 78.5913 65.4375 77.3492 63.7632 78.5222ZM82.3748 78.5996C81.6438 79.4074 81.712 83.0073 82.4729 83.7682C83.2338 84.529 84.0573 84.4852 84.9035 83.6387C85.8501 82.6924 85.9115 79.972 85.0121 78.8288C84.311 77.9371 83.0717 77.8293 82.3748 78.5996ZM90.001 78.6587C89.3342 79.3957 89.1175 82.1889 89.6491 83.1944C90.191 84.2193 91.3452 84.5529 92.2642 83.9511C92.9486 83.5025 92.9973 83.323 92.9973 81.2457C92.9973 79.4515 92.8966 78.9298 92.477 78.5501C91.7682 77.9084 90.635 77.9582 90.001 78.6587ZM97.5483 78.6482C96.7232 79.4734 96.736 82.5288 97.5691 83.5875C98.2918 84.5063 99.3119 84.5575 100.097 83.7144C100.563 83.2143 100.677 82.7112 100.677 81.1544C100.677 78.985 100.133 78.0793 98.8283 78.0793C98.4372 78.0793 97.8612 78.3353 97.5483 78.6482ZM14.3808 89.7067C13.9945 90.1334 13.9143 90.6892 13.9811 92.4701C14.0599 94.5681 14.1109 94.7251 14.847 95.1359C15.5501 95.5284 15.7083 95.5284 16.4114 95.1359C17.1476 94.7251 17.1985 94.5681 17.2773 92.4701C17.3717 89.9533 16.9814 89.1725 15.6292 89.1725C15.2082 89.1725 14.6465 89.4129 14.3808 89.7067ZM21.8579 89.6342C21.6474 89.8879 21.4255 90.9677 21.3655 92.0338C21.2651 93.8087 21.3172 94.0331 21.985 94.7009C22.8654 95.5813 23.5623 95.6245 24.3931 94.8503C24.9148 94.3645 25.0158 93.9591 25.0158 92.3537C25.0158 89.9869 24.5473 89.1725 23.1857 89.1725C22.6612 89.1725 22.0707 89.3779 21.8579 89.6342ZM29.4687 89.6928C28.7377 90.5006 28.8059 94.1005 29.5668 94.8614C30.3357 95.6302 31.1526 95.577 32.0287 94.7009C32.7008 94.0285 32.7489 93.8155 32.6445 91.9678C32.5566 90.4121 32.4104 89.8754 31.9903 89.5682C31.2345 89.0155 30.0276 89.075 29.4687 89.6928ZM48.5138 89.7067C48.1275 90.1334 48.0473 90.6892 48.1141 92.4701C48.1929 94.5681 48.2438 94.7251 48.98 95.1359C49.6831 95.5284 49.8412 95.5284 50.5444 95.1359C51.2805 94.7251 51.3314 94.5681 51.4102 92.4701C51.5047 89.9533 51.1144 89.1725 49.7622 89.1725C49.3412 89.1725 48.7794 89.4129 48.5138 89.7067ZM55.8939 89.8049C55.6063 90.215 55.451 91.0681 55.451 92.2354C55.451 93.7657 55.5551 94.138 56.1493 94.7319C57.0228 95.6055 57.7359 95.6174 58.5304 94.772C59.4002 93.8462 59.432 90.5936 58.5798 89.7414C57.8067 88.9683 56.4573 89.0002 55.8939 89.8049ZM63.6017 89.6928C62.8707 90.5006 62.9389 94.1005 63.6998 94.8614C64.4607 95.6223 65.2841 95.5784 66.1303 94.7319C66.7058 94.1568 66.8287 93.7532 66.8287 92.4379C66.8287 90.8778 66.4899 89.8097 65.8615 89.3901C65.2855 89.0056 64.0773 89.1671 63.6017 89.6928ZM82.3748 89.6928C81.6438 90.5006 81.712 94.1005 82.4729 94.8614C83.2338 95.6223 84.0573 95.5784 84.9035 94.7319C85.4789 94.1568 85.6018 93.7532 85.6018 92.4379C85.6018 90.8778 85.263 89.8097 84.6347 89.3901C84.0587 89.0056 82.8504 89.1671 82.3748 89.6928ZM90.0422 89.6083C89.0202 90.6303 89.1004 94.0663 90.1665 94.9296C90.9766 95.5855 91.7267 95.5631 92.4284 94.8614C93.2276 94.0621 93.2621 90.3538 92.477 89.6433C91.8248 89.0531 90.6148 89.0357 90.0422 89.6083ZM97.5483 89.7414C97.0952 90.1945 96.9794 90.6895 96.9794 92.172C96.9794 93.7697 97.0784 94.1329 97.6777 94.7319C98.0617 95.1159 98.5794 95.4303 98.8283 95.4303C99.0772 95.4303 99.5949 95.1159 99.9789 94.7319C100.578 94.1329 100.677 93.7697 100.677 92.172C100.677 90.0827 100.116 89.1725 98.8283 89.1725C98.4372 89.1725 97.8612 89.4285 97.5483 89.7414ZM14.3586 100.724C13.9974 101.085 13.918 101.668 13.9826 103.487C14.0605 105.669 14.1066 105.816 14.847 106.229C15.5501 106.622 15.7083 106.622 16.4114 106.229C17.1476 105.818 17.1985 105.661 17.2773 103.563C17.3441 101.782 17.2639 101.227 16.8776 100.8C16.2851 100.145 14.9767 100.105 14.3586 100.724ZM21.7609 100.898C21.4733 101.308 21.318 102.161 21.318 103.329C21.318 104.859 21.4221 105.231 22.0163 105.825C22.8679 106.677 23.2952 106.698 24.2663 105.934C24.9429 105.402 25.0158 105.159 25.0158 103.437C25.0158 101.069 24.5473 100.266 23.1669 100.266C22.4939 100.266 22.0701 100.456 21.7609 100.898ZM29.4687 100.786C28.8318 101.49 28.8008 105.148 29.4263 105.773C30.5137 106.861 32.2138 106.413 32.583 104.942C32.9113 103.635 32.5475 101.069 31.9743 100.65C31.2328 100.108 30.0231 100.173 29.4687 100.786ZM48.5024 100.713C48.1719 101.043 48.0555 101.743 48.0555 103.399C48.0555 105.39 48.1255 105.687 48.6878 106.081C49.5386 106.676 50.2164 106.638 50.8999 105.955C51.6992 105.155 51.7336 101.447 50.9486 100.737C50.2915 100.142 49.0852 100.13 48.5024 100.713ZM55.8939 100.898C55.6063 101.308 55.451 102.161 55.451 103.329C55.451 104.859 55.5551 105.231 56.1493 105.825C57.0009 106.677 57.4281 106.698 58.3992 105.934C59.0759 105.402 59.1487 105.159 59.1487 103.437C59.1487 101.069 58.6803 100.266 57.2999 100.266C56.6269 100.266 56.2031 100.456 55.8939 100.898ZM63.6017 100.786C63.0211 101.427 62.9375 105.024 63.4865 105.742C64.0764 106.515 65.2116 106.63 65.9932 105.997C66.6187 105.491 66.6864 105.223 66.6864 103.255C66.6864 101.423 66.5977 101.008 66.1343 100.669C65.3686 100.11 64.1637 100.165 63.6017 100.786ZM82.3748 100.786C81.7943 101.427 81.7106 105.024 82.2596 105.742C82.8495 106.515 83.9847 106.63 84.7664 105.997C85.3919 105.491 85.4596 105.223 85.4596 103.255C85.4596 101.423 85.3708 101.008 84.9075 100.669C84.1418 100.11 82.9369 100.165 82.3748 100.786ZM89.9938 100.669C89.5305 101.008 89.4417 101.423 89.4417 103.254C89.4417 105.222 89.5094 105.49 90.1349 105.997C90.9166 106.63 92.0515 106.515 92.6417 105.742C92.8496 105.47 92.9973 104.432 92.9973 103.242C92.9973 101.632 92.8886 101.109 92.477 100.737C91.839 100.159 90.7328 100.129 89.9938 100.669ZM97.4223 100.898C97.1347 101.308 96.9794 102.161 96.9794 103.329C96.9794 104.859 97.0835 105.231 97.6777 105.825C98.0617 106.209 98.5794 106.523 98.8283 106.523C99.0772 106.523 99.5949 106.209 99.9789 105.825C100.573 105.231 100.677 104.859 100.677 103.329C100.677 101.076 100.188 100.266 98.8283 100.266C98.1553 100.266 97.7315 100.456 97.4223 100.898ZM14.3694 111.806C14.0395 112.136 13.9226 112.834 13.9226 114.473C13.9226 116.961 14.2005 117.427 15.6847 117.427C16.9635 117.427 17.3359 116.724 17.3359 114.311C17.3359 111.991 16.9703 111.359 15.6292 111.359C15.1823 111.359 14.6155 111.56 14.3694 111.806ZM21.7609 111.991C21.4733 112.401 21.318 113.254 21.318 114.422C21.318 115.952 21.4221 116.324 22.0163 116.918C22.8679 117.77 23.2952 117.791 24.2663 117.027C24.9429 116.495 25.0158 116.252 25.0158 114.53C25.0158 112.163 24.5473 111.359 23.1669 111.359C22.4939 111.359 22.0701 111.55 21.7609 111.991ZM29.4812 111.865C29.122 112.262 28.9979 112.918 28.9979 114.418C28.9979 116.261 29.0634 116.489 29.7475 117.027C30.7185 117.791 31.1458 117.77 31.9974 116.918C32.5796 116.336 32.6951 115.946 32.6914 114.572C32.6857 112.335 32.2431 111.524 30.968 111.416C30.2685 111.357 29.818 111.493 29.4812 111.865ZM48.3499 111.909C47.8669 112.812 47.9762 116.628 48.4973 117.06C49.1566 117.608 50.6317 117.515 51.0825 116.899C51.6489 116.124 51.6042 112.388 51.022 111.806C50.3754 111.16 48.7168 111.224 48.3499 111.909ZM55.8939 111.991C55.6063 112.401 55.451 113.254 55.451 114.422C55.451 115.952 55.5551 116.324 56.1493 116.918C56.5333 117.302 57.051 117.617 57.2999 117.617C57.5488 117.617 58.0664 117.302 58.4504 116.918C59.0446 116.324 59.1487 115.952 59.1487 114.422C59.1487 112.169 58.6595 111.359 57.2999 111.359C56.6269 111.359 56.2031 111.55 55.8939 111.991ZM63.6017 111.879C62.9648 112.583 62.9338 116.241 63.5593 116.867C64.7551 118.062 66.3829 117.486 66.708 115.752C66.9532 114.445 66.7146 112.334 66.2598 111.786C65.766 111.191 64.174 111.247 63.6017 111.879ZM82.3748 111.879C81.7379 112.583 81.7069 116.241 82.3324 116.867C83.5282 118.062 85.1561 117.486 85.4812 115.752C85.7264 114.445 85.4877 112.334 85.0329 111.786C84.5391 111.191 82.9471 111.247 82.3748 111.879ZM89.8485 111.81C89.357 112.402 89.1675 115.271 89.5541 116.271C89.9352 117.257 91.0833 117.746 91.9491 117.29C92.8872 116.796 92.9882 116.508 92.993 114.319C92.9964 112.721 92.8889 112.202 92.477 111.83C91.8171 111.232 90.3372 111.221 89.8485 111.81ZM97.4223 111.991C97.1347 112.401 96.9794 113.254 96.9794 114.422C96.9794 115.952 97.0835 116.324 97.6777 116.918C98.0617 117.302 98.5794 117.617 98.8283 117.617C99.0772 117.617 99.5949 117.302 99.9789 116.918C100.573 116.324 100.677 115.952 100.677 114.422C100.677 112.169 100.188 111.359 98.8283 111.359C98.1553 111.359 97.7315 111.55 97.4223 111.991Z"/>
</mask>
<path fill-rule="evenodd" clip-rule="evenodd" d="M39.2378 1.27391C38.8752 1.50289 38.7898 3.14668 38.669 12.2278L38.5319 22.5227C38.5287 22.7607 38.3903 22.9762 38.1751 23.0779L22.0633 30.6954C13.0084 34.9762 5.3603 38.6839 5.06789 38.9342C4.55249 39.3754 4.53599 40.7598 4.53599 83.2991V126.654C4.53599 126.97 4.29912 127.236 3.98498 127.273L3.04267 127.383C1.98796 127.506 1.39803 127.742 1.03394 128.187C0.445719 128.905 0.58766 130.059 1.33489 130.63C1.70352 130.911 13.3096 130.985 57.1576 130.985C117.634 130.985 113.572 131.269 113.572 129.334C113.572 128.087 113.051 127.611 111.456 127.399L110.605 127.286C110.295 127.245 110.064 126.981 110.064 126.668V75.3942C110.064 23.637 110.063 23.573 109.484 22.9515C109.165 22.609 108.642 22.3288 108.322 22.3288C108.003 22.3288 100.722 25.6568 92.1439 29.7243C83.5655 33.7918 76.4721 37.1198 76.3811 37.1198C76.2897 37.1198 76.2132 34.2077 76.2109 30.6487C76.2081 26.0453 76.1043 23.9749 75.8514 23.4754C75.3738 22.5314 41.3802 0.994028 40.3776 1C39.9853 1.00256 39.4725 1.12572 39.2378 1.27391ZM57.4421 15.5779L72.086 24.8543C72.2661 24.9684 72.3754 25.1667 72.3757 25.38L72.4472 76.1628L72.518 126.664C72.5185 127.008 72.2393 127.288 71.8947 127.288H57.3007H42.7055C42.3613 127.288 42.0823 127.009 42.0823 126.664V66.7017C42.0823 33.3794 42.1781 6.11624 42.2956 6.11681C42.4131 6.11766 49.2288 10.3749 57.4421 15.5779ZM38.3845 77.0838V126.664C38.3845 127.009 38.1055 127.288 37.7612 127.288H23.166H8.57192C8.22727 127.288 7.94804 127.008 7.94862 126.663L8.01955 84.2884L8.09085 41.682C8.09125 41.4419 8.2295 41.2234 8.44628 41.1203L23.1669 34.1141C31.4584 30.168 38.2744 26.926 38.3134 26.9095C38.3524 26.8933 38.3845 49.4716 38.3845 77.0838ZM106.366 77.226V126.664C106.366 127.009 106.087 127.288 105.743 127.288H91.2906H76.8385C76.4943 127.288 76.2152 127.009 76.2152 126.664L76.2169 84.2659L76.2186 41.6387C76.2186 41.3978 76.3574 41.1784 76.5752 41.0753L91.079 34.2074C99.2521 30.3373 106.035 27.1695 106.153 27.1675C106.27 27.1658 106.366 49.6921 106.366 77.226ZM14.5549 45.527C13.9934 45.9201 13.9226 46.2182 13.9226 48.1851C13.9226 50.6313 14.3179 51.3418 15.6787 51.3418C16.9263 51.3418 17.3359 50.5494 17.3359 48.1356C17.3359 46.2199 17.2628 45.9187 16.7035 45.527C16.356 45.2835 15.8724 45.0841 15.6292 45.0841C15.386 45.0841 14.9025 45.2835 14.5549 45.527ZM21.985 45.8134C21.3129 46.4859 21.2648 46.6989 21.3692 48.5466C21.4941 50.7576 21.9074 51.3418 23.3472 51.3418C24.5345 51.3418 25.0158 50.4208 25.0158 48.1496C25.0158 46.6011 24.904 46.1101 24.4469 45.653C23.678 44.8842 22.8611 44.9374 21.985 45.8134ZM29.5668 45.653C29.1097 46.1101 28.9979 46.6011 28.9979 48.1496C28.9979 50.4114 29.4812 51.3441 30.6497 51.3376C32.1143 51.329 32.6957 50.4026 32.6957 48.0765C32.6957 46.7612 32.5728 46.3576 31.9974 45.7824C31.1512 44.9359 30.3277 44.8921 29.5668 45.653ZM48.6878 45.527C48.1263 45.9201 48.0555 46.2182 48.0555 48.1851C48.0555 50.6313 48.4509 51.3418 49.8117 51.3418C51.0592 51.3418 51.4688 50.5494 51.4688 48.1356C51.4688 46.2199 51.3957 45.9187 50.8365 45.527C50.4889 45.2835 50.0054 45.0841 49.7622 45.0841C49.519 45.0841 49.0354 45.2835 48.6878 45.527ZM56.0406 45.8336C55.5844 46.4136 55.451 46.9927 55.451 48.3936C55.451 50.4845 56.0253 51.3418 57.4259 51.3418C58.6703 51.3418 59.1487 50.4584 59.1487 48.1607C59.1487 46.5553 59.0478 46.1499 58.5261 45.6641C57.6768 44.8728 56.7463 44.9362 56.0406 45.8336ZM63.6998 45.653C63.2342 46.1186 63.1309 46.6011 63.1309 48.3111C63.1309 50.6117 63.5505 51.3458 64.86 51.3376C66.2427 51.3288 66.8287 50.3585 66.8287 48.0765C66.8287 46.7612 66.7058 46.3576 66.1303 45.7824C65.2841 44.9359 64.4607 44.8921 63.6998 45.653ZM82.4729 45.653C82.0073 46.1186 81.904 46.6011 81.904 48.3111C81.904 50.6117 82.3236 51.3458 83.6331 51.3376C85.0158 51.3288 85.6018 50.3585 85.6018 48.0765C85.6018 46.7612 85.4789 46.3576 84.9035 45.7824C84.0573 44.9359 83.2338 44.8921 82.4729 45.653ZM90.1133 45.628C89.5237 46.1053 89.4417 46.4136 89.4417 48.1581C89.4417 50.4205 89.9768 51.3418 91.2906 51.3418C92.5675 51.3418 92.9973 50.5662 92.9973 48.2616C92.9973 46.6011 92.8914 46.1161 92.4284 45.653C91.7139 44.9385 90.9746 44.9303 90.1133 45.628ZM97.5691 45.8336C97.1128 46.4136 96.9794 46.9927 96.9794 48.3936C96.9794 50.4845 97.5537 51.3418 98.9543 51.3418C100.192 51.3418 100.677 50.4564 100.677 48.1993C100.677 46.6039 100.578 46.2279 100.019 45.7025C99.1398 44.8768 98.2856 44.9226 97.5691 45.8336ZM14.5549 56.3358C13.9934 56.7289 13.9226 57.027 13.9226 58.9939C13.9226 61.4401 14.3179 62.1506 15.6787 62.1506C16.9263 62.1506 17.3359 61.3582 17.3359 58.9444C17.3359 57.0287 17.2628 56.7275 16.7035 56.3358C16.356 56.0923 15.8724 55.8929 15.6292 55.8929C15.386 55.8929 14.9025 56.0923 14.5549 56.3358ZM21.8804 56.6751C21.3522 57.345 21.2793 57.7372 21.3729 59.4083C21.491 61.5126 21.9208 62.1506 23.2212 62.1506C24.4827 62.1506 25.0158 61.2213 25.0158 59.0218C25.0158 57.4098 24.9074 56.9223 24.4469 56.4618C23.6416 55.6565 22.6162 55.7419 21.8804 56.6751ZM29.5668 56.4618C29.1097 56.9189 28.9979 57.4098 28.9979 58.9583C28.9979 61.2202 29.4812 62.1529 30.6497 62.1463C32.1046 62.1381 32.6957 61.2108 32.6957 58.9367C32.6957 56.3534 31.0092 55.0194 29.5668 56.4618ZM48.6878 56.3358C48.1263 56.7289 48.0555 57.027 48.0555 58.9939C48.0555 61.4401 48.4509 62.1506 49.8117 62.1506C51.0592 62.1506 51.4688 61.3582 51.4688 58.9444C51.4688 57.0287 51.3957 56.7275 50.8365 56.3358C50.4889 56.0923 50.0054 55.8929 49.7622 55.8929C49.519 55.8929 49.0354 56.0923 48.6878 56.3358ZM56.0406 56.6424C55.5844 57.2224 55.451 57.8015 55.451 59.2024C55.451 61.2376 56.0236 62.1506 57.2999 62.1506C58.6154 62.1506 59.1487 61.2484 59.1487 59.0218C59.1487 57.4098 59.0404 56.9223 58.5798 56.4618C57.786 55.6679 56.7489 55.7416 56.0406 56.6424ZM63.6998 56.4618C63.2342 56.9274 63.1309 57.4098 63.1309 59.1199C63.1309 61.4418 63.547 62.1506 64.9104 62.1506C66.0982 62.1506 66.8287 60.9594 66.8287 59.0218C66.8287 56.3534 65.1675 54.9941 63.6998 56.4618ZM82.4729 56.4618C82.0073 56.9274 81.904 57.4098 81.904 59.1199C81.904 61.4418 82.3202 62.1506 83.6835 62.1506C84.8713 62.1506 85.6018 60.9594 85.6018 59.0218C85.6018 56.3534 83.9406 54.9941 82.4729 56.4618ZM90.1133 56.4368C89.5237 56.914 89.4417 57.2224 89.4417 58.9669C89.4417 61.2293 89.9768 62.1506 91.2906 62.1506C92.5885 62.1506 92.9973 61.3826 92.9973 58.9444C92.9973 57.0287 92.9241 56.7275 92.3649 56.3358C91.5293 55.7501 90.9277 55.7771 90.1133 56.4368ZM97.5483 56.4618C97.0878 56.9223 96.9794 57.4098 96.9794 59.0218C96.9794 61.2484 97.5128 62.1506 98.8283 62.1506C100.144 62.1506 100.677 61.2484 100.677 59.0218C100.677 56.7952 100.144 55.8929 98.8283 55.8929C98.4372 55.8929 97.8612 56.1489 97.5483 56.4618ZM14.3933 67.5064C14.0432 67.8932 13.9226 68.5742 13.9226 70.1645C13.9226 72.5279 14.3307 73.2438 15.6787 73.2438C16.9263 73.2438 17.3359 72.4514 17.3359 70.0376C17.3359 68.1219 17.2628 67.8207 16.7035 67.429C15.8622 66.8394 14.9696 66.8695 14.3933 67.5064ZM22.2851 67.2037C21.1693 67.9487 20.9335 71.2559 21.9077 72.4943C22.6159 73.3951 23.653 73.4688 24.4469 72.6749C24.9074 72.2144 25.0158 71.7269 25.0158 70.115C25.0158 68.503 24.9074 68.0155 24.4469 67.555C23.8735 66.9816 22.8634 66.8175 22.2851 67.2037ZM29.5668 67.555C29.1063 68.0155 28.9979 68.503 28.9979 70.115C28.9979 71.7269 29.1063 72.2144 29.5668 72.6749C31.0345 74.1427 32.6957 72.7833 32.6957 70.115C32.6957 67.4466 31.0345 66.0873 29.5668 67.555ZM48.5263 67.5064C48.1761 67.8932 48.0555 68.5742 48.0555 70.1645C48.0555 72.5279 48.4637 73.2438 49.8117 73.2438C51.0592 73.2438 51.4688 72.4514 51.4688 70.0376C51.4688 68.1219 51.3957 67.8207 50.8365 67.429C49.9951 66.8394 49.1025 66.8695 48.5263 67.5064ZM56.1723 67.3701C55.6023 67.7868 55.2348 70.3525 55.5597 71.6464C55.9542 73.2185 57.5075 73.7473 58.5798 72.6749C59.0404 72.2144 59.1487 71.7269 59.1487 70.115C59.1487 68.503 59.0404 68.0155 58.5798 67.555C57.9211 66.8962 56.925 66.82 56.1723 67.3701ZM63.6017 67.5064C62.8707 68.3142 62.9389 71.9141 63.6998 72.6749C65.1675 74.1427 66.8287 72.7833 66.8287 70.115C66.8287 68.8967 66.6799 68.2957 66.239 67.7356C65.5379 66.8439 64.2985 66.7361 63.6017 67.5064ZM82.5364 67.429C81.9791 67.819 81.904 68.1236 81.904 69.989C81.904 71.7269 82.0059 72.2079 82.4729 72.6749C83.9406 74.1427 85.6018 72.7833 85.6018 70.115C85.6018 67.4995 84.1952 66.2671 82.5364 67.429ZM89.9836 67.5849C89.5626 68.0499 89.4417 68.6148 89.4417 70.115C89.4417 71.6151 89.5626 72.18 89.9836 72.6451C90.6262 73.3551 91.4931 73.4119 92.3649 72.801C92.9276 72.407 92.9973 72.1106 92.9973 70.115C92.9973 68.1193 92.9276 67.823 92.3649 67.429C91.4931 66.818 90.6262 66.8749 89.9836 67.5849ZM97.5483 67.555C97.0878 68.0155 96.9794 68.503 96.9794 70.115C96.9794 72.3416 97.5128 73.2438 98.8283 73.2438C100.144 73.2438 100.677 72.3416 100.677 70.115C100.677 67.8884 100.144 66.9861 98.8283 66.9861C98.4372 66.9861 97.8612 67.2421 97.5483 67.555ZM14.3808 78.6135C13.9945 79.0402 13.9143 79.596 13.9811 81.3769C14.0599 83.4749 14.1109 83.6319 14.847 84.0427C15.5501 84.4352 15.7083 84.4352 16.4114 84.0427C17.1476 83.6319 17.1985 83.4749 17.2773 81.3769C17.3717 78.8601 16.9814 78.0793 15.6292 78.0793C15.2082 78.0793 14.6465 78.3197 14.3808 78.6135ZM22.0234 78.475C21.6056 78.7805 21.4574 79.3155 21.3729 80.8216C21.2793 82.4927 21.3522 82.885 21.8804 83.5548C22.6162 84.4881 23.6416 84.5734 24.4469 83.7682C24.9074 83.3076 25.0158 82.8201 25.0158 81.2082C25.0158 79.5963 24.9074 79.1087 24.4469 78.6482C23.7836 77.9849 22.7909 77.9138 22.0234 78.475ZM29.5668 78.6482C29.1063 79.1087 28.9979 79.5963 28.9979 81.2082C28.9979 82.8201 29.1063 83.3076 29.5668 83.7682C30.3607 84.562 31.3978 84.4884 32.106 83.5875C33.0802 82.3491 32.8444 79.0419 31.7286 78.2969C31.1503 77.9107 30.1403 78.0748 29.5668 78.6482ZM48.5138 78.6135C48.1275 79.0402 48.0473 79.596 48.1141 81.3769C48.1929 83.4749 48.2438 83.6319 48.98 84.0427C49.6831 84.4352 49.8412 84.4352 50.5444 84.0427C51.2805 83.6319 51.3314 83.4749 51.4102 81.3769C51.5047 78.8601 51.1144 78.0793 49.7622 78.0793C49.3412 78.0793 48.7794 78.3197 48.5138 78.6135ZM56.0199 78.6482C55.1947 79.4734 55.2075 82.5288 56.0406 83.5875C56.7489 84.4884 57.786 84.562 58.5798 83.7682C59.0404 83.3076 59.1487 82.8201 59.1487 81.2082C59.1487 78.9816 58.6154 78.0793 57.2999 78.0793C56.9088 78.0793 56.3328 78.3353 56.0199 78.6482ZM63.7632 78.5222C63.206 78.9122 63.1309 79.2168 63.1309 81.0822C63.1309 82.8201 63.2327 83.3011 63.6998 83.7682C64.4607 84.529 65.2841 84.4852 66.1303 83.6387C66.7143 83.0551 66.8287 82.6651 66.8287 81.2594C66.8287 78.5913 65.4375 77.3492 63.7632 78.5222ZM82.3748 78.5996C81.6438 79.4074 81.712 83.0073 82.4729 83.7682C83.2338 84.529 84.0573 84.4852 84.9035 83.6387C85.8501 82.6924 85.9115 79.972 85.0121 78.8288C84.311 77.9371 83.0717 77.8293 82.3748 78.5996ZM90.001 78.6587C89.3342 79.3957 89.1175 82.1889 89.6491 83.1944C90.191 84.2193 91.3452 84.5529 92.2642 83.9511C92.9486 83.5025 92.9973 83.323 92.9973 81.2457C92.9973 79.4515 92.8966 78.9298 92.477 78.5501C91.7682 77.9084 90.635 77.9582 90.001 78.6587ZM97.5483 78.6482C96.7232 79.4734 96.736 82.5288 97.5691 83.5875C98.2918 84.5063 99.3119 84.5575 100.097 83.7144C100.563 83.2143 100.677 82.7112 100.677 81.1544C100.677 78.985 100.133 78.0793 98.8283 78.0793C98.4372 78.0793 97.8612 78.3353 97.5483 78.6482ZM14.3808 89.7067C13.9945 90.1334 13.9143 90.6892 13.9811 92.4701C14.0599 94.5681 14.1109 94.7251 14.847 95.1359C15.5501 95.5284 15.7083 95.5284 16.4114 95.1359C17.1476 94.7251 17.1985 94.5681 17.2773 92.4701C17.3717 89.9533 16.9814 89.1725 15.6292 89.1725C15.2082 89.1725 14.6465 89.4129 14.3808 89.7067ZM21.8579 89.6342C21.6474 89.8879 21.4255 90.9677 21.3655 92.0338C21.2651 93.8087 21.3172 94.0331 21.985 94.7009C22.8654 95.5813 23.5623 95.6245 24.3931 94.8503C24.9148 94.3645 25.0158 93.9591 25.0158 92.3537C25.0158 89.9869 24.5473 89.1725 23.1857 89.1725C22.6612 89.1725 22.0707 89.3779 21.8579 89.6342ZM29.4687 89.6928C28.7377 90.5006 28.8059 94.1005 29.5668 94.8614C30.3357 95.6302 31.1526 95.577 32.0287 94.7009C32.7008 94.0285 32.7489 93.8155 32.6445 91.9678C32.5566 90.4121 32.4104 89.8754 31.9903 89.5682C31.2345 89.0155 30.0276 89.075 29.4687 89.6928ZM48.5138 89.7067C48.1275 90.1334 48.0473 90.6892 48.1141 92.4701C48.1929 94.5681 48.2438 94.7251 48.98 95.1359C49.6831 95.5284 49.8412 95.5284 50.5444 95.1359C51.2805 94.7251 51.3314 94.5681 51.4102 92.4701C51.5047 89.9533 51.1144 89.1725 49.7622 89.1725C49.3412 89.1725 48.7794 89.4129 48.5138 89.7067ZM55.8939 89.8049C55.6063 90.215 55.451 91.0681 55.451 92.2354C55.451 93.7657 55.5551 94.138 56.1493 94.7319C57.0228 95.6055 57.7359 95.6174 58.5304 94.772C59.4002 93.8462 59.432 90.5936 58.5798 89.7414C57.8067 88.9683 56.4573 89.0002 55.8939 89.8049ZM63.6017 89.6928C62.8707 90.5006 62.9389 94.1005 63.6998 94.8614C64.4607 95.6223 65.2841 95.5784 66.1303 94.7319C66.7058 94.1568 66.8287 93.7532 66.8287 92.4379C66.8287 90.8778 66.4899 89.8097 65.8615 89.3901C65.2855 89.0056 64.0773 89.1671 63.6017 89.6928ZM82.3748 89.6928C81.6438 90.5006 81.712 94.1005 82.4729 94.8614C83.2338 95.6223 84.0573 95.5784 84.9035 94.7319C85.4789 94.1568 85.6018 93.7532 85.6018 92.4379C85.6018 90.8778 85.263 89.8097 84.6347 89.3901C84.0587 89.0056 82.8504 89.1671 82.3748 89.6928ZM90.0422 89.6083C89.0202 90.6303 89.1004 94.0663 90.1665 94.9296C90.9766 95.5855 91.7267 95.5631 92.4284 94.8614C93.2276 94.0621 93.2621 90.3538 92.477 89.6433C91.8248 89.0531 90.6148 89.0357 90.0422 89.6083ZM97.5483 89.7414C97.0952 90.1945 96.9794 90.6895 96.9794 92.172C96.9794 93.7697 97.0784 94.1329 97.6777 94.7319C98.0617 95.1159 98.5794 95.4303 98.8283 95.4303C99.0772 95.4303 99.5949 95.1159 99.9789 94.7319C100.578 94.1329 100.677 93.7697 100.677 92.172C100.677 90.0827 100.116 89.1725 98.8283 89.1725C98.4372 89.1725 97.8612 89.4285 97.5483 89.7414ZM14.3586 100.724C13.9974 101.085 13.918 101.668 13.9826 103.487C14.0605 105.669 14.1066 105.816 14.847 106.229C15.5501 106.622 15.7083 106.622 16.4114 106.229C17.1476 105.818 17.1985 105.661 17.2773 103.563C17.3441 101.782 17.2639 101.227 16.8776 100.8C16.2851 100.145 14.9767 100.105 14.3586 100.724ZM21.7609 100.898C21.4733 101.308 21.318 102.161 21.318 103.329C21.318 104.859 21.4221 105.231 22.0163 105.825C22.8679 106.677 23.2952 106.698 24.2663 105.934C24.9429 105.402 25.0158 105.159 25.0158 103.437C25.0158 101.069 24.5473 100.266 23.1669 100.266C22.4939 100.266 22.0701 100.456 21.7609 100.898ZM29.4687 100.786C28.8318 101.49 28.8008 105.148 29.4263 105.773C30.5137 106.861 32.2138 106.413 32.583 104.942C32.9113 103.635 32.5475 101.069 31.9743 100.65C31.2328 100.108 30.0231 100.173 29.4687 100.786ZM48.5024 100.713C48.1719 101.043 48.0555 101.743 48.0555 103.399C48.0555 105.39 48.1255 105.687 48.6878 106.081C49.5386 106.676 50.2164 106.638 50.8999 105.955C51.6992 105.155 51.7336 101.447 50.9486 100.737C50.2915 100.142 49.0852 100.13 48.5024 100.713ZM55.8939 100.898C55.6063 101.308 55.451 102.161 55.451 103.329C55.451 104.859 55.5551 105.231 56.1493 105.825C57.0009 106.677 57.4281 106.698 58.3992 105.934C59.0759 105.402 59.1487 105.159 59.1487 103.437C59.1487 101.069 58.6803 100.266 57.2999 100.266C56.6269 100.266 56.2031 100.456 55.8939 100.898ZM63.6017 100.786C63.0211 101.427 62.9375 105.024 63.4865 105.742C64.0764 106.515 65.2116 106.63 65.9932 105.997C66.6187 105.491 66.6864 105.223 66.6864 103.255C66.6864 101.423 66.5977 101.008 66.1343 100.669C65.3686 100.11 64.1637 100.165 63.6017 100.786ZM82.3748 100.786C81.7943 101.427 81.7106 105.024 82.2596 105.742C82.8495 106.515 83.9847 106.63 84.7664 105.997C85.3919 105.491 85.4596 105.223 85.4596 103.255C85.4596 101.423 85.3708 101.008 84.9075 100.669C84.1418 100.11 82.9369 100.165 82.3748 100.786ZM89.9938 100.669C89.5305 101.008 89.4417 101.423 89.4417 103.254C89.4417 105.222 89.5094 105.49 90.1349 105.997C90.9166 106.63 92.0515 106.515 92.6417 105.742C92.8496 105.47 92.9973 104.432 92.9973 103.242C92.9973 101.632 92.8886 101.109 92.477 100.737C91.839 100.159 90.7328 100.129 89.9938 100.669ZM97.4223 100.898C97.1347 101.308 96.9794 102.161 96.9794 103.329C96.9794 104.859 97.0835 105.231 97.6777 105.825C98.0617 106.209 98.5794 106.523 98.8283 106.523C99.0772 106.523 99.5949 106.209 99.9789 105.825C100.573 105.231 100.677 104.859 100.677 103.329C100.677 101.076 100.188 100.266 98.8283 100.266C98.1553 100.266 97.7315 100.456 97.4223 100.898ZM14.3694 111.806C14.0395 112.136 13.9226 112.834 13.9226 114.473C13.9226 116.961 14.2005 117.427 15.6847 117.427C16.9635 117.427 17.3359 116.724 17.3359 114.311C17.3359 111.991 16.9703 111.359 15.6292 111.359C15.1823 111.359 14.6155 111.56 14.3694 111.806ZM21.7609 111.991C21.4733 112.401 21.318 113.254 21.318 114.422C21.318 115.952 21.4221 116.324 22.0163 116.918C22.8679 117.77 23.2952 117.791 24.2663 117.027C24.9429 116.495 25.0158 116.252 25.0158 114.53C25.0158 112.163 24.5473 111.359 23.1669 111.359C22.4939 111.359 22.0701 111.55 21.7609 111.991ZM29.4812 111.865C29.122 112.262 28.9979 112.918 28.9979 114.418C28.9979 116.261 29.0634 116.489 29.7475 117.027C30.7185 117.791 31.1458 117.77 31.9974 116.918C32.5796 116.336 32.6951 115.946 32.6914 114.572C32.6857 112.335 32.2431 111.524 30.968 111.416C30.2685 111.357 29.818 111.493 29.4812 111.865ZM48.3499 111.909C47.8669 112.812 47.9762 116.628 48.4973 117.06C49.1566 117.608 50.6317 117.515 51.0825 116.899C51.6489 116.124 51.6042 112.388 51.022 111.806C50.3754 111.16 48.7168 111.224 48.3499 111.909ZM55.8939 111.991C55.6063 112.401 55.451 113.254 55.451 114.422C55.451 115.952 55.5551 116.324 56.1493 116.918C56.5333 117.302 57.051 117.617 57.2999 117.617C57.5488 117.617 58.0664 117.302 58.4504 116.918C59.0446 116.324 59.1487 115.952 59.1487 114.422C59.1487 112.169 58.6595 111.359 57.2999 111.359C56.6269 111.359 56.2031 111.55 55.8939 111.991ZM63.6017 111.879C62.9648 112.583 62.9338 116.241 63.5593 116.867C64.7551 118.062 66.3829 117.486 66.708 115.752C66.9532 114.445 66.7146 112.334 66.2598 111.786C65.766 111.191 64.174 111.247 63.6017 111.879ZM82.3748 111.879C81.7379 112.583 81.7069 116.241 82.3324 116.867C83.5282 118.062 85.1561 117.486 85.4812 115.752C85.7264 114.445 85.4877 112.334 85.0329 111.786C84.5391 111.191 82.9471 111.247 82.3748 111.879ZM89.8485 111.81C89.357 112.402 89.1675 115.271 89.5541 116.271C89.9352 117.257 91.0833 117.746 91.9491 117.29C92.8872 116.796 92.9882 116.508 92.993 114.319C92.9964 112.721 92.8889 112.202 92.477 111.83C91.8171 111.232 90.3372 111.221 89.8485 111.81ZM97.4223 111.991C97.1347 112.401 96.9794 113.254 96.9794 114.422C96.9794 115.952 97.0835 116.324 97.6777 116.918C98.0617 117.302 98.5794 117.617 98.8283 117.617C99.0772 117.617 99.5949 117.302 99.9789 116.918C100.573 116.324 100.677 115.952 100.677 114.422C100.677 112.169 100.188 111.359 98.8283 111.359C98.1553 111.359 97.7315 111.55 97.4223 111.991Z" fill="white"/>
<path fill-rule="evenodd" clip-rule="evenodd" d="M39.2378 1.27391C38.8752 1.50289 38.7898 3.14668 38.669 12.2278L38.5319 22.5227C38.5287 22.7607 38.3903 22.9762 38.1751 23.0779L22.0633 30.6954C13.0084 34.9762 5.3603 38.6839 5.06789 38.9342C4.55249 39.3754 4.53599 40.7598 4.53599 83.2991V126.654C4.53599 126.97 4.29912 127.236 3.98498 127.273L3.04267 127.383C1.98796 127.506 1.39803 127.742 1.03394 128.187C0.445719 128.905 0.58766 130.059 1.33489 130.63C1.70352 130.911 13.3096 130.985 57.1576 130.985C117.634 130.985 113.572 131.269 113.572 129.334C113.572 128.087 113.051 127.611 111.456 127.399L110.605 127.286C110.295 127.245 110.064 126.981 110.064 126.668V75.3942C110.064 23.637 110.063 23.573 109.484 22.9515C109.165 22.609 108.642 22.3288 108.322 22.3288C108.003 22.3288 100.722 25.6568 92.1439 29.7243C83.5655 33.7918 76.4721 37.1198 76.3811 37.1198C76.2897 37.1198 76.2132 34.2077 76.2109 30.6487C76.2081 26.0453 76.1043 23.9749 75.8514 23.4754C75.3738 22.5314 41.3802 0.994028 40.3776 1C39.9853 1.00256 39.4725 1.12572 39.2378 1.27391ZM57.4421 15.5779L72.086 24.8543C72.2661 24.9684 72.3754 25.1667 72.3757 25.38L72.4472 76.1628L72.518 126.664C72.5185 127.008 72.2393 127.288 71.8947 127.288H57.3007H42.7055C42.3613 127.288 42.0823 127.009 42.0823 126.664V66.7017C42.0823 33.3794 42.1781 6.11624 42.2956 6.11681C42.4131 6.11766 49.2288 10.3749 57.4421 15.5779ZM38.3845 77.0838V126.664C38.3845 127.009 38.1055 127.288 37.7612 127.288H23.166H8.57192C8.22727 127.288 7.94804 127.008 7.94862 126.663L8.01955 84.2884L8.09085 41.682C8.09125 41.4419 8.2295 41.2234 8.44628 41.1203L23.1669 34.1141C31.4584 30.168 38.2744 26.926 38.3134 26.9095C38.3524 26.8933 38.3845 49.4716 38.3845 77.0838ZM106.366 77.226V126.664C106.366 127.009 106.087 127.288 105.743 127.288H91.2906H76.8385C76.4943 127.288 76.2152 127.009 76.2152 126.664L76.2169 84.2659L76.2186 41.6387C76.2186 41.3978 76.3574 41.1784 76.5752 41.0753L91.079 34.2074C99.2521 30.3373 106.035 27.1695 106.153 27.1675C106.27 27.1658 106.366 49.6921 106.366 77.226ZM14.5549 45.527C13.9934 45.9201 13.9226 46.2182 13.9226 48.1851C13.9226 50.6313 14.3179 51.3418 15.6787 51.3418C16.9263 51.3418 17.3359 50.5494 17.3359 48.1356C17.3359 46.2199 17.2628 45.9187 16.7035 45.527C16.356 45.2835 15.8724 45.0841 15.6292 45.0841C15.386 45.0841 14.9025 45.2835 14.5549 45.527ZM21.985 45.8134C21.3129 46.4859 21.2648 46.6989 21.3692 48.5466C21.4941 50.7576 21.9074 51.3418 23.3472 51.3418C24.5345 51.3418 25.0158 50.4208 25.0158 48.1496C25.0158 46.6011 24.904 46.1101 24.4469 45.653C23.678 44.8842 22.8611 44.9374 21.985 45.8134ZM29.5668 45.653C29.1097 46.1101 28.9979 46.6011 28.9979 48.1496C28.9979 50.4114 29.4812 51.3441 30.6497 51.3376C32.1143 51.329 32.6957 50.4026 32.6957 48.0765C32.6957 46.7612 32.5728 46.3576 31.9974 45.7824C31.1512 44.9359 30.3277 44.8921 29.5668 45.653ZM48.6878 45.527C48.1263 45.9201 48.0555 46.2182 48.0555 48.1851C48.0555 50.6313 48.4509 51.3418 49.8117 51.3418C51.0592 51.3418 51.4688 50.5494 51.4688 48.1356C51.4688 46.2199 51.3957 45.9187 50.8365 45.527C50.4889 45.2835 50.0054 45.0841 49.7622 45.0841C49.519 45.0841 49.0354 45.2835 48.6878 45.527ZM56.0406 45.8336C55.5844 46.4136 55.451 46.9927 55.451 48.3936C55.451 50.4845 56.0253 51.3418 57.4259 51.3418C58.6703 51.3418 59.1487 50.4584 59.1487 48.1607C59.1487 46.5553 59.0478 46.1499 58.5261 45.6641C57.6768 44.8728 56.7463 44.9362 56.0406 45.8336ZM63.6998 45.653C63.2342 46.1186 63.1309 46.6011 63.1309 48.3111C63.1309 50.6117 63.5505 51.3458 64.86 51.3376C66.2427 51.3288 66.8287 50.3585 66.8287 48.0765C66.8287 46.7612 66.7058 46.3576 66.1303 45.7824C65.2841 44.9359 64.4607 44.8921 63.6998 45.653ZM82.4729 45.653C82.0073 46.1186 81.904 46.6011 81.904 48.3111C81.904 50.6117 82.3236 51.3458 83.6331 51.3376C85.0158 51.3288 85.6018 50.3585 85.6018 48.0765C85.6018 46.7612 85.4789 46.3576 84.9035 45.7824C84.0573 44.9359 83.2338 44.8921 82.4729 45.653ZM90.1133 45.628C89.5237 46.1053 89.4417 46.4136 89.4417 48.1581C89.4417 50.4205 89.9768 51.3418 91.2906 51.3418C92.5675 51.3418 92.9973 50.5662 92.9973 48.2616C92.9973 46.6011 92.8914 46.1161 92.4284 45.653C91.7139 44.9385 90.9746 44.9303 90.1133 45.628ZM97.5691 45.8336C97.1128 46.4136 96.9794 46.9927 96.9794 48.3936C96.9794 50.4845 97.5537 51.3418 98.9543 51.3418C100.192 51.3418 100.677 50.4564 100.677 48.1993C100.677 46.6039 100.578 46.2279 100.019 45.7025C99.1398 44.8768 98.2856 44.9226 97.5691 45.8336ZM14.5549 56.3358C13.9934 56.7289 13.9226 57.027 13.9226 58.9939C13.9226 61.4401 14.3179 62.1506 15.6787 62.1506C16.9263 62.1506 17.3359 61.3582 17.3359 58.9444C17.3359 57.0287 17.2628 56.7275 16.7035 56.3358C16.356 56.0923 15.8724 55.8929 15.6292 55.8929C15.386 55.8929 14.9025 56.0923 14.5549 56.3358ZM21.8804 56.6751C21.3522 57.345 21.2793 57.7372 21.3729 59.4083C21.491 61.5126 21.9208 62.1506 23.2212 62.1506C24.4827 62.1506 25.0158 61.2213 25.0158 59.0218C25.0158 57.4098 24.9074 56.9223 24.4469 56.4618C23.6416 55.6565 22.6162 55.7419 21.8804 56.6751ZM29.5668 56.4618C29.1097 56.9189 28.9979 57.4098 28.9979 58.9583C28.9979 61.2202 29.4812 62.1529 30.6497 62.1463C32.1046 62.1381 32.6957 61.2108 32.6957 58.9367C32.6957 56.3534 31.0092 55.0194 29.5668 56.4618ZM48.6878 56.3358C48.1263 56.7289 48.0555 57.027 48.0555 58.9939C48.0555 61.4401 48.4509 62.1506 49.8117 62.1506C51.0592 62.1506 51.4688 61.3582 51.4688 58.9444C51.4688 57.0287 51.3957 56.7275 50.8365 56.3358C50.4889 56.0923 50.0054 55.8929 49.7622 55.8929C49.519 55.8929 49.0354 56.0923 48.6878 56.3358ZM56.0406 56.6424C55.5844 57.2224 55.451 57.8015 55.451 59.2024C55.451 61.2376 56.0236 62.1506 57.2999 62.1506C58.6154 62.1506 59.1487 61.2484 59.1487 59.0218C59.1487 57.4098 59.0404 56.9223 58.5798 56.4618C57.786 55.6679 56.7489 55.7416 56.0406 56.6424ZM63.6998 56.4618C63.2342 56.9274 63.1309 57.4098 63.1309 59.1199C63.1309 61.4418 63.547 62.1506 64.9104 62.1506C66.0982 62.1506 66.8287 60.9594 66.8287 59.0218C66.8287 56.3534 65.1675 54.9941 63.6998 56.4618ZM82.4729 56.4618C82.0073 56.9274 81.904 57.4098 81.904 59.1199C81.904 61.4418 82.3202 62.1506 83.6835 62.1506C84.8713 62.1506 85.6018 60.9594 85.6018 59.0218C85.6018 56.3534 83.9406 54.9941 82.4729 56.4618ZM90.1133 56.4368C89.5237 56.914 89.4417 57.2224 89.4417 58.9669C89.4417 61.2293 89.9768 62.1506 91.2906 62.1506C92.5885 62.1506 92.9973 61.3826 92.9973 58.9444C92.9973 57.0287 92.9241 56.7275 92.3649 56.3358C91.5293 55.7501 90.9277 55.7771 90.1133 56.4368ZM97.5483 56.4618C97.0878 56.9223 96.9794 57.4098 96.9794 59.0218C96.9794 61.2484 97.5128 62.1506 98.8283 62.1506C100.144 62.1506 100.677 61.2484 100.677 59.0218C100.677 56.7952 100.144 55.8929 98.8283 55.8929C98.4372 55.8929 97.8612 56.1489 97.5483 56.4618ZM14.3933 67.5064C14.0432 67.8932 13.9226 68.5742 13.9226 70.1645C13.9226 72.5279 14.3307 73.2438 15.6787 73.2438C16.9263 73.2438 17.3359 72.4514 17.3359 70.0376C17.3359 68.1219 17.2628 67.8207 16.7035 67.429C15.8622 66.8394 14.9696 66.8695 14.3933 67.5064ZM22.2851 67.2037C21.1693 67.9487 20.9335 71.2559 21.9077 72.4943C22.6159 73.3951 23.653 73.4688 24.4469 72.6749C24.9074 72.2144 25.0158 71.7269 25.0158 70.115C25.0158 68.503 24.9074 68.0155 24.4469 67.555C23.8735 66.9816 22.8634 66.8175 22.2851 67.2037ZM29.5668 67.555C29.1063 68.0155 28.9979 68.503 28.9979 70.115C28.9979 71.7269 29.1063 72.2144 29.5668 72.6749C31.0345 74.1427 32.6957 72.7833 32.6957 70.115C32.6957 67.4466 31.0345 66.0873 29.5668 67.555ZM48.5263 67.5064C48.1761 67.8932 48.0555 68.5742 48.0555 70.1645C48.0555 72.5279 48.4637 73.2438 49.8117 73.2438C51.0592 73.2438 51.4688 72.4514 51.4688 70.0376C51.4688 68.1219 51.3957 67.8207 50.8365 67.429C49.9951 66.8394 49.1025 66.8695 48.5263 67.5064ZM56.1723 67.3701C55.6023 67.7868 55.2348 70.3525 55.5597 71.6464C55.9542 73.2185 57.5075 73.7473 58.5798 72.6749C59.0404 72.2144 59.1487 71.7269 59.1487 70.115C59.1487 68.503 59.0404 68.0155 58.5798 67.555C57.9211 66.8962 56.925 66.82 56.1723 67.3701ZM63.6017 67.5064C62.8707 68.3142 62.9389 71.9141 63.6998 72.6749C65.1675 74.1427 66.8287 72.7833 66.8287 70.115C66.8287 68.8967 66.6799 68.2957 66.239 67.7356C65.5379 66.8439 64.2985 66.7361 63.6017 67.5064ZM82.5364 67.429C81.9791 67.819 81.904 68.1236 81.904 69.989C81.904 71.7269 82.0059 72.2079 82.4729 72.6749C83.9406 74.1427 85.6018 72.7833 85.6018 70.115C85.6018 67.4995 84.1952 66.2671 82.5364 67.429ZM89.9836 67.5849C89.5626 68.0499 89.4417 68.6148 89.4417 70.115C89.4417 71.6151 89.5626 72.18 89.9836 72.6451C90.6262 73.3551 91.4931 73.4119 92.3649 72.801C92.9276 72.407 92.9973 72.1106 92.9973 70.115C92.9973 68.1193 92.9276 67.823 92.3649 67.429C91.4931 66.818 90.6262 66.8749 89.9836 67.5849ZM97.5483 67.555C97.0878 68.0155 96.9794 68.503 96.9794 70.115C96.9794 72.3416 97.5128 73.2438 98.8283 73.2438C100.144 73.2438 100.677 72.3416 100.677 70.115C100.677 67.8884 100.144 66.9861 98.8283 66.9861C98.4372 66.9861 97.8612 67.2421 97.5483 67.555ZM14.3808 78.6135C13.9945 79.0402 13.9143 79.596 13.9811 81.3769C14.0599 83.4749 14.1109 83.6319 14.847 84.0427C15.5501 84.4352 15.7083 84.4352 16.4114 84.0427C17.1476 83.6319 17.1985 83.4749 17.2773 81.3769C17.3717 78.8601 16.9814 78.0793 15.6292 78.0793C15.2082 78.0793 14.6465 78.3197 14.3808 78.6135ZM22.0234 78.475C21.6056 78.7805 21.4574 79.3155 21.3729 80.8216C21.2793 82.4927 21.3522 82.885 21.8804 83.5548C22.6162 84.4881 23.6416 84.5734 24.4469 83.7682C24.9074 83.3076 25.0158 82.8201 25.0158 81.2082C25.0158 79.5963 24.9074 79.1087 24.4469 78.6482C23.7836 77.9849 22.7909 77.9138 22.0234 78.475ZM29.5668 78.6482C29.1063 79.1087 28.9979 79.5963 28.9979 81.2082C28.9979 82.8201 29.1063 83.3076 29.5668 83.7682C30.3607 84.562 31.3978 84.4884 32.106 83.5875C33.0802 82.3491 32.8444 79.0419 31.7286 78.2969C31.1503 77.9107 30.1403 78.0748 29.5668 78.6482ZM48.5138 78.6135C48.1275 79.0402 48.0473 79.596 48.1141 81.3769C48.1929 83.4749 48.2438 83.6319 48.98 84.0427C49.6831 84.4352 49.8412 84.4352 50.5444 84.0427C51.2805 83.6319 51.3314 83.4749 51.4102 81.3769C51.5047 78.8601 51.1144 78.0793 49.7622 78.0793C49.3412 78.0793 48.7794 78.3197 48.5138 78.6135ZM56.0199 78.6482C55.1947 79.4734 55.2075 82.5288 56.0406 83.5875C56.7489 84.4884 57.786 84.562 58.5798 83.7682C59.0404 83.3076 59.1487 82.8201 59.1487 81.2082C59.1487 78.9816 58.6154 78.0793 57.2999 78.0793C56.9088 78.0793 56.3328 78.3353 56.0199 78.6482ZM63.7632 78.5222C63.206 78.9122 63.1309 79.2168 63.1309 81.0822C63.1309 82.8201 63.2327 83.3011 63.6998 83.7682C64.4607 84.529 65.2841 84.4852 66.1303 83.6387C66.7143 83.0551 66.8287 82.6651 66.8287 81.2594C66.8287 78.5913 65.4375 77.3492 63.7632 78.5222ZM82.3748 78.5996C81.6438 79.4074 81.712 83.0073 82.4729 83.7682C83.2338 84.529 84.0573 84.4852 84.9035 83.6387C85.8501 82.6924 85.9115 79.972 85.0121 78.8288C84.311 77.9371 83.0717 77.8293 82.3748 78.5996ZM90.001 78.6587C89.3342 79.3957 89.1175 82.1889 89.6491 83.1944C90.191 84.2193 91.3452 84.5529 92.2642 83.9511C92.9486 83.5025 92.9973 83.323 92.9973 81.2457C92.9973 79.4515 92.8966 78.9298 92.477 78.5501C91.7682 77.9084 90.635 77.9582 90.001 78.6587ZM97.5483 78.6482C96.7232 79.4734 96.736 82.5288 97.5691 83.5875C98.2918 84.5063 99.3119 84.5575 100.097 83.7144C100.563 83.2143 100.677 82.7112 100.677 81.1544C100.677 78.985 100.133 78.0793 98.8283 78.0793C98.4372 78.0793 97.8612 78.3353 97.5483 78.6482ZM14.3808 89.7067C13.9945 90.1334 13.9143 90.6892 13.9811 92.4701C14.0599 94.5681 14.1109 94.7251 14.847 95.1359C15.5501 95.5284 15.7083 95.5284 16.4114 95.1359C17.1476 94.7251 17.1985 94.5681 17.2773 92.4701C17.3717 89.9533 16.9814 89.1725 15.6292 89.1725C15.2082 89.1725 14.6465 89.4129 14.3808 89.7067ZM21.8579 89.6342C21.6474 89.8879 21.4255 90.9677 21.3655 92.0338C21.2651 93.8087 21.3172 94.0331 21.985 94.7009C22.8654 95.5813 23.5623 95.6245 24.3931 94.8503C24.9148 94.3645 25.0158 93.9591 25.0158 92.3537C25.0158 89.9869 24.5473 89.1725 23.1857 89.1725C22.6612 89.1725 22.0707 89.3779 21.8579 89.6342ZM29.4687 89.6928C28.7377 90.5006 28.8059 94.1005 29.5668 94.8614C30.3357 95.6302 31.1526 95.577 32.0287 94.7009C32.7008 94.0285 32.7489 93.8155 32.6445 91.9678C32.5566 90.4121 32.4104 89.8754 31.9903 89.5682C31.2345 89.0155 30.0276 89.075 29.4687 89.6928ZM48.5138 89.7067C48.1275 90.1334 48.0473 90.6892 48.1141 92.4701C48.1929 94.5681 48.2438 94.7251 48.98 95.1359C49.6831 95.5284 49.8412 95.5284 50.5444 95.1359C51.2805 94.7251 51.3314 94.5681 51.4102 92.4701C51.5047 89.9533 51.1144 89.1725 49.7622 89.1725C49.3412 89.1725 48.7794 89.4129 48.5138 89.7067ZM55.8939 89.8049C55.6063 90.215 55.451 91.0681 55.451 92.2354C55.451 93.7657 55.5551 94.138 56.1493 94.7319C57.0228 95.6055 57.7359 95.6174 58.5304 94.772C59.4002 93.8462 59.432 90.5936 58.5798 89.7414C57.8067 88.9683 56.4573 89.0002 55.8939 89.8049ZM63.6017 89.6928C62.8707 90.5006 62.9389 94.1005 63.6998 94.8614C64.4607 95.6223 65.2841 95.5784 66.1303 94.7319C66.7058 94.1568 66.8287 93.7532 66.8287 92.4379C66.8287 90.8778 66.4899 89.8097 65.8615 89.3901C65.2855 89.0056 64.0773 89.1671 63.6017 89.6928ZM82.3748 89.6928C81.6438 90.5006 81.712 94.1005 82.4729 94.8614C83.2338 95.6223 84.0573 95.5784 84.9035 94.7319C85.4789 94.1568 85.6018 93.7532 85.6018 92.4379C85.6018 90.8778 85.263 89.8097 84.6347 89.3901C84.0587 89.0056 82.8504 89.1671 82.3748 89.6928ZM90.0422 89.6083C89.0202 90.6303 89.1004 94.0663 90.1665 94.9296C90.9766 95.5855 91.7267 95.5631 92.4284 94.8614C93.2276 94.0621 93.2621 90.3538 92.477 89.6433C91.8248 89.0531 90.6148 89.0357 90.0422 89.6083ZM97.5483 89.7414C97.0952 90.1945 96.9794 90.6895 96.9794 92.172C96.9794 93.7697 97.0784 94.1329 97.6777 94.7319C98.0617 95.1159 98.5794 95.4303 98.8283 95.4303C99.0772 95.4303 99.5949 95.1159 99.9789 94.7319C100.578 94.1329 100.677 93.7697 100.677 92.172C100.677 90.0827 100.116 89.1725 98.8283 89.1725C98.4372 89.1725 97.8612 89.4285 97.5483 89.7414ZM14.3586 100.724C13.9974 101.085 13.918 101.668 13.9826 103.487C14.0605 105.669 14.1066 105.816 14.847 106.229C15.5501 106.622 15.7083 106.622 16.4114 106.229C17.1476 105.818 17.1985 105.661 17.2773 103.563C17.3441 101.782 17.2639 101.227 16.8776 100.8C16.2851 100.145 14.9767 100.105 14.3586 100.724ZM21.7609 100.898C21.4733 101.308 21.318 102.161 21.318 103.329C21.318 104.859 21.4221 105.231 22.0163 105.825C22.8679 106.677 23.2952 106.698 24.2663 105.934C24.9429 105.402 25.0158 105.159 25.0158 103.437C25.0158 101.069 24.5473 100.266 23.1669 100.266C22.4939 100.266 22.0701 100.456 21.7609 100.898ZM29.4687 100.786C28.8318 101.49 28.8008 105.148 29.4263 105.773C30.5137 106.861 32.2138 106.413 32.583 104.942C32.9113 103.635 32.5475 101.069 31.9743 100.65C31.2328 100.108 30.0231 100.173 29.4687 100.786ZM48.5024 100.713C48.1719 101.043 48.0555 101.743 48.0555 103.399C48.0555 105.39 48.1255 105.687 48.6878 106.081C49.5386 106.676 50.2164 106.638 50.8999 105.955C51.6992 105.155 51.7336 101.447 50.9486 100.737C50.2915 100.142 49.0852 100.13 48.5024 100.713ZM55.8939 100.898C55.6063 101.308 55.451 102.161 55.451 103.329C55.451 104.859 55.5551 105.231 56.1493 105.825C57.0009 106.677 57.4281 106.698 58.3992 105.934C59.0759 105.402 59.1487 105.159 59.1487 103.437C59.1487 101.069 58.6803 100.266 57.2999 100.266C56.6269 100.266 56.2031 100.456 55.8939 100.898ZM63.6017 100.786C63.0211 101.427 62.9375 105.024 63.4865 105.742C64.0764 106.515 65.2116 106.63 65.9932 105.997C66.6187 105.491 66.6864 105.223 66.6864 103.255C66.6864 101.423 66.5977 101.008 66.1343 100.669C65.3686 100.11 64.1637 100.165 63.6017 100.786ZM82.3748 100.786C81.7943 101.427 81.7106 105.024 82.2596 105.742C82.8495 106.515 83.9847 106.63 84.7664 105.997C85.3919 105.491 85.4596 105.223 85.4596 103.255C85.4596 101.423 85.3708 101.008 84.9075 100.669C84.1418 100.11 82.9369 100.165 82.3748 100.786ZM89.9938 100.669C89.5305 101.008 89.4417 101.423 89.4417 103.254C89.4417 105.222 89.5094 105.49 90.1349 105.997C90.9166 106.63 92.0515 106.515 92.6417 105.742C92.8496 105.47 92.9973 104.432 92.9973 103.242C92.9973 101.632 92.8886 101.109 92.477 100.737C91.839 100.159 90.7328 100.129 89.9938 100.669ZM97.4223 100.898C97.1347 101.308 96.9794 102.161 96.9794 103.329C96.9794 104.859 97.0835 105.231 97.6777 105.825C98.0617 106.209 98.5794 106.523 98.8283 106.523C99.0772 106.523 99.5949 106.209 99.9789 105.825C100.573 105.231 100.677 104.859 100.677 103.329C100.677 101.076 100.188 100.266 98.8283 100.266C98.1553 100.266 97.7315 100.456 97.4223 100.898ZM14.3694 111.806C14.0395 112.136 13.9226 112.834 13.9226 114.473C13.9226 116.961 14.2005 117.427 15.6847 117.427C16.9635 117.427 17.3359 116.724 17.3359 114.311C17.3359 111.991 16.9703 111.359 15.6292 111.359C15.1823 111.359 14.6155 111.56 14.3694 111.806ZM21.7609 111.991C21.4733 112.401 21.318 113.254 21.318 114.422C21.318 115.952 21.4221 116.324 22.0163 116.918C22.8679 117.77 23.2952 117.791 24.2663 117.027C24.9429 116.495 25.0158 116.252 25.0158 114.53C25.0158 112.163 24.5473 111.359 23.1669 111.359C22.4939 111.359 22.0701 111.55 21.7609 111.991ZM29.4812 111.865C29.122 112.262 28.9979 112.918 28.9979 114.418C28.9979 116.261 29.0634 116.489 29.7475 117.027C30.7185 117.791 31.1458 117.77 31.9974 116.918C32.5796 116.336 32.6951 115.946 32.6914 114.572C32.6857 112.335 32.2431 111.524 30.968 111.416C30.2685 111.357 29.818 111.493 29.4812 111.865ZM48.3499 111.909C47.8669 112.812 47.9762 116.628 48.4973 117.06C49.1566 117.608 50.6317 117.515 51.0825 116.899C51.6489 116.124 51.6042 112.388 51.022 111.806C50.3754 111.16 48.7168 111.224 48.3499 111.909ZM55.8939 111.991C55.6063 112.401 55.451 113.254 55.451 114.422C55.451 115.952 55.5551 116.324 56.1493 116.918C56.5333 117.302 57.051 117.617 57.2999 117.617C57.5488 117.617 58.0664 117.302 58.4504 116.918C59.0446 116.324 59.1487 115.952 59.1487 114.422C59.1487 112.169 58.6595 111.359 57.2999 111.359C56.6269 111.359 56.2031 111.55 55.8939 111.991ZM63.6017 111.879C62.9648 112.583 62.9338 116.241 63.5593 116.867C64.7551 118.062 66.3829 117.486 66.708 115.752C66.9532 114.445 66.7146 112.334 66.2598 111.786C65.766 111.191 64.174 111.247 63.6017 111.879ZM82.3748 111.879C81.7379 112.583 81.7069 116.241 82.3324 116.867C83.5282 118.062 85.1561 117.486 85.4812 115.752C85.7264 114.445 85.4877 112.334 85.0329 111.786C84.5391 111.191 82.9471 111.247 82.3748 111.879ZM89.8485 111.81C89.357 112.402 89.1675 115.271 89.5541 116.271C89.9352 117.257 91.0833 117.746 91.9491 117.29C92.8872 116.796 92.9882 116.508 92.993 114.319C92.9964 112.721 92.8889 112.202 92.477 111.83C91.8171 111.232 90.3372 111.221 89.8485 111.81ZM97.4223 111.991C97.1347 112.401 96.9794 113.254 96.9794 114.422C96.9794 115.952 97.0835 116.324 97.6777 116.918C98.0617 117.302 98.5794 117.617 98.8283 117.617C99.0772 117.617 99.5949 117.302 99.9789 116.918C100.573 116.324 100.677 115.952 100.677 114.422C100.677 112.169 100.188 111.359 98.8283 111.359C98.1553 111.359 97.7315 111.55 97.4223 111.991Z" stroke="white" stroke-width="0.623296" mask="url(#path-1-outside-1_706_366)"/>
</svg>
