<svg width="151" height="130" viewBox="0 0 151 130" fill="none" xmlns="http://www.w3.org/2000/svg">
<mask id="path-1-inside-1_706_363" fill="white">
<path fill-rule="evenodd" clip-rule="evenodd" d="M71.5662 0.195634C66.3531 0.881282 61.9 2.56968 57.4188 5.55986C54.6715 7.3932 50.6394 11.4689 48.8347 14.2369C42.3163 24.235 41.5303 36.4589 46.7311 46.9575C50.6028 54.773 57.2675 60.6152 65.3955 63.3181L67.3521 63.9688V67.1761V70.3833L66.2985 70.5088C63.9435 70.7891 61.1052 72.8434 60.1993 74.9231C60.0071 75.3642 59.7544 75.7313 59.6379 75.7386C59.5211 75.7459 58.6229 75.7403 57.6418 75.7258C56.6607 75.7114 54.5904 75.7646 53.0408 75.8443L50.2238 75.9893L49.5068 76.6544C48.7932 77.3167 48.7896 77.3287 48.7203 79.2667L48.6509 81.2137L32.3657 81.2132L16.0806 81.2126L15.5087 80.104C14.8198 78.7682 13.4105 77.3874 11.9433 76.6103C10.943 76.0803 10.6924 76.0377 8.55542 76.0342C6.40242 76.0307 6.16864 76.0704 5.06735 76.6257C3.48928 77.4218 2.02197 78.9471 1.25279 80.5912L0.628906 81.9251V102.964V124.003L1.16711 125.166C2.63401 128.335 5.8307 130.221 9.24653 129.932C11.8675 129.709 14.4471 127.933 15.5789 125.572L16.0806 124.525L32.3349 124.569L48.5893 124.613L48.6896 126.442C48.8014 128.479 49.0204 129.025 49.9567 129.603C50.5806 129.989 51.193 129.998 75.3388 129.999C102.427 130 100.757 130.075 101.643 128.814C101.966 128.354 102.064 127.854 102.11 126.423L102.169 124.613L118.423 124.564L134.677 124.516L135.179 125.56C136.797 128.929 140.868 130.74 144.423 129.673C146.675 128.997 148.591 127.326 149.591 125.166L150.129 124.003V102.964V81.9251L149.657 80.7404C149.049 79.2124 147.34 77.4291 145.714 76.6253C144.605 76.0773 144.336 76.0301 142.303 76.0301C140.317 76.0301 139.978 76.0858 138.923 76.5863C137.541 77.2423 135.656 79.0998 135.098 80.3544L134.717 81.2137H118.412H102.107L102.037 79.2667L101.968 77.3197L101.218 76.6241L100.469 75.9285H95.7679H91.067L90.6115 74.9629C90.3608 74.432 89.6011 73.4422 88.9232 72.7637C87.9425 71.7823 87.3939 71.4186 86.239 70.985C85.4408 70.6854 84.4765 70.4401 84.0967 70.4401H83.4058V67.2224V64.005L85.2746 63.3795C93.4949 60.6288 100.285 54.6919 104.052 46.9618C109.179 36.4415 108.485 24.4567 102.18 14.641C97.3745 7.15944 89.4775 1.92815 80.6985 0.410901C78.1004 -0.0381342 74.0663 -0.133265 71.5662 0.195634ZM81.1984 5.97231C87.6788 7.49932 93.4732 11.4219 97.3068 16.877C98.8482 19.0704 100.574 22.8255 101.263 25.4833C102.072 28.6086 102.331 33.3535 101.864 36.4931C101.037 42.0474 98.4697 47.259 94.5723 51.2986C90.9353 55.0682 87.0114 57.3684 81.8004 58.7859C79.7939 59.3319 79.4874 59.3589 75.3789 59.3542C71.3053 59.3498 70.9479 59.3179 68.9765 58.7849C63.7408 57.3695 59.5951 54.9143 55.9953 51.0972C51.2229 46.0369 48.6896 39.5629 48.6896 32.4276C48.6896 19.2805 57.8433 8.17764 70.6631 5.77473C73.3383 5.27325 78.6549 5.37285 81.1984 5.97231ZM72.4692 10.9946C72.2484 11.0459 71.5712 11.1896 70.9641 11.3142C62.7549 12.9997 56.2415 19.6044 54.5113 27.9974C54.0466 30.2517 53.942 32.7516 54.2781 33.5716C54.8699 35.0155 56.9705 35.5422 58.2364 34.5642C59.009 33.9674 59.2494 33.2734 59.4011 31.2018C59.8801 24.6655 64.2298 19.1141 70.5628 16.9565C72.3428 16.3501 72.6554 16.3068 75.2786 16.3034C77.7591 16.3003 78.2949 16.3637 79.8553 16.8451C83.3054 17.9093 85.6782 19.5529 88.1177 22.5687C89.9775 24.868 91.4197 28.8768 91.4292 31.7734C91.431 32.3639 91.5578 33.1508 91.7109 33.5218C92.5993 35.6759 95.8353 35.5643 96.5848 33.3539C96.8013 32.715 96.8138 32.1271 96.646 30.4556C95.991 23.9341 92.5036 17.9788 87.3094 14.5125C85.0031 12.9733 83.3142 12.2204 80.2953 11.3851C79.1297 11.0627 73.4081 10.7773 72.4692 10.9946ZM82.0673 22.0483C81.5883 22.3443 80.4434 24.113 77.4296 29.2132C75.2288 32.9376 73.2801 36.2776 73.0991 36.6354C71.9013 39.0046 74.4827 41.5445 76.6979 40.1762C77.3254 39.7886 77.8648 38.9531 82.2268 31.6145C85.6739 25.8148 85.8565 25.4711 85.9613 24.5844C86.2155 22.4283 83.897 20.9181 82.0673 22.0483ZM78.1883 67.6958V70.4401H75.4792H72.7702V67.6958V64.9516H75.4792H78.1883V67.6958ZM84.5464 76.1202C85.4945 76.5564 85.8971 77.2012 86.099 78.6077C86.174 79.1307 86.4194 79.7958 86.6444 80.0855C87.4625 81.1391 87.8518 81.2137 92.5273 81.2137H96.8525L96.8016 102.913L96.7504 124.613H75.3789H54.0074L53.9563 102.913L53.9053 81.2137L58.2707 81.2128C62.244 81.2122 62.6939 81.1765 63.2776 80.816C64.1421 80.282 64.5282 79.6318 64.7235 78.3806C64.9103 77.1829 65.659 76.231 66.6421 75.9415C66.9774 75.8427 70.9541 75.7557 75.4792 75.748C83.1501 75.7352 83.7636 75.7602 84.5464 76.1202ZM9.70266 81.5531C10.091 81.7397 10.5784 82.1743 10.7857 82.5187C11.1477 83.12 11.1627 83.9288 11.1627 102.862C11.1627 122.049 11.1521 122.598 10.7716 123.23C10.2108 124.162 9.48091 124.578 8.43441 124.561C7.26911 124.544 6.24649 123.787 5.95612 122.729C5.81947 122.23 5.74802 115.388 5.74742 102.761C5.74662 81.333 5.65873 82.6707 7.13025 81.6751C7.93996 81.1273 8.73783 81.0894 9.70266 81.5531ZM143.628 81.6751C145.1 82.6713 145.011 81.3094 145.011 102.964C145.011 121.045 144.987 122.425 144.66 123.074C144.151 124.086 143.386 124.579 142.326 124.579C141.284 124.579 140.54 124.15 139.986 123.23C139.606 122.598 139.595 122.05 139.596 102.964C139.596 85.7656 139.634 83.2747 139.903 82.7524C140.654 81.2935 142.342 80.8053 143.628 81.6751ZM48.6407 102.913L48.5893 119.124L32.5858 119.177L16.5823 119.229V102.965V86.7021H32.6372H48.6921L48.6407 102.913ZM74.2752 86.9897C72.7708 87.6684 66.6058 94.9268 64.3978 98.6187C61.8737 102.839 61.4489 106.582 63.0302 110.669C64.2459 113.812 67.2547 116.906 70.1938 118.038C71.3938 118.5 71.8134 118.506 72.7048 118.078C73.9417 117.483 74.0547 117.11 74.0721 113.557C74.087 110.575 74.1221 110.295 74.6563 108.91C74.9689 108.099 75.294 107.436 75.3789 107.436C75.4638 107.436 75.7879 108.099 76.0993 108.91C76.6283 110.286 76.6678 110.597 76.6985 113.606L76.7316 116.829L77.428 117.534C78.4905 118.611 79.4236 118.661 81.255 117.74C83.8494 116.436 86.1022 114.155 87.4152 111.502C88.8016 108.702 89.0865 105.016 88.1227 102.354C86.6797 98.3701 84.0742 94.6601 78.7903 89.067C76.6064 86.7551 75.7096 86.3425 74.2752 86.9897ZM134.176 102.965V119.229L118.172 119.177L102.169 119.124L102.117 102.913L102.066 86.7021H118.121H134.176V102.965ZM78.9013 97.2724C80.797 99.6595 81.491 100.699 82.4299 102.558C83.2476 104.176 83.3026 104.388 83.298 105.912C83.2942 107.172 83.1814 107.809 82.7975 108.742C82.2013 110.192 81.8917 110.364 81.7514 109.324C81.3984 106.706 78.7151 102.04 76.7684 100.659C76.1423 100.215 74.6087 100.219 73.977 100.668C72.1914 101.935 69.8823 105.789 69.2299 108.593C69.0397 109.41 68.8226 110.079 68.7475 110.079C68.6723 110.079 68.3536 109.507 68.0392 108.808C67.5616 107.747 67.4676 107.27 67.4698 105.912C67.4721 104.429 67.5403 104.151 68.242 102.761C69.5291 100.212 71.9573 96.8738 74.3228 94.4013L75.4166 93.2581L76.5534 94.503C77.1789 95.1876 78.2353 96.4339 78.9013 97.2724Z"/>
</mask>
<path fill-rule="evenodd" clip-rule="evenodd" d="M71.5662 0.195634C66.3531 0.881282 61.9 2.56968 57.4188 5.55986C54.6715 7.3932 50.6394 11.4689 48.8347 14.2369C42.3163 24.235 41.5303 36.4589 46.7311 46.9575C50.6028 54.773 57.2675 60.6152 65.3955 63.3181L67.3521 63.9688V67.1761V70.3833L66.2985 70.5088C63.9435 70.7891 61.1052 72.8434 60.1993 74.9231C60.0071 75.3642 59.7544 75.7313 59.6379 75.7386C59.5211 75.7459 58.6229 75.7403 57.6418 75.7258C56.6607 75.7114 54.5904 75.7646 53.0408 75.8443L50.2238 75.9893L49.5068 76.6544C48.7932 77.3167 48.7896 77.3287 48.7203 79.2667L48.6509 81.2137L32.3657 81.2132L16.0806 81.2126L15.5087 80.104C14.8198 78.7682 13.4105 77.3874 11.9433 76.6103C10.943 76.0803 10.6924 76.0377 8.55542 76.0342C6.40242 76.0307 6.16864 76.0704 5.06735 76.6257C3.48928 77.4218 2.02197 78.9471 1.25279 80.5912L0.628906 81.9251V102.964V124.003L1.16711 125.166C2.63401 128.335 5.8307 130.221 9.24653 129.932C11.8675 129.709 14.4471 127.933 15.5789 125.572L16.0806 124.525L32.3349 124.569L48.5893 124.613L48.6896 126.442C48.8014 128.479 49.0204 129.025 49.9567 129.603C50.5806 129.989 51.193 129.998 75.3388 129.999C102.427 130 100.757 130.075 101.643 128.814C101.966 128.354 102.064 127.854 102.11 126.423L102.169 124.613L118.423 124.564L134.677 124.516L135.179 125.56C136.797 128.929 140.868 130.74 144.423 129.673C146.675 128.997 148.591 127.326 149.591 125.166L150.129 124.003V102.964V81.9251L149.657 80.7404C149.049 79.2124 147.34 77.4291 145.714 76.6253C144.605 76.0773 144.336 76.0301 142.303 76.0301C140.317 76.0301 139.978 76.0858 138.923 76.5863C137.541 77.2423 135.656 79.0998 135.098 80.3544L134.717 81.2137H118.412H102.107L102.037 79.2667L101.968 77.3197L101.218 76.6241L100.469 75.9285H95.7679H91.067L90.6115 74.9629C90.3608 74.432 89.6011 73.4422 88.9232 72.7637C87.9425 71.7823 87.3939 71.4186 86.239 70.985C85.4408 70.6854 84.4765 70.4401 84.0967 70.4401H83.4058V67.2224V64.005L85.2746 63.3795C93.4949 60.6288 100.285 54.6919 104.052 46.9618C109.179 36.4415 108.485 24.4567 102.18 14.641C97.3745 7.15944 89.4775 1.92815 80.6985 0.410901C78.1004 -0.0381342 74.0663 -0.133265 71.5662 0.195634ZM81.1984 5.97231C87.6788 7.49932 93.4732 11.4219 97.3068 16.877C98.8482 19.0704 100.574 22.8255 101.263 25.4833C102.072 28.6086 102.331 33.3535 101.864 36.4931C101.037 42.0474 98.4697 47.259 94.5723 51.2986C90.9353 55.0682 87.0114 57.3684 81.8004 58.7859C79.7939 59.3319 79.4874 59.3589 75.3789 59.3542C71.3053 59.3498 70.9479 59.3179 68.9765 58.7849C63.7408 57.3695 59.5951 54.9143 55.9953 51.0972C51.2229 46.0369 48.6896 39.5629 48.6896 32.4276C48.6896 19.2805 57.8433 8.17764 70.6631 5.77473C73.3383 5.27325 78.6549 5.37285 81.1984 5.97231ZM72.4692 10.9946C72.2484 11.0459 71.5712 11.1896 70.9641 11.3142C62.7549 12.9997 56.2415 19.6044 54.5113 27.9974C54.0466 30.2517 53.942 32.7516 54.2781 33.5716C54.8699 35.0155 56.9705 35.5422 58.2364 34.5642C59.009 33.9674 59.2494 33.2734 59.4011 31.2018C59.8801 24.6655 64.2298 19.1141 70.5628 16.9565C72.3428 16.3501 72.6554 16.3068 75.2786 16.3034C77.7591 16.3003 78.2949 16.3637 79.8553 16.8451C83.3054 17.9093 85.6782 19.5529 88.1177 22.5687C89.9775 24.868 91.4197 28.8768 91.4292 31.7734C91.431 32.3639 91.5578 33.1508 91.7109 33.5218C92.5993 35.6759 95.8353 35.5643 96.5848 33.3539C96.8013 32.715 96.8138 32.1271 96.646 30.4556C95.991 23.9341 92.5036 17.9788 87.3094 14.5125C85.0031 12.9733 83.3142 12.2204 80.2953 11.3851C79.1297 11.0627 73.4081 10.7773 72.4692 10.9946ZM82.0673 22.0483C81.5883 22.3443 80.4434 24.113 77.4296 29.2132C75.2288 32.9376 73.2801 36.2776 73.0991 36.6354C71.9013 39.0046 74.4827 41.5445 76.6979 40.1762C77.3254 39.7886 77.8648 38.9531 82.2268 31.6145C85.6739 25.8148 85.8565 25.4711 85.9613 24.5844C86.2155 22.4283 83.897 20.9181 82.0673 22.0483ZM78.1883 67.6958V70.4401H75.4792H72.7702V67.6958V64.9516H75.4792H78.1883V67.6958ZM84.5464 76.1202C85.4945 76.5564 85.8971 77.2012 86.099 78.6077C86.174 79.1307 86.4194 79.7958 86.6444 80.0855C87.4625 81.1391 87.8518 81.2137 92.5273 81.2137H96.8525L96.8016 102.913L96.7504 124.613H75.3789H54.0074L53.9563 102.913L53.9053 81.2137L58.2707 81.2128C62.244 81.2122 62.6939 81.1765 63.2776 80.816C64.1421 80.282 64.5282 79.6318 64.7235 78.3806C64.9103 77.1829 65.659 76.231 66.6421 75.9415C66.9774 75.8427 70.9541 75.7557 75.4792 75.748C83.1501 75.7352 83.7636 75.7602 84.5464 76.1202ZM9.70266 81.5531C10.091 81.7397 10.5784 82.1743 10.7857 82.5187C11.1477 83.12 11.1627 83.9288 11.1627 102.862C11.1627 122.049 11.1521 122.598 10.7716 123.23C10.2108 124.162 9.48091 124.578 8.43441 124.561C7.26911 124.544 6.24649 123.787 5.95612 122.729C5.81947 122.23 5.74802 115.388 5.74742 102.761C5.74662 81.333 5.65873 82.6707 7.13025 81.6751C7.93996 81.1273 8.73783 81.0894 9.70266 81.5531ZM143.628 81.6751C145.1 82.6713 145.011 81.3094 145.011 102.964C145.011 121.045 144.987 122.425 144.66 123.074C144.151 124.086 143.386 124.579 142.326 124.579C141.284 124.579 140.54 124.15 139.986 123.23C139.606 122.598 139.595 122.05 139.596 102.964C139.596 85.7656 139.634 83.2747 139.903 82.7524C140.654 81.2935 142.342 80.8053 143.628 81.6751ZM48.6407 102.913L48.5893 119.124L32.5858 119.177L16.5823 119.229V102.965V86.7021H32.6372H48.6921L48.6407 102.913ZM74.2752 86.9897C72.7708 87.6684 66.6058 94.9268 64.3978 98.6187C61.8737 102.839 61.4489 106.582 63.0302 110.669C64.2459 113.812 67.2547 116.906 70.1938 118.038C71.3938 118.5 71.8134 118.506 72.7048 118.078C73.9417 117.483 74.0547 117.11 74.0721 113.557C74.087 110.575 74.1221 110.295 74.6563 108.91C74.9689 108.099 75.294 107.436 75.3789 107.436C75.4638 107.436 75.7879 108.099 76.0993 108.91C76.6283 110.286 76.6678 110.597 76.6985 113.606L76.7316 116.829L77.428 117.534C78.4905 118.611 79.4236 118.661 81.255 117.74C83.8494 116.436 86.1022 114.155 87.4152 111.502C88.8016 108.702 89.0865 105.016 88.1227 102.354C86.6797 98.3701 84.0742 94.6601 78.7903 89.067C76.6064 86.7551 75.7096 86.3425 74.2752 86.9897ZM134.176 102.965V119.229L118.172 119.177L102.169 119.124L102.117 102.913L102.066 86.7021H118.121H134.176V102.965ZM78.9013 97.2724C80.797 99.6595 81.491 100.699 82.4299 102.558C83.2476 104.176 83.3026 104.388 83.298 105.912C83.2942 107.172 83.1814 107.809 82.7975 108.742C82.2013 110.192 81.8917 110.364 81.7514 109.324C81.3984 106.706 78.7151 102.04 76.7684 100.659C76.1423 100.215 74.6087 100.219 73.977 100.668C72.1914 101.935 69.8823 105.789 69.2299 108.593C69.0397 109.41 68.8226 110.079 68.7475 110.079C68.6723 110.079 68.3536 109.507 68.0392 108.808C67.5616 107.747 67.4676 107.27 67.4698 105.912C67.4721 104.429 67.5403 104.151 68.242 102.761C69.5291 100.212 71.9573 96.8738 74.3228 94.4013L75.4166 93.2581L76.5534 94.503C77.1789 95.1876 78.2353 96.4339 78.9013 97.2724Z" fill="white" stroke="#F37021" stroke-width="2" mask="url(#path-1-inside-1_706_363)"/>
</svg>
